NotoSansLinearB-Regular.ufo
<glyph name="uni10000" format="2">
  <advance width="693"/>
  <unicode hex="10000"/>
  <outline>
    <contour>
      <point x="594" y="330" type="line"/>
      <point x="594" y="800" type="line"/>
      <point x="524" y="800" type="line"/>
      <point x="524" y="608" type="line"/>
      <point x="169" y="608" type="line"/>
      <point x="169" y="800" type="line"/>
      <point x="99" y="800" type="line"/>
      <point x="99" y="330" type="line"/>
      <point x="169" y="330" type="line"/>
      <point x="169" y="545" type="line"/>
      <point x="311" y="545" type="line"/>
      <point x="311" y="0" type="line"/>
      <point x="381" y="0" type="line"/>
      <point x="381" y="545" type="line"/>
      <point x="524" y="545" type="line"/>
      <point x="524" y="330" type="line"/>
    </contour>
  </outline>
</glyph>
<glyph name="uni10001" format="2">
  <advance width="710"/>
  <unicode hex="10001"/>
  <outline>
    <contour>
      <point x="66" y="0" type="curve"/>
      <point x="136" y="0" type="line"/>
      <point x="142" y="115"/>
      <point x="161" y="251"/>
      <point x="187" y="375" type="curve"/>
      <point x="520" y="375" type="line"/>
      <point x="547" y="250"/>
      <point x="566" y="114"/>
      <point x="573" y="0" type="curve"/>
      <point x="644" y="0" type="line"/>
      <point x="635" y="161"/>
      <point x="603" y="377"/>
      <point x="549" y="545" type="curve"/>
      <point x="583" y="545" type="line"/>
      <point x="583" y="608" type="line"/>
      <point x="526" y="608" type="line"/>
      <point x="480" y="727"/>
      <point x="422" y="810"/>
      <point x="354" y="810" type="curve" smooth="yes"/>
      <point x="290" y="810"/>
      <point x="233" y="727"/>
      <point x="186" y="608" type="curve"/>
      <point x="130" y="608" type="line"/>
      <point x="130" y="545" type="line"/>
      <point x="164" y="545" type="line"/>
      <point x="111" y="380"/>
      <point x="75" y="169"/>
    </contour>
    <contour>
      <point x="231" y="545" type="curve"/>
      <point x="476" y="545" type="line"/>
      <point x="487" y="512"/>
      <point x="497" y="476"/>
      <point x="506" y="438" type="curve"/>
      <point x="202" y="438" type="line"/>
      <point x="211" y="476"/>
      <point x="221" y="512"/>
    </contour>
    <contour>
      <point x="354" y="740" type="curve" smooth="yes"/>
      <point x="389" y="740"/>
      <point x="426" y="688"/>
      <point x="457" y="608" type="curve"/>
      <point x="251" y="608" type="line"/>
      <point x="282" y="688"/>
      <point x="319" y="740"/>
    </contour>
  </outline>
</glyph>
<glyph name="uni10002" format="2">
  <advance width="630"/>
  <unicode hex="10002"/>
  <outline>
    <contour>
      <point x="370" y="432" type="curve"/>
      <point x="347" y="432" type="line"/>
      <point x="349" y="456"/>
      <point x="350" y="502"/>
      <point x="350" y="545" type="curve" smooth="yes"/>
      <point x="350" y="800" type="line"/>
      <point x="280" y="800" type="line"/>
      <point x="280" y="545" type="line" smooth="yes"/>
      <point x="280" y="500"/>
      <point x="282" y="457"/>
      <point x="283" y="432" type="curve"/>
      <point x="259" y="432" type="line"/>
      <point x="251" y="476"/>
      <point x="220" y="556"/>
      <point x="186" y="643" type="curve" smooth="yes"/>
      <point x="120" y="810" type="line"/>
      <point x="55" y="784" type="line"/>
      <point x="163" y="532" type="line" smooth="yes"/>
      <point x="188" y="474"/>
      <point x="196" y="457"/>
      <point x="210" y="435" type="curve"/>
      <point x="207" y="432" type="line"/>
      <point x="189" y="434"/>
      <point x="174" y="435"/>
      <point x="152" y="435" type="curve"/>
      <point x="152" y="372" type="line"/>
      <point x="161" y="372" type="line" smooth="yes"/>
      <point x="231" y="372"/>
      <point x="270" y="373"/>
      <point x="283" y="374" type="curve"/>
      <point x="281" y="349"/>
      <point x="280" y="317"/>
      <point x="280" y="274" type="curve" smooth="yes"/>
      <point x="280" y="0" type="line"/>
      <point x="350" y="0" type="line"/>
      <point x="350" y="274" type="line" smooth="yes"/>
      <point x="350" y="317"/>
      <point x="349" y="349"/>
      <point x="347" y="374" type="curve"/>
      <point x="362" y="373"/>
      <point x="400" y="372"/>
      <point x="469" y="372" type="curve" smooth="yes"/>
      <point x="478" y="372" type="line"/>
      <point x="478" y="435" type="line"/>
      <point x="456" y="435"/>
      <point x="441" y="434"/>
      <point x="423" y="432" type="curve"/>
      <point x="420" y="435" type="line"/>
      <point x="434" y="457"/>
      <point x="442" y="474"/>
      <point x="467" y="532" type="curve" smooth="yes"/>
      <point x="575" y="784" type="line"/>
      <point x="510" y="810" type="line"/>
      <point x="444" y="643" type="line" smooth="yes"/>
      <point x="409" y="555"/>
      <point x="376" y="466"/>
    </contour>
  </outline>
</glyph>
<glyph name="uni10003" format="2">
  <advance width="712"/>
  <unicode hex="10003"/>
  <outline>
    <contour>
      <point x="260" y="800" type="curve" smooth="yes"/>
      <point x="111" y="800" type="line"/>
      <point x="111" y="0" type="line"/>
      <point x="608" y="0" type="line"/>
      <point x="608" y="491" type="line"/>
      <point x="343" y="491"/>
      <point x="402" y="800"/>
    </contour>
    <contour>
      <point x="178" y="737" type="line"/>
      <point x="244" y="737" type="line"/>
      <point x="330" y="737"/>
      <point x="305" y="478"/>
      <point x="538" y="437" type="curve"/>
      <point x="538" y="63" type="line"/>
      <point x="178" y="63" type="line"/>
    </contour>
    <contour>
      <point x="410" y="680" type="curve"/>
      <point x="447" y="639" type="line"/>
      <point x="465" y="657"/>
      <point x="505" y="695"/>
      <point x="536" y="695" type="curve" smooth="yes"/>
      <point x="555" y="695"/>
      <point x="569" y="679"/>
      <point x="569" y="662" type="curve" smooth="yes"/>
      <point x="569" y="629"/>
      <point x="527" y="595"/>
      <point x="509" y="577" type="curve"/>
      <point x="548" y="541" type="line"/>
      <point x="579" y="572"/>
      <point x="624" y="625"/>
      <point x="624" y="667" type="curve" smooth="yes"/>
      <point x="624" y="715"/>
      <point x="584" y="751"/>
      <point x="539" y="751" type="curve" smooth="yes"/>
      <point x="497" y="751"/>
      <point x="440" y="710"/>
    </contour>
  </outline>
</glyph>
<glyph name="uni10004" format="2">
  <advance width="548"/>
  <unicode hex="10004"/>
  <outline>
    <contour>
      <point x="344" y="388" type="line"/>
      <point x="409" y="397" type="line"/>
      <point x="397" y="482" type="line"/>
      <point x="482" y="482" type="line"/>
      <point x="482" y="545" type="line"/>
      <point x="389" y="545" type="line"/>
      <point x="363" y="738" type="line"/>
      <point x="377" y="737"/>
      <point x="392" y="735"/>
      <point x="409" y="732" type="curve"/>
      <point x="420" y="794" type="line"/>
      <point x="377" y="803"/>
      <point x="328" y="805"/>
      <point x="291" y="805" type="curve" smooth="yes"/>
      <point x="169" y="805"/>
      <point x="99" y="725"/>
      <point x="99" y="521" type="curve" smooth="yes"/>
      <point x="99" y="0" type="line"/>
      <point x="169" y="0" type="line"/>
      <point x="169" y="482" type="line"/>
      <point x="331" y="482" type="line"/>
    </contour>
    <contour>
      <point x="297" y="742" type="curve"/>
      <point x="323" y="545" type="line"/>
      <point x="169" y="545" type="line"/>
      <point x="172" y="699"/>
      <point x="214" y="742"/>
    </contour>
  </outline>
</glyph>
<glyph name="uni10005" format="2">
  <advance width="500"/>
  <unicode hex="10005"/>
  <outline>
    <contour>
      <point x="434" y="405" type="line"/>
      <point x="434" y="468" type="line"/>
      <point x="181" y="468" type="line"/>
      <point x="181" y="800" type="line"/>
      <point x="111" y="800" type="line"/>
      <point x="111" y="0" type="line"/>
      <point x="181" y="0" type="line"/>
      <point x="181" y="405" type="line"/>
    </contour>
  </outline>
</glyph>
<glyph name="uni10006" format="2">
  <advance width="781"/>
  <unicode hex="10006"/>
  <outline>
    <contour>
      <point x="472" y="487" type="line"/>
      <point x="534" y="487" type="line"/>
      <point x="576" y="582" type="line" smooth="yes"/>
      <point x="592" y="618"/>
      <point x="607" y="653"/>
      <point x="612" y="672" type="curve"/>
      <point x="615" y="671" type="line"/>
      <point x="615" y="651"/>
      <point x="616" y="622"/>
      <point x="622" y="581" type="curve" smooth="yes"/>
      <point x="631" y="518" type="line"/>
      <point x="693" y="529" type="line"/>
      <point x="653" y="745" type="line"/>
      <point x="672" y="787" type="line"/>
      <point x="610" y="818" type="line"/>
      <point x="561" y="709" type="line" smooth="yes"/>
      <point x="540" y="663"/>
      <point x="517" y="578"/>
      <point x="513" y="553" type="curve"/>
      <point x="509" y="553" type="line"/>
      <point x="502" y="581"/>
      <point x="475" y="666"/>
      <point x="458" y="710" type="curve" smooth="yes"/>
      <point x="416" y="821" type="line"/>
      <point x="364" y="821" type="line"/>
      <point x="323" y="709" type="line" smooth="yes"/>
      <point x="308" y="669"/>
      <point x="284" y="582"/>
      <point x="281" y="553" type="curve"/>
      <point x="277" y="553" type="line"/>
      <point x="272" y="581"/>
      <point x="241" y="663"/>
      <point x="220" y="709" type="curve" smooth="yes"/>
      <point x="171" y="818" type="line"/>
      <point x="109" y="787" type="line"/>
      <point x="128" y="745" type="line"/>
      <point x="88" y="529" type="line"/>
      <point x="150" y="518" type="line"/>
      <point x="159" y="581" type="line" smooth="yes"/>
      <point x="165" y="622"/>
      <point x="168" y="651"/>
      <point x="168" y="671" type="curve"/>
      <point x="171" y="672" type="line"/>
      <point x="176" y="653"/>
      <point x="189" y="619"/>
      <point x="205" y="582" type="curve" smooth="yes"/>
      <point x="247" y="485" type="line"/>
      <point x="309" y="485" type="line"/>
      <point x="357" y="606" type="line" smooth="yes"/>
      <point x="372" y="644"/>
      <point x="384" y="695"/>
      <point x="388" y="723" type="curve"/>
      <point x="392" y="723" type="line"/>
      <point x="395" y="695"/>
      <point x="411" y="643"/>
      <point x="426" y="604" type="curve" smooth="yes"/>
    </contour>
    <contour>
      <point x="145" y="23" type="curve"/>
      <point x="210" y="-9" type="line"/>
      <point x="255" y="74"/>
      <point x="297" y="129"/>
      <point x="340" y="173" type="curve" smooth="yes"/>
      <point x="367" y="201"/>
      <point x="383" y="221"/>
      <point x="389" y="236" type="curve"/>
      <point x="393" y="236" type="line"/>
      <point x="398" y="219"/>
      <point x="414" y="200"/>
      <point x="440" y="171" type="curve" smooth="yes"/>
      <point x="481" y="126"/>
      <point x="527" y="74"/>
      <point x="572" y="-9" type="curve"/>
      <point x="637" y="23" type="line"/>
      <point x="575" y="128"/>
      <point x="514" y="196"/>
      <point x="440" y="267" type="curve"/>
      <point x="491" y="314"/>
      <point x="541" y="364"/>
      <point x="584" y="394" type="curve"/>
      <point x="584" y="457" type="line"/>
      <point x="198" y="457" type="line"/>
      <point x="198" y="394" type="line"/>
      <point x="240" y="364"/>
      <point x="291" y="314"/>
      <point x="342" y="267" type="curve"/>
      <point x="268" y="196"/>
      <point x="206" y="128"/>
    </contour>
    <contour>
      <point x="393" y="296" type="curve"/>
      <point x="389" y="296" type="line"/>
      <point x="382" y="309"/>
      <point x="370" y="324"/>
      <point x="346" y="346" type="curve" smooth="yes"/>
      <point x="326" y="365"/>
      <point x="296" y="392"/>
      <point x="279" y="396" type="curve"/>
      <point x="279" y="402" type="line"/>
      <point x="287" y="401"/>
      <point x="311" y="399"/>
      <point x="336" y="399" type="curve" smooth="yes"/>
      <point x="446" y="399" type="line" smooth="yes"/>
      <point x="471" y="399"/>
      <point x="495" y="401"/>
      <point x="503" y="402" type="curve"/>
      <point x="503" y="396" type="line"/>
      <point x="487" y="392"/>
      <point x="457" y="365"/>
      <point x="436" y="347" type="curve" smooth="yes"/>
      <point x="408" y="322"/>
      <point x="399" y="308"/>
    </contour>
  </outline>
</glyph>
<glyph name="uni10007" format="2">
  <advance width="693"/>
  <unicode hex="10007"/>
  <outline>
    <contour>
      <point x="594" y="737" type="line"/>
      <point x="594" y="800" type="line"/>
      <point x="99" y="800" type="line"/>
      <point x="99" y="737" type="line"/>
    </contour>
    <contour>
      <point x="381" y="0" type="line"/>
      <point x="381" y="355" type="line"/>
      <point x="311" y="355" type="line"/>
      <point x="311" y="0" type="line"/>
    </contour>
    <contour>
      <point x="169" y="410" type="line"/>
      <point x="169" y="680" type="line"/>
      <point x="99" y="680" type="line"/>
      <point x="99" y="410" type="line"/>
    </contour>
    <contour>
      <point x="594" y="680" type="line"/>
      <point x="524" y="680" type="line"/>
      <point x="524" y="410" type="line"/>
      <point x="594" y="410" type="line"/>
    </contour>
    <contour>
      <point x="381" y="410" type="line"/>
      <point x="381" y="680" type="line"/>
      <point x="311" y="680" type="line"/>
      <point x="311" y="410" type="line"/>
    </contour>
  </outline>
</glyph>
<glyph name="uni10008" format="2">
  <advance width="552"/>
  <unicode hex="10008"/>
  <outline>
    <contour>
      <point x="314" y="789" type="curve"/>
      <point x="250" y="810" type="line"/>
      <point x="216" y="712"/>
      <point x="88" y="701"/>
      <point x="88" y="599" type="curve" smooth="yes"/>
      <point x="88" y="489"/>
      <point x="240" y="495"/>
      <point x="240" y="390" type="curve" smooth="yes"/>
      <point x="240" y="0" type="line"/>
      <point x="310" y="0" type="line"/>
      <point x="310" y="390" type="line" smooth="yes"/>
      <point x="310" y="527"/>
      <point x="156" y="537"/>
      <point x="156" y="605" type="curve" smooth="yes"/>
      <point x="156" y="676"/>
      <point x="279" y="686"/>
    </contour>
    <contour>
      <point x="473" y="469" type="curve"/>
      <point x="486" y="529" type="line"/>
      <point x="429" y="534"/>
      <point x="399" y="541"/>
      <point x="399" y="561" type="curve" smooth="yes"/>
      <point x="399" y="598"/>
      <point x="480" y="621"/>
      <point x="480" y="684" type="curve" smooth="yes"/>
      <point x="480" y="735"/>
      <point x="445" y="765"/>
      <point x="345" y="780" type="curve"/>
      <point x="329" y="720" type="line"/>
      <point x="388" y="714"/>
      <point x="414" y="700"/>
      <point x="414" y="674" type="curve" smooth="yes"/>
      <point x="414" y="643"/>
      <point x="332" y="607"/>
      <point x="332" y="545" type="curve" smooth="yes"/>
      <point x="332" y="503"/>
      <point x="360" y="473"/>
    </contour>
  </outline>
</glyph>
<glyph name="uni10009" format="2">
  <advance width="704"/>
  <unicode hex="10009"/>
  <outline>
    <contour>
      <point x="615" y="800" type="curve"/>
      <point x="545" y="811" type="line"/>
      <point x="541" y="791"/>
      <point x="535" y="755"/>
      <point x="535" y="703" type="curve" smooth="yes"/>
      <point x="535" y="675"/>
      <point x="535" y="643"/>
      <point x="540" y="608" type="curve"/>
      <point x="154" y="608" type="line"/>
      <point x="161" y="642"/>
      <point x="162" y="673"/>
      <point x="162" y="701" type="curve" smooth="yes"/>
      <point x="162" y="755"/>
      <point x="153" y="789"/>
      <point x="147" y="811" type="curve"/>
      <point x="77" y="800" type="line"/>
      <point x="82" y="783"/>
      <point x="93" y="742"/>
      <point x="93" y="675" type="curve" smooth="yes"/>
      <point x="93" y="639"/>
      <point x="89" y="595"/>
      <point x="80" y="545" type="curve"/>
      <point x="148" y="545" type="line"/>
      <point x="155" y="511"/>
      <point x="158" y="480"/>
      <point x="158" y="451" type="curve" smooth="yes"/>
      <point x="158" y="334"/>
      <point x="95" y="235"/>
      <point x="95" y="131" type="curve" smooth="yes"/>
      <point x="95" y="86"/>
      <point x="107" y="39"/>
      <point x="142" y="-10" type="curve"/>
      <point x="202" y="21" type="line"/>
      <point x="169" y="69"/>
      <point x="163" y="101"/>
      <point x="163" y="156" type="curve" smooth="yes"/>
      <point x="163" y="257"/>
      <point x="227" y="351"/>
      <point x="227" y="474" type="curve" smooth="yes"/>
      <point x="227" y="496"/>
      <point x="225" y="520"/>
      <point x="221" y="545" type="curve"/>
      <point x="310" y="545" type="line"/>
      <point x="317" y="511"/>
      <point x="320" y="480"/>
      <point x="320" y="451" type="curve" smooth="yes"/>
      <point x="320" y="357"/>
      <point x="289" y="247"/>
      <point x="289" y="162" type="curve" smooth="yes"/>
      <point x="289" y="111"/>
      <point x="300" y="56"/>
      <point x="334" y="-10" type="curve"/>
      <point x="398" y="21" type="line"/>
      <point x="366" y="85"/>
      <point x="358" y="138"/>
      <point x="358" y="187" type="curve" smooth="yes"/>
      <point x="358" y="271"/>
      <point x="389" y="372"/>
      <point x="389" y="474" type="curve" smooth="yes"/>
      <point x="389" y="496"/>
      <point x="387" y="520"/>
      <point x="383" y="545" type="curve"/>
      <point x="470" y="545" type="line"/>
      <point x="477" y="511"/>
      <point x="480" y="480"/>
      <point x="480" y="451" type="curve" smooth="yes"/>
      <point x="480" y="264"/>
      <point x="502" y="159"/>
      <point x="574" y="-10" type="curve"/>
      <point x="638" y="21" type="line"/>
      <point x="575" y="185"/>
      <point x="549" y="274"/>
      <point x="549" y="474" type="curve" smooth="yes"/>
      <point x="549" y="496"/>
      <point x="547" y="520"/>
      <point x="543" y="545" type="curve"/>
      <point x="615" y="545" type="line"/>
      <point x="606" y="598"/>
      <point x="603" y="644"/>
      <point x="603" y="682" type="curve" smooth="yes"/>
      <point x="603" y="744"/>
      <point x="610" y="777"/>
    </contour>
  </outline>
</glyph>
<glyph name="uni1000A" format="2">
  <advance width="669"/>
  <unicode hex="1000A"/>
  <outline>
    <contour>
      <point x="558" y="800" type="line"/>
      <point x="111" y="800" type="line"/>
      <point x="111" y="0" type="line"/>
      <point x="558" y="0" type="line"/>
    </contour>
    <contour>
      <point x="178" y="256" type="line"/>
      <point x="178" y="545" type="line"/>
      <point x="488" y="545" type="line"/>
      <point x="488" y="256" type="line"/>
    </contour>
    <contour>
      <point x="488" y="63" type="line"/>
      <point x="178" y="63" type="line"/>
      <point x="178" y="193" type="line"/>
      <point x="488" y="193" type="line"/>
    </contour>
    <contour>
      <point x="178" y="608" type="line"/>
      <point x="178" y="737" type="line"/>
      <point x="488" y="737" type="line"/>
      <point x="488" y="608" type="line"/>
    </contour>
  </outline>
</glyph>
<glyph name="uni1000B" format="2">
  <advance width="746"/>
  <unicode hex="1000B"/>
  <outline>
    <contour>
      <point x="322" y="547" type="curve" smooth="yes"/>
      <point x="146" y="819" type="line"/>
      <point x="87" y="783" type="line"/>
      <point x="267" y="505" type="line" smooth="yes"/>
      <point x="303" y="450"/>
      <point x="315" y="435"/>
      <point x="337" y="404" type="curve"/>
      <point x="318" y="379"/>
      <point x="300" y="354"/>
      <point x="260" y="293" type="curve" smooth="yes"/>
      <point x="87" y="26" type="line"/>
      <point x="146" y="-10" type="line"/>
      <point x="321" y="261" type="line" smooth="yes"/>
      <point x="362" y="324"/>
      <point x="372" y="346"/>
      <point x="373" y="347" type="curve"/>
      <point x="374" y="344"/>
      <point x="386" y="320"/>
      <point x="420" y="268" type="curve" smooth="yes"/>
      <point x="601" y="-10" type="line"/>
      <point x="660" y="26" type="line"/>
      <point x="482" y="299" type="line" smooth="yes"/>
      <point x="444" y="357"/>
      <point x="421" y="388"/>
      <point x="409" y="404" type="curve"/>
      <point x="427" y="429"/>
      <point x="448" y="455"/>
      <point x="480" y="505" type="curve" smooth="yes"/>
      <point x="660" y="783" type="line"/>
      <point x="601" y="819" type="line"/>
      <point x="421" y="541" type="line" smooth="yes"/>
      <point x="383" y="482"/>
      <point x="374" y="463"/>
      <point x="373" y="461" type="curve"/>
      <point x="371" y="464"/>
      <point x="362" y="486"/>
    </contour>
    <contour>
      <point x="618" y="398" type="line"/>
      <point x="680" y="409" type="line"/>
      <point x="639" y="631" type="line"/>
      <point x="577" y="619" type="line"/>
    </contour>
    <contour>
      <point x="66" y="409" type="line"/>
      <point x="128" y="398" type="line"/>
      <point x="169" y="619" type="line"/>
      <point x="107" y="631" type="line"/>
    </contour>
  </outline>
</glyph>
<glyph name="uni1000D" format="2">
  <advance width="626"/>
  <unicode hex="1000D"/>
  <outline>
    <contour>
      <point x="571" y="730" type="line"/>
      <point x="571" y="800" type="line"/>
      <point x="77" y="800" type="line"/>
      <point x="77" y="542" type="line"/>
      <point x="125" y="529" type="line"/>
      <point x="144" y="571"/>
      <point x="183" y="596"/>
      <point x="232" y="596" type="curve" smooth="yes"/>
      <point x="274" y="596"/>
      <point x="294" y="562"/>
      <point x="294" y="528" type="curve" smooth="yes"/>
      <point x="294" y="437"/>
      <point x="180" y="394"/>
      <point x="180" y="270" type="curve" smooth="yes"/>
      <point x="180" y="195"/>
      <point x="214" y="93"/>
      <point x="271" y="0" type="curve"/>
      <point x="353" y="0" type="line"/>
      <point x="287" y="94"/>
      <point x="250" y="212"/>
      <point x="250" y="278" type="curve" smooth="yes"/>
      <point x="250" y="368"/>
      <point x="364" y="438"/>
      <point x="364" y="535" type="curve" smooth="yes"/>
      <point x="364" y="611"/>
      <point x="320" y="662"/>
      <point x="235" y="662" type="curve" smooth="yes"/>
      <point x="199" y="662"/>
      <point x="166" y="648"/>
      <point x="147" y="630" type="curve"/>
      <point x="147" y="730" type="line"/>
    </contour>
  </outline>
</glyph>
<glyph name="uni1000E" format="2">
  <advance width="982"/>
  <unicode hex="1000E"/>
  <outline>
    <contour>
      <point x="44" y="794" type="curve"/>
      <point x="55" y="732" type="line"/>
      <point x="79" y="738"/>
      <point x="104" y="742"/>
      <point x="141" y="742" type="curve" smooth="yes"/>
      <point x="199" y="742"/>
      <point x="225" y="718"/>
      <point x="225" y="607" type="curve" smooth="yes"/>
      <point x="225" y="0" type="line"/>
      <point x="295" y="0" type="line"/>
      <point x="295" y="395" type="line"/>
      <point x="422" y="395" type="line"/>
      <point x="422" y="0" type="line"/>
      <point x="492" y="0" type="line"/>
      <point x="492" y="395" type="line"/>
      <point x="630" y="395" type="line"/>
      <point x="630" y="0" type="line"/>
      <point x="697" y="0" type="line"/>
      <point x="697" y="395" type="line"/>
      <point x="827" y="395" type="line"/>
      <point x="827" y="0" type="line"/>
      <point x="894" y="0" type="line"/>
      <point x="894" y="458" type="line"/>
      <point x="697" y="458" type="line"/>
      <point x="697" y="595" type="line"/>
      <point x="630" y="595" type="line"/>
      <point x="630" y="458" type="line"/>
      <point x="295" y="458" type="line"/>
      <point x="295" y="607" type="line" smooth="yes"/>
      <point x="295" y="755"/>
      <point x="252" y="805"/>
      <point x="142" y="805" type="curve" smooth="yes"/>
      <point x="104" y="805"/>
      <point x="73" y="800"/>
    </contour>
  </outline>
</glyph>
<glyph name="uni1000F" format="2">
  <advance width="825"/>
  <unicode hex="1000F"/>
  <outline>
    <contour>
      <point x="66" y="397" type="curve" smooth="yes"/>
      <point x="66" y="206"/>
      <point x="221" y="51"/>
      <point x="413" y="51" type="curve" smooth="yes"/>
      <point x="604" y="51"/>
      <point x="759" y="206"/>
      <point x="759" y="397" type="curve" smooth="yes"/>
      <point x="759" y="588"/>
      <point x="604" y="743"/>
      <point x="413" y="743" type="curve" smooth="yes"/>
      <point x="221" y="743"/>
      <point x="66" y="588"/>
    </contour>
    <contour>
      <point x="442" y="117" type="curve"/>
      <point x="442" y="367" type="line"/>
      <point x="687" y="367" type="line"/>
      <point x="673" y="238"/>
      <point x="570" y="131"/>
    </contour>
    <contour>
      <point x="687" y="430" type="curve"/>
      <point x="442" y="430" type="line"/>
      <point x="442" y="676" type="line"/>
      <point x="569" y="662"/>
      <point x="672" y="557"/>
    </contour>
    <contour>
      <point x="137" y="367" type="curve"/>
      <point x="378" y="367" type="line"/>
      <point x="378" y="118" type="line"/>
      <point x="251" y="134"/>
      <point x="151" y="240"/>
    </contour>
    <contour>
      <point x="378" y="676" type="curve"/>
      <point x="378" y="430" type="line"/>
      <point x="138" y="430" type="line"/>
      <point x="153" y="556"/>
      <point x="252" y="659"/>
    </contour>
  </outline>
</glyph>
<glyph name="uni10010" format="2">
  <advance width="781"/>
  <unicode hex="10010"/>
  <outline>
    <contour>
      <point x="625" y="457" type="line"/>
      <point x="142" y="457" type="line"/>
      <point x="142" y="394" type="line"/>
      <point x="240" y="394" type="line" smooth="yes"/>
      <point x="280" y="394"/>
      <point x="328" y="401"/>
      <point x="338" y="403" type="curve"/>
      <point x="340" y="400" type="line"/>
      <point x="283" y="286"/>
      <point x="231" y="156"/>
      <point x="183" y="11" type="curve"/>
      <point x="250" y="-10" type="line"/>
      <point x="286" y="109"/>
      <point x="323" y="211"/>
      <point x="364" y="305" type="curve" smooth="yes"/>
      <point x="371" y="322"/>
      <point x="380" y="357"/>
      <point x="384" y="387" type="curve"/>
      <point x="388" y="387" type="line"/>
      <point x="393" y="357"/>
      <point x="402" y="320"/>
      <point x="408" y="307" type="curve" smooth="yes"/>
      <point x="450" y="212"/>
      <point x="489" y="109"/>
      <point x="528" y="-10" type="curve"/>
      <point x="593" y="11" type="line"/>
      <point x="545" y="151"/>
      <point x="496" y="281"/>
      <point x="435" y="397" type="curve"/>
      <point x="436" y="400" type="line"/>
      <point x="454" y="399"/>
      <point x="497" y="394"/>
      <point x="540" y="394" type="curve" smooth="yes"/>
      <point x="625" y="394" type="line"/>
    </contour>
    <contour>
      <point x="422" y="0" type="line"/>
      <point x="422" y="154" type="line"/>
      <point x="352" y="154" type="line"/>
      <point x="352" y="0" type="line"/>
    </contour>
    <contour>
      <point x="472" y="487" type="line"/>
      <point x="534" y="487" type="line"/>
      <point x="576" y="582" type="line" smooth="yes"/>
      <point x="592" y="618"/>
      <point x="607" y="653"/>
      <point x="612" y="672" type="curve"/>
      <point x="615" y="671" type="line"/>
      <point x="615" y="651"/>
      <point x="616" y="622"/>
      <point x="622" y="581" type="curve" smooth="yes"/>
      <point x="631" y="518" type="line"/>
      <point x="693" y="529" type="line"/>
      <point x="653" y="745" type="line"/>
      <point x="672" y="787" type="line"/>
      <point x="610" y="818" type="line"/>
      <point x="561" y="709" type="line" smooth="yes"/>
      <point x="540" y="663"/>
      <point x="517" y="578"/>
      <point x="513" y="553" type="curve"/>
      <point x="509" y="553" type="line"/>
      <point x="502" y="581"/>
      <point x="475" y="666"/>
      <point x="458" y="710" type="curve" smooth="yes"/>
      <point x="416" y="821" type="line"/>
      <point x="364" y="821" type="line"/>
      <point x="323" y="709" type="line" smooth="yes"/>
      <point x="308" y="669"/>
      <point x="284" y="582"/>
      <point x="281" y="553" type="curve"/>
      <point x="277" y="553" type="line"/>
      <point x="272" y="581"/>
      <point x="241" y="663"/>
      <point x="220" y="709" type="curve" smooth="yes"/>
      <point x="171" y="818" type="line"/>
      <point x="109" y="787" type="line"/>
      <point x="128" y="745" type="line"/>
      <point x="88" y="529" type="line"/>
      <point x="150" y="518" type="line"/>
      <point x="159" y="581" type="line" smooth="yes"/>
      <point x="165" y="622"/>
      <point x="168" y="651"/>
      <point x="168" y="671" type="curve"/>
      <point x="171" y="672" type="line"/>
      <point x="176" y="653"/>
      <point x="189" y="619"/>
      <point x="205" y="582" type="curve" smooth="yes"/>
      <point x="247" y="485" type="line"/>
      <point x="309" y="485" type="line"/>
      <point x="357" y="606" type="line" smooth="yes"/>
      <point x="372" y="644"/>
      <point x="384" y="695"/>
      <point x="388" y="723" type="curve"/>
      <point x="392" y="723" type="line"/>
      <point x="395" y="695"/>
      <point x="411" y="643"/>
      <point x="426" y="604" type="curve" smooth="yes"/>
    </contour>
  </outline>
</glyph>
<glyph name="uni10011" format="2">
  <advance width="731"/>
  <unicode hex="10011"/>
  <outline>
    <contour>
      <point x="457" y="54" type="curve"/>
      <point x="453" y="54" type="line"/>
      <point x="453" y="77"/>
      <point x="446" y="145"/>
      <point x="433" y="188" type="curve" smooth="yes"/>
      <point x="329" y="545" type="line"/>
      <point x="580" y="545" type="line"/>
      <point x="477" y="187" type="line" smooth="yes"/>
      <point x="464" y="143"/>
      <point x="457" y="77"/>
    </contour>
    <contour>
      <point x="166" y="742" type="curve" smooth="yes"/>
      <point x="218" y="742"/>
      <point x="238" y="700"/>
      <point x="238" y="662" type="curve" smooth="yes"/>
      <point x="238" y="642"/>
      <point x="222" y="627"/>
      <point x="204" y="627" type="curve" smooth="yes"/>
      <point x="169" y="627"/>
      <point x="123" y="648"/>
      <point x="123" y="700" type="curve" smooth="yes"/>
      <point x="123" y="724"/>
      <point x="144" y="742"/>
    </contour>
    <contour>
      <point x="275" y="634" type="line"/>
      <point x="272" y="637" type="line"/>
      <point x="276" y="652"/>
      <point x="280" y="675"/>
      <point x="280" y="688" type="curve" smooth="yes"/>
      <point x="280" y="747"/>
      <point x="239" y="809"/>
      <point x="169" y="809" type="curve" smooth="yes"/>
      <point x="99" y="809"/>
      <point x="55" y="764"/>
      <point x="55" y="697" type="curve" smooth="yes"/>
      <point x="55" y="630"/>
      <point x="123" y="585"/>
      <point x="178" y="585" type="curve" smooth="yes"/>
      <point x="200" y="585"/>
      <point x="213" y="591"/>
      <point x="231" y="600" type="curve"/>
      <point x="234" y="597" type="line"/>
      <point x="110" y="483" type="line"/>
      <point x="160" y="434" type="line"/>
      <point x="219" y="494"/>
      <point x="244" y="540"/>
      <point x="254" y="555" type="curve"/>
      <point x="403" y="63" type="line"/>
      <point x="308" y="63" type="line"/>
      <point x="308" y="0" type="line"/>
      <point x="602" y="0" type="line"/>
      <point x="602" y="63" type="line"/>
      <point x="507" y="63" type="line"/>
      <point x="654" y="545" type="line"/>
      <point x="654" y="608" type="line"/>
      <point x="311" y="608" type="line"/>
      <point x="330" y="621"/>
      <point x="373" y="647"/>
      <point x="419" y="693" type="curve"/>
      <point x="370" y="743" type="line"/>
    </contour>
  </outline>
</glyph>
<glyph name="uni10012" format="2">
  <advance width="642"/>
  <unicode hex="10012"/>
  <outline>
    <contour>
      <point x="576" y="598" type="curve" smooth="yes"/>
      <point x="576" y="732"/>
      <point x="437" y="810"/>
      <point x="323" y="810" type="curve" smooth="yes"/>
      <point x="209" y="810"/>
      <point x="66" y="732"/>
      <point x="66" y="598" type="curve" smooth="yes"/>
      <point x="66" y="487"/>
      <point x="161" y="421"/>
      <point x="212" y="413" type="curve"/>
      <point x="232" y="42"/>
      <point x="250" y="-10"/>
      <point x="319" y="-10" type="curve" smooth="yes"/>
      <point x="388" y="-10"/>
      <point x="396" y="44"/>
      <point x="421" y="409" type="curve"/>
      <point x="477" y="419"/>
      <point x="576" y="485"/>
    </contour>
    <contour>
      <point x="268" y="670" type="curve"/>
      <point x="204" y="670" type="line"/>
      <point x="211" y="469" type="line"/>
      <point x="164" y="483"/>
      <point x="136" y="540"/>
      <point x="136" y="598" type="curve" smooth="yes"/>
      <point x="136" y="698"/>
      <point x="232" y="747"/>
      <point x="323" y="747" type="curve" smooth="yes"/>
      <point x="414" y="747"/>
      <point x="506" y="698"/>
      <point x="506" y="598" type="curve" smooth="yes"/>
      <point x="506" y="536"/>
      <point x="470" y="483"/>
      <point x="425" y="469" type="curve"/>
      <point x="434" y="670" type="line"/>
      <point x="371" y="670" type="line"/>
      <point x="351" y="90"/>
      <point x="342" y="48"/>
      <point x="319" y="48" type="curve" smooth="yes"/>
      <point x="294" y="48"/>
      <point x="279" y="90"/>
    </contour>
  </outline>
</glyph>
<glyph name="uni10013" format="2">
  <advance width="723"/>
  <unicode hex="10013"/>
  <outline>
    <contour>
      <point x="502" y="373" type="curve" smooth="yes"/>
      <point x="539" y="373"/>
      <point x="567" y="365"/>
      <point x="567" y="335" type="curve" smooth="yes"/>
      <point x="567" y="306"/>
      <point x="511" y="293"/>
      <point x="511" y="241" type="curve" smooth="yes"/>
      <point x="511" y="204" type="line"/>
      <point x="575" y="204" type="line"/>
      <point x="575" y="241" type="line" smooth="yes"/>
      <point x="575" y="279"/>
      <point x="635" y="280"/>
      <point x="635" y="344" type="curve" smooth="yes"/>
      <point x="635" y="401"/>
      <point x="576" y="432"/>
      <point x="505" y="432" type="curve" smooth="yes"/>
      <point x="490" y="432"/>
      <point x="476" y="431"/>
      <point x="463" y="431" type="curve"/>
      <point x="456" y="602"/>
      <point x="372" y="765"/>
      <point x="212" y="814" type="curve"/>
      <point x="185" y="754" type="line"/>
      <point x="323" y="708"/>
      <point x="389" y="577"/>
      <point x="394" y="424" type="curve"/>
      <point x="304" y="410"/>
      <point x="254" y="383"/>
      <point x="210" y="383" type="curve" smooth="yes"/>
      <point x="174" y="383"/>
      <point x="145" y="396"/>
      <point x="145" y="437" type="curve" smooth="yes"/>
      <point x="145" y="474"/>
      <point x="177" y="491"/>
      <point x="210" y="491" type="curve"/>
      <point x="208" y="550" type="line"/>
      <point x="135" y="550"/>
      <point x="77" y="506"/>
      <point x="77" y="437" type="curve" smooth="yes"/>
      <point x="77" y="361"/>
      <point x="135" y="325"/>
      <point x="194" y="325" type="curve" smooth="yes"/>
      <point x="258" y="325"/>
      <point x="305" y="351"/>
      <point x="392" y="364" type="curve"/>
      <point x="379" y="222"/>
      <point x="301" y="97"/>
      <point x="195" y="46" type="curve"/>
      <point x="230" y="-10" type="line"/>
      <point x="358" y="49"/>
      <point x="451" y="212"/>
      <point x="463" y="372" type="curve"/>
      <point x="475" y="372"/>
      <point x="488" y="373"/>
    </contour>
    <contour>
      <point x="575" y="153" type="line"/>
      <point x="511" y="153" type="line"/>
      <point x="511" y="0" type="line"/>
      <point x="575" y="0" type="line"/>
    </contour>
  </outline>
</glyph>
<glyph name="uni10014" format="2">
  <advance width="749"/>
  <unicode hex="10014"/>
  <outline>
    <contour>
      <point x="270" y="650" type="curve" smooth="yes"/>
      <point x="190" y="811" type="line"/>
      <point x="128" y="780" type="line"/>
      <point x="141" y="755" type="line"/>
      <point x="120" y="669"/>
      <point x="98" y="561"/>
      <point x="98" y="481" type="curve" smooth="yes"/>
      <point x="98" y="385"/>
      <point x="130" y="269"/>
      <point x="149" y="211" type="curve"/>
      <point x="125" y="194"/>
      <point x="108" y="169"/>
      <point x="108" y="138" type="curve" smooth="yes"/>
      <point x="108" y="76"/>
      <point x="154" y="33"/>
      <point x="228" y="21" type="curve"/>
      <point x="241" y="81" type="line"/>
      <point x="200" y="86"/>
      <point x="173" y="106"/>
      <point x="173" y="135" type="curve" smooth="yes"/>
      <point x="173" y="167"/>
      <point x="202" y="180"/>
      <point x="247" y="180" type="curve"/>
      <point x="256" y="231" type="line"/>
      <point x="242" y="233"/>
      <point x="229" y="234"/>
      <point x="224" y="234" type="curve" smooth="yes"/>
      <point x="215" y="234"/>
      <point x="207" y="233"/>
      <point x="198" y="231" type="curve"/>
      <point x="188" y="267"/>
      <point x="164" y="372"/>
      <point x="164" y="481" type="curve" smooth="yes"/>
      <point x="164" y="519"/>
      <point x="167" y="563"/>
      <point x="172" y="607" type="curve" smooth="yes"/>
      <point x="175" y="629"/>
      <point x="178" y="662"/>
      <point x="178" y="687" type="curve"/>
      <point x="182" y="687" type="line"/>
      <point x="341" y="377" type="line"/>
      <point x="341" y="0" type="line"/>
      <point x="411" y="0" type="line"/>
      <point x="411" y="379" type="line"/>
      <point x="563" y="677" type="line"/>
      <point x="567" y="677" type="line"/>
      <point x="567" y="652"/>
      <point x="572" y="614"/>
      <point x="575" y="595" type="curve" smooth="yes"/>
      <point x="580" y="562"/>
      <point x="584" y="519"/>
      <point x="584" y="481" type="curve" smooth="yes"/>
      <point x="584" y="370"/>
      <point x="559" y="265"/>
      <point x="550" y="231" type="curve"/>
      <point x="542" y="233"/>
      <point x="533" y="234"/>
      <point x="525" y="234" type="curve" smooth="yes"/>
      <point x="520" y="234"/>
      <point x="506" y="233"/>
      <point x="493" y="231" type="curve"/>
      <point x="501" y="180" type="line"/>
      <point x="543" y="180"/>
      <point x="575" y="167"/>
      <point x="575" y="135" type="curve" smooth="yes"/>
      <point x="575" y="106"/>
      <point x="549" y="86"/>
      <point x="508" y="81" type="curve"/>
      <point x="521" y="21" type="line"/>
      <point x="593" y="33"/>
      <point x="641" y="76"/>
      <point x="641" y="138" type="curve" smooth="yes"/>
      <point x="641" y="170"/>
      <point x="623" y="195"/>
      <point x="599" y="211" type="curve"/>
      <point x="618" y="270"/>
      <point x="651" y="385"/>
      <point x="651" y="481" type="curve" smooth="yes"/>
      <point x="651" y="563"/>
      <point x="628" y="672"/>
      <point x="608" y="752" type="curve"/>
      <point x="623" y="780" type="line"/>
      <point x="561" y="811" type="line"/>
      <point x="481" y="650" type="line" smooth="yes"/>
      <point x="392" y="471"/>
      <point x="378" y="441"/>
      <point x="378" y="410" type="curve"/>
      <point x="374" y="410" type="line"/>
      <point x="374" y="441"/>
      <point x="359" y="472"/>
    </contour>
  </outline>
</glyph>
<glyph name="uni10015" format="2">
  <advance width="815"/>
  <unicode hex="10015"/>
  <outline>
    <contour>
      <point x="572" y="480" type="curve"/>
      <point x="556" y="416" type="line"/>
      <point x="612" y="406" type="line"/>
      <point x="618" y="477" type="line"/>
      <point x="629" y="477"/>
      <point x="648" y="478"/>
      <point x="658" y="479" type="curve"/>
      <point x="642" y="416" type="line"/>
      <point x="698" y="406" type="line"/>
      <point x="706" y="486" type="line"/>
      <point x="728" y="491"/>
      <point x="753" y="499"/>
      <point x="771" y="505" type="curve"/>
      <point x="752" y="561" type="line"/>
      <point x="741" y="556"/>
      <point x="727" y="550"/>
      <point x="716" y="547" type="curve"/>
      <point x="731" y="606" type="line"/>
      <point x="677" y="614" type="line"/>
      <point x="668" y="538" type="line"/>
      <point x="648" y="535"/>
      <point x="641" y="535"/>
      <point x="628" y="535" type="curve"/>
      <point x="645" y="606" type="line"/>
      <point x="591" y="614" type="line"/>
      <point x="583" y="538" type="line"/>
      <point x="560" y="542"/>
      <point x="546" y="560"/>
      <point x="546" y="582" type="curve" smooth="yes"/>
      <point x="546" y="635"/>
      <point x="600" y="656"/>
      <point x="600" y="716" type="curve" smooth="yes"/>
      <point x="600" y="773"/>
      <point x="562" y="805"/>
      <point x="489" y="805" type="curve" smooth="yes"/>
      <point x="426" y="805"/>
      <point x="380" y="748"/>
      <point x="372" y="668" type="curve"/>
      <point x="368" y="668" type="line"/>
      <point x="354" y="748"/>
      <point x="313" y="805"/>
      <point x="215" y="805" type="curve" smooth="yes"/>
      <point x="167" y="805"/>
      <point x="109" y="802"/>
      <point x="66" y="791" type="curve"/>
      <point x="77" y="732" type="line"/>
      <point x="122" y="738" type="line"/>
      <point x="172" y="388" type="line"/>
      <point x="240" y="397" type="line"/>
      <point x="235" y="428"/>
      <point x="231" y="449"/>
      <point x="222" y="482" type="curve"/>
      <point x="337" y="482" type="line"/>
      <point x="337" y="0" type="line"/>
      <point x="407" y="0" type="line"/>
      <point x="407" y="521" type="line" smooth="yes"/>
      <point x="407" y="687"/>
      <point x="430" y="742"/>
      <point x="489" y="742" type="curve" smooth="yes"/>
      <point x="514" y="742"/>
      <point x="534" y="735"/>
      <point x="534" y="711" type="curve" smooth="yes"/>
      <point x="534" y="673"/>
      <point x="485" y="651"/>
      <point x="485" y="582" type="curve" smooth="yes"/>
      <point x="485" y="536"/>
      <point x="521" y="493"/>
    </contour>
    <contour>
      <point x="182" y="742" type="curve"/>
      <point x="215" y="742" type="line" smooth="yes"/>
      <point x="292" y="742"/>
      <point x="334" y="689"/>
      <point x="338" y="545" type="curve"/>
      <point x="215" y="545" type="line"/>
      <point x="197" y="667" type="line" smooth="yes"/>
      <point x="192" y="704"/>
      <point x="190" y="716"/>
    </contour>
  </outline>
</glyph>
<glyph name="uni10016" format="2">
  <advance width="641"/>
  <unicode hex="10016"/>
  <outline>
    <contour>
      <point x="582" y="760" type="curve"/>
      <point x="534" y="810" type="line"/>
      <point x="480" y="768"/>
      <point x="462" y="740"/>
      <point x="462" y="684" type="curve" smooth="yes"/>
      <point x="462" y="615"/>
      <point x="527" y="599"/>
      <point x="527" y="566" type="curve" smooth="yes"/>
      <point x="527" y="549"/>
      <point x="504" y="521"/>
      <point x="472" y="476" type="curve" smooth="yes"/>
      <point x="269" y="191" type="line" smooth="yes"/>
      <point x="235" y="143"/>
      <point x="219" y="111"/>
      <point x="206" y="76" type="curve"/>
      <point x="203" y="77" type="line"/>
      <point x="210" y="111"/>
      <point x="213" y="185"/>
      <point x="213" y="282" type="curve" smooth="yes"/>
      <point x="213" y="691" type="line" smooth="yes"/>
      <point x="213" y="781"/>
      <point x="176" y="803"/>
      <point x="96" y="809" type="curve"/>
      <point x="88" y="741" type="line"/>
      <point x="134" y="736"/>
      <point x="143" y="724"/>
      <point x="143" y="689" type="curve" smooth="yes"/>
      <point x="143" y="0" type="line"/>
      <point x="212" y="0" type="line"/>
      <point x="532" y="446" type="line" smooth="yes"/>
      <point x="575" y="506"/>
      <point x="597" y="541"/>
      <point x="597" y="577" type="curve" smooth="yes"/>
      <point x="597" y="631"/>
      <point x="532" y="646"/>
      <point x="532" y="685" type="curve" smooth="yes"/>
      <point x="532" y="713"/>
      <point x="544" y="734"/>
    </contour>
  </outline>
</glyph>
<glyph name="uni10017" format="2">
  <advance width="606"/>
  <unicode hex="10017"/>
  <outline>
    <contour>
      <point x="182" y="470" type="curve" smooth="yes"/>
      <point x="234" y="470"/>
      <point x="279" y="494"/>
      <point x="308" y="529" type="curve"/>
      <point x="370" y="490"/>
      <point x="382" y="427"/>
      <point x="382" y="317" type="curve" smooth="yes"/>
      <point x="382" y="0" type="line"/>
      <point x="452" y="0" type="line"/>
      <point x="452" y="317" type="line" smooth="yes"/>
      <point x="452" y="428"/>
      <point x="444" y="522"/>
      <point x="367" y="555" type="curve"/>
      <point x="370" y="559" type="line"/>
      <point x="432" y="559"/>
      <point x="462" y="568"/>
      <point x="551" y="640" type="curve"/>
      <point x="514" y="700" type="line"/>
      <point x="424" y="634"/>
      <point x="384" y="607"/>
      <point x="343" y="596" type="curve"/>
      <point x="347" y="610"/>
      <point x="349" y="624"/>
      <point x="349" y="639" type="curve" smooth="yes"/>
      <point x="349" y="742"/>
      <point x="252" y="792"/>
      <point x="190" y="805" type="curve"/>
      <point x="166" y="746" type="line"/>
      <point x="215" y="738"/>
      <point x="287" y="698"/>
      <point x="287" y="642" type="curve" smooth="yes"/>
      <point x="287" y="632"/>
      <point x="286" y="619"/>
      <point x="284" y="609" type="curve"/>
      <point x="145" y="695" type="line"/>
      <point x="114" y="641" type="line"/>
      <point x="258" y="562" type="line"/>
      <point x="242" y="535"/>
      <point x="212" y="528"/>
      <point x="181" y="528" type="curve" smooth="yes"/>
      <point x="140" y="528"/>
      <point x="102" y="561"/>
      <point x="81" y="583" type="curve"/>
      <point x="44" y="536" type="line"/>
      <point x="79" y="496"/>
      <point x="129" y="470"/>
    </contour>
  </outline>
</glyph>
<glyph name="uni10018" format="2">
  <advance width="800"/>
  <unicode hex="10018"/>
  <outline>
    <contour>
      <point x="698" y="329" type="line"/>
      <point x="698" y="392" type="line"/>
      <point x="636" y="392" type="line"/>
      <point x="636" y="737" type="line"/>
      <point x="734" y="737" type="line"/>
      <point x="734" y="800" type="line"/>
      <point x="566" y="800" type="line"/>
      <point x="566" y="608" type="line"/>
      <point x="309" y="608" type="line"/>
      <point x="309" y="640" type="line" smooth="yes"/>
      <point x="309" y="783"/>
      <point x="255" y="810"/>
      <point x="193" y="810" type="curve" smooth="yes"/>
      <point x="127" y="810"/>
      <point x="88" y="761"/>
      <point x="88" y="696" type="curve" smooth="yes"/>
      <point x="88" y="600"/>
      <point x="162" y="545"/>
      <point x="239" y="545" type="curve"/>
      <point x="239" y="0" type="line"/>
      <point x="309" y="0" type="line"/>
      <point x="309" y="545" type="line"/>
      <point x="566" y="545" type="line"/>
      <point x="566" y="392" type="line"/>
      <point x="506" y="392" type="line"/>
      <point x="506" y="329" type="line"/>
    </contour>
    <contour>
      <point x="153" y="689" type="curve" smooth="yes"/>
      <point x="153" y="737"/>
      <point x="176" y="748"/>
      <point x="196" y="748" type="curve" smooth="yes"/>
      <point x="217" y="748"/>
      <point x="239" y="726"/>
      <point x="239" y="640" type="curve" smooth="yes"/>
      <point x="239" y="608" type="line"/>
      <point x="196" y="608"/>
      <point x="153" y="632"/>
    </contour>
  </outline>
</glyph>
<glyph name="uni10019" format="2">
  <advance width="589"/>
  <unicode hex="10019"/>
  <outline>
    <contour>
      <point x="293" y="346" type="curve"/>
      <point x="289" y="346" type="line"/>
      <point x="286" y="362"/>
      <point x="264" y="415"/>
      <point x="246" y="450" type="curve" smooth="yes"/>
      <point x="199" y="540" type="line"/>
      <point x="137" y="509" type="line"/>
      <point x="259" y="281" type="line"/>
      <point x="258" y="265"/>
      <point x="257" y="243"/>
      <point x="257" y="213" type="curve" smooth="yes"/>
      <point x="257" y="0" type="line"/>
      <point x="327" y="0" type="line"/>
      <point x="327" y="216" type="line" smooth="yes"/>
      <point x="327" y="245"/>
      <point x="326" y="266"/>
      <point x="325" y="282" type="curve"/>
      <point x="444" y="510" type="line"/>
      <point x="382" y="541" type="line"/>
      <point x="336" y="451" type="line" smooth="yes"/>
      <point x="316" y="412"/>
      <point x="296" y="362"/>
    </contour>
    <contour>
      <point x="501" y="608" type="line"/>
      <point x="501" y="671" type="line"/>
      <point x="88" y="671" type="line"/>
      <point x="88" y="608" type="line"/>
    </contour>
    <contour>
      <point x="501" y="737" type="line"/>
      <point x="501" y="800" type="line"/>
      <point x="88" y="800" type="line"/>
      <point x="88" y="737" type="line"/>
    </contour>
  </outline>
</glyph>
<glyph name="uni1001A" format="2">
  <advance width="713"/>
  <unicode hex="1001A"/>
  <outline>
    <contour>
      <point x="631" y="609" type="curve" smooth="yes"/>
      <point x="631" y="675"/>
      <point x="589" y="690"/>
      <point x="589" y="723" type="curve" smooth="yes"/>
      <point x="589" y="741"/>
      <point x="597" y="751"/>
      <point x="647" y="751" type="curve"/>
      <point x="639" y="809" type="line"/>
      <point x="559" y="803"/>
      <point x="519" y="780"/>
      <point x="519" y="725" type="curve" smooth="yes"/>
      <point x="519" y="667"/>
      <point x="562" y="649"/>
      <point x="562" y="612" type="curve" smooth="yes"/>
      <point x="562" y="581"/>
      <point x="541" y="556"/>
      <point x="487" y="556" type="curve" smooth="yes"/>
      <point x="438" y="556"/>
      <point x="410" y="569"/>
      <point x="386" y="585" type="curve"/>
      <point x="388" y="610"/>
      <point x="390" y="630"/>
      <point x="390" y="653" type="curve" smooth="yes"/>
      <point x="390" y="737" type="line"/>
      <point x="441" y="737" type="line"/>
      <point x="441" y="800" type="line"/>
      <point x="267" y="800" type="line"/>
      <point x="267" y="737" type="line"/>
      <point x="320" y="737" type="line"/>
      <point x="320" y="653" type="line" smooth="yes"/>
      <point x="320" y="630"/>
      <point x="322" y="609"/>
      <point x="324" y="585" type="curve"/>
      <point x="299" y="569"/>
      <point x="269" y="556"/>
      <point x="221" y="556" type="curve" smooth="yes"/>
      <point x="167" y="556"/>
      <point x="146" y="581"/>
      <point x="146" y="612" type="curve" smooth="yes"/>
      <point x="146" y="649"/>
      <point x="191" y="667"/>
      <point x="191" y="725" type="curve" smooth="yes"/>
      <point x="191" y="780"/>
      <point x="154" y="803"/>
      <point x="74" y="809" type="curve"/>
      <point x="66" y="751" type="line"/>
      <point x="116" y="751"/>
      <point x="124" y="741"/>
      <point x="124" y="723" type="curve" smooth="yes"/>
      <point x="124" y="690"/>
      <point x="82" y="675"/>
      <point x="82" y="609" type="curve" smooth="yes"/>
      <point x="82" y="544"/>
      <point x="140" y="495"/>
      <point x="220" y="495" type="curve" smooth="yes"/>
      <point x="262" y="495"/>
      <point x="301" y="507"/>
      <point x="322" y="537" type="curve"/>
      <point x="325" y="535" type="line"/>
      <point x="322" y="501"/>
      <point x="320" y="496"/>
      <point x="320" y="433" type="curve" smooth="yes"/>
      <point x="320" y="0" type="line"/>
      <point x="390" y="0" type="line"/>
      <point x="390" y="433" type="line" smooth="yes"/>
      <point x="390" y="497"/>
      <point x="386" y="518"/>
      <point x="385" y="534" type="curve"/>
      <point x="388" y="536" type="line"/>
      <point x="412" y="506"/>
      <point x="445" y="495"/>
      <point x="490" y="495" type="curve" smooth="yes"/>
      <point x="570" y="495"/>
      <point x="631" y="544"/>
    </contour>
  </outline>
</glyph>
<glyph name="uni1001B" format="2">
  <advance width="650"/>
  <unicode hex="1001B"/>
  <outline>
    <contour>
      <point x="326" y="440" type="curve"/>
      <point x="322" y="440" type="line"/>
      <point x="320" y="455"/>
      <point x="304" y="495"/>
      <point x="281" y="539" type="curve" smooth="yes"/>
      <point x="260" y="579" type="line" smooth="yes"/>
      <point x="239" y="619"/>
      <point x="226" y="638"/>
      <point x="222" y="645" type="curve"/>
      <point x="238" y="663"/>
      <point x="254" y="680"/>
      <point x="282" y="721" type="curve" smooth="yes"/>
      <point x="318" y="774" type="line"/>
      <point x="268" y="810" type="line"/>
      <point x="229" y="750" type="line" smooth="yes"/>
      <point x="210" y="721"/>
      <point x="196" y="694"/>
      <point x="196" y="692" type="curve" smooth="yes"/>
      <point x="195" y="695"/>
      <point x="191" y="715"/>
      <point x="174" y="749" type="curve" smooth="yes"/>
      <point x="143" y="811" type="line"/>
      <point x="78" y="780" type="line"/>
      <point x="152" y="645" type="line"/>
      <point x="55" y="516" type="line"/>
      <point x="106" y="478" type="line"/>
      <point x="145" y="532" type="line" smooth="yes"/>
      <point x="167" y="562"/>
      <point x="179" y="594"/>
      <point x="180" y="597" type="curve"/>
      <point x="181" y="594"/>
      <point x="195" y="560"/>
      <point x="223" y="507" type="curve" smooth="yes"/>
      <point x="293" y="375" type="line"/>
      <point x="291" y="359"/>
      <point x="291" y="337"/>
      <point x="291" y="308" type="curve" smooth="yes"/>
      <point x="291" y="0" type="line"/>
      <point x="361" y="0" type="line"/>
      <point x="361" y="311" type="line" smooth="yes"/>
      <point x="361" y="340"/>
      <point x="360" y="361"/>
      <point x="358" y="378" type="curve"/>
      <point x="427" y="507" type="line" smooth="yes"/>
      <point x="459" y="566"/>
      <point x="469" y="596"/>
      <point x="470" y="597" type="curve"/>
      <point x="471" y="593"/>
      <point x="482" y="565"/>
      <point x="506" y="531" type="curve" smooth="yes"/>
      <point x="544" y="478" type="line"/>
      <point x="595" y="516" type="line"/>
      <point x="498" y="645" type="line"/>
      <point x="572" y="780" type="line"/>
      <point x="507" y="811" type="line"/>
      <point x="480" y="751" type="line" smooth="yes"/>
      <point x="465" y="718"/>
      <point x="461" y="705"/>
      <point x="455" y="690" type="curve"/>
      <point x="445" y="709"/>
      <point x="437" y="725"/>
      <point x="421" y="750" type="curve" smooth="yes"/>
      <point x="382" y="810" type="line"/>
      <point x="332" y="774" type="line"/>
      <point x="369" y="719" type="line" smooth="yes"/>
      <point x="400" y="674"/>
      <point x="418" y="655"/>
      <point x="428" y="645" type="curve"/>
      <point x="423" y="636"/>
      <point x="410" y="614"/>
      <point x="391" y="577" type="curve" smooth="yes"/>
      <point x="371" y="539" type="line" smooth="yes"/>
      <point x="346" y="491"/>
      <point x="329" y="455"/>
    </contour>
  </outline>
</glyph>
<glyph name="uni1001C" format="2">
  <advance width="857"/>
  <unicode hex="1001C"/>
  <outline>
    <contour>
      <point x="533" y="267" type="curve" smooth="yes"/>
      <point x="618" y="267" type="line"/>
      <point x="682" y="800" type="line"/>
      <point x="608" y="800" type="line"/>
      <point x="558" y="325" type="line"/>
      <point x="490" y="325" type="line"/>
      <point x="514" y="800" type="line"/>
      <point x="442" y="800" type="line"/>
      <point x="423" y="325" type="line"/>
      <point x="358" y="325" type="line"/>
      <point x="339" y="800" type="line"/>
      <point x="266" y="800" type="line"/>
      <point x="290" y="325" type="line"/>
      <point x="222" y="325" type="line"/>
      <point x="173" y="800" type="line"/>
      <point x="99" y="800" type="line"/>
      <point x="162" y="267" type="line"/>
      <point x="253" y="267" type="line" smooth="yes"/>
      <point x="291" y="267"/>
      <point x="350" y="271"/>
      <point x="361" y="272" type="curve"/>
      <point x="362" y="268" type="line"/>
      <point x="340" y="261"/>
      <point x="324" y="247"/>
      <point x="300" y="207" type="curve" smooth="yes"/>
      <point x="270" y="157"/>
      <point x="227" y="54"/>
      <point x="208" y="0" type="curve"/>
      <point x="279" y="0" type="line"/>
      <point x="301" y="65"/>
      <point x="344" y="185"/>
      <point x="385" y="232" type="curve"/>
      <point x="425" y="189"/>
      <point x="477" y="66"/>
      <point x="501" y="0" type="curve"/>
      <point x="573" y="0" type="line"/>
      <point x="554" y="53"/>
      <point x="510" y="157"/>
      <point x="475" y="215" type="curve" smooth="yes"/>
      <point x="457" y="245"/>
      <point x="439" y="262"/>
      <point x="418" y="268" type="curve"/>
      <point x="419" y="272" type="line"/>
      <point x="428" y="271"/>
      <point x="491" y="267"/>
    </contour>
    <contour>
      <point x="450" y="0" type="line"/>
      <point x="450" y="63" type="line"/>
      <point x="330" y="63" type="line"/>
      <point x="330" y="0" type="line"/>
    </contour>
    <contour>
      <point x="656" y="226" type="curve"/>
      <point x="669" y="171" type="line"/>
      <point x="782" y="175"/>
      <point x="810" y="205"/>
      <point x="810" y="247" type="curve" smooth="yes"/>
      <point x="810" y="313"/>
      <point x="728" y="347"/>
      <point x="728" y="371" type="curve" smooth="yes"/>
      <point x="728" y="391"/>
      <point x="754" y="401"/>
      <point x="813" y="407" type="curve"/>
      <point x="797" y="462" type="line"/>
      <point x="697" y="447"/>
      <point x="662" y="427"/>
      <point x="662" y="376" type="curve" smooth="yes"/>
      <point x="662" y="310"/>
      <point x="743" y="289"/>
      <point x="743" y="258" type="curve" smooth="yes"/>
      <point x="743" y="238"/>
      <point x="713" y="231"/>
    </contour>
  </outline>
</glyph>
<glyph name="uni1001D" format="2">
  <advance width="669"/>
  <unicode hex="1001D"/>
  <outline>
    <contour>
      <point x="558" y="800" type="line"/>
      <point x="488" y="800" type="line"/>
      <point x="488" y="0" type="line"/>
      <point x="558" y="0" type="line"/>
    </contour>
    <contour>
      <point x="178" y="0" type="line"/>
      <point x="178" y="800" type="line"/>
      <point x="111" y="800" type="line"/>
      <point x="111" y="0" type="line"/>
    </contour>
    <contour>
      <point x="211" y="480" type="curve"/>
      <point x="282" y="480" type="line"/>
      <point x="282" y="513"/>
      <point x="296" y="547"/>
      <point x="339" y="547" type="curve" smooth="yes"/>
      <point x="381" y="547"/>
      <point x="389" y="507"/>
      <point x="389" y="480" type="curve"/>
      <point x="457" y="480" type="line"/>
      <point x="455" y="545"/>
      <point x="415" y="609"/>
      <point x="339" y="609" type="curve" smooth="yes"/>
      <point x="263" y="609"/>
      <point x="211" y="538"/>
    </contour>
    <contour>
      <point x="282" y="392" type="curve"/>
      <point x="211" y="392" type="line"/>
      <point x="211" y="334"/>
      <point x="263" y="263"/>
      <point x="339" y="263" type="curve" smooth="yes"/>
      <point x="415" y="263"/>
      <point x="455" y="327"/>
      <point x="457" y="392" type="curve"/>
      <point x="389" y="392" type="line"/>
      <point x="389" y="365"/>
      <point x="381" y="325"/>
      <point x="339" y="325" type="curve" smooth="yes"/>
      <point x="296" y="325"/>
      <point x="282" y="359"/>
    </contour>
  </outline>
</glyph>
<glyph name="uni1001E" format="2">
  <advance width="507"/>
  <unicode hex="1001E"/>
  <outline>
    <contour>
      <point x="441" y="305" type="line"/>
      <point x="441" y="368" type="line"/>
      <point x="288" y="368" type="line"/>
      <point x="288" y="505" type="line"/>
      <point x="441" y="505" type="line"/>
      <point x="441" y="568" type="line"/>
      <point x="288" y="568" type="line"/>
      <point x="288" y="800" type="line"/>
      <point x="218" y="800" type="line"/>
      <point x="218" y="568" type="line"/>
      <point x="66" y="568" type="line"/>
      <point x="66" y="505" type="line"/>
      <point x="218" y="505" type="line"/>
      <point x="218" y="368" type="line"/>
      <point x="66" y="368" type="line"/>
      <point x="66" y="305" type="line"/>
      <point x="218" y="305" type="line"/>
      <point x="218" y="0" type="line"/>
      <point x="288" y="0" type="line"/>
      <point x="288" y="305" type="line"/>
    </contour>
  </outline>
</glyph>
<glyph name="uni1001F" format="2">
  <advance width="513"/>
  <unicode hex="1001F"/>
  <outline>
    <contour>
      <point x="373" y="191" type="line"/>
      <point x="274" y="127" type="line"/>
      <point x="220" y="92"/>
      <point x="186" y="64"/>
      <point x="175" y="54" type="curve"/>
      <point x="172" y="57" type="line"/>
      <point x="177" y="75"/>
      <point x="181" y="122"/>
      <point x="181" y="194" type="curve" smooth="yes"/>
      <point x="181" y="230" type="line"/>
      <point x="260" y="237"/>
      <point x="354" y="294"/>
      <point x="354" y="396" type="curve" smooth="yes"/>
      <point x="354" y="498"/>
      <point x="274" y="549"/>
      <point x="181" y="553" type="curve"/>
      <point x="181" y="605" type="line" smooth="yes"/>
      <point x="181" y="677"/>
      <point x="177" y="724"/>
      <point x="172" y="742" type="curve"/>
      <point x="175" y="745" type="line"/>
      <point x="186" y="735"/>
      <point x="220" y="707"/>
      <point x="274" y="672" type="curve" smooth="yes"/>
      <point x="373" y="608" type="line"/>
      <point x="414" y="667" type="line"/>
      <point x="181" y="810" type="line"/>
      <point x="111" y="774" type="line"/>
      <point x="111" y="25" type="line"/>
      <point x="181" y="-11" type="line"/>
      <point x="414" y="132" type="line"/>
    </contour>
    <contour>
      <point x="284" y="396" type="curve" smooth="yes"/>
      <point x="284" y="339"/>
      <point x="241" y="301"/>
      <point x="181" y="296" type="curve"/>
      <point x="181" y="487" type="line"/>
      <point x="239" y="483"/>
      <point x="284" y="451"/>
    </contour>
  </outline>
</glyph>
<glyph name="uni10020" format="2">
  <advance width="710"/>
  <unicode hex="10020"/>
  <outline>
    <contour>
      <point x="465" y="0" type="line"/>
      <point x="465" y="63" type="line"/>
      <point x="386" y="63" type="line"/>
      <point x="386" y="545" type="line"/>
      <point x="476" y="545" type="line"/>
      <point x="526" y="389"/>
      <point x="563" y="170"/>
      <point x="573" y="0" type="curve"/>
      <point x="644" y="0" type="line"/>
      <point x="635" y="161"/>
      <point x="598" y="377"/>
      <point x="544" y="545" type="curve"/>
      <point x="583" y="545" type="line"/>
      <point x="583" y="608" type="line"/>
      <point x="526" y="608" type="line"/>
      <point x="480" y="727"/>
      <point x="422" y="810"/>
      <point x="354" y="810" type="curve" smooth="yes"/>
      <point x="290" y="810"/>
      <point x="233" y="727"/>
      <point x="186" y="608" type="curve"/>
      <point x="130" y="608" type="line"/>
      <point x="130" y="545" type="line"/>
      <point x="169" y="545" type="line"/>
      <point x="116" y="375"/>
      <point x="75" y="169"/>
      <point x="66" y="0" type="curve"/>
      <point x="136" y="0" type="line"/>
      <point x="145" y="172"/>
      <point x="182" y="390"/>
      <point x="231" y="545" type="curve"/>
      <point x="316" y="545" type="line"/>
      <point x="316" y="63" type="line"/>
      <point x="240" y="63" type="line"/>
      <point x="240" y="0" type="line"/>
    </contour>
    <contour>
      <point x="354" y="740" type="curve" smooth="yes"/>
      <point x="389" y="740"/>
      <point x="428" y="688"/>
      <point x="459" y="608" type="curve"/>
      <point x="249" y="608" type="line"/>
      <point x="280" y="688"/>
      <point x="319" y="740"/>
    </contour>
  </outline>
</glyph>
<glyph name="uni10021" format="2">
  <advance width="600"/>
  <unicode hex="10021"/>
  <outline>
    <contour>
      <point x="442" y="0" type="line"/>
      <point x="442" y="545" type="line"/>
      <point x="136" y="545" type="line"/>
      <point x="136" y="637" type="line"/>
      <point x="512" y="637" type="line"/>
      <point x="512" y="700" type="line"/>
      <point x="136" y="700" type="line"/>
      <point x="136" y="800" type="line"/>
      <point x="66" y="800" type="line"/>
      <point x="66" y="408" type="line"/>
      <point x="136" y="408" type="line"/>
      <point x="136" y="482" type="line"/>
      <point x="372" y="482" type="line"/>
      <point x="372" y="0" type="line"/>
    </contour>
  </outline>
</glyph>
<glyph name="uni10022" format="2">
  <advance width="747"/>
  <unicode hex="10022"/>
  <outline>
    <contour>
      <point x="681" y="0" type="line"/>
      <point x="681" y="63" type="line"/>
      <point x="627" y="63" type="line"/>
      <point x="572" y="191"/>
      <point x="522" y="380"/>
      <point x="496" y="521" type="curve"/>
      <point x="571" y="554"/>
      <point x="630" y="594"/>
      <point x="630" y="677" type="curve" smooth="yes"/>
      <point x="630" y="737"/>
      <point x="605" y="805"/>
      <point x="483" y="805" type="curve" smooth="yes"/>
      <point x="449" y="805"/>
      <point x="406" y="797"/>
      <point x="366" y="781" type="curve"/>
      <point x="383" y="721" type="line"/>
      <point x="412" y="732"/>
      <point x="443" y="740"/>
      <point x="483" y="740" type="curve" smooth="yes"/>
      <point x="547" y="740"/>
      <point x="560" y="702"/>
      <point x="560" y="677" type="curve" smooth="yes"/>
      <point x="560" y="618"/>
      <point x="521" y="598"/>
      <point x="417" y="556" type="curve" smooth="yes"/>
      <point x="260" y="493"/>
      <point x="85" y="409"/>
      <point x="67" y="63" type="curve"/>
      <point x="22" y="63" type="line"/>
      <point x="22" y="0" type="line"/>
      <point x="176" y="0" type="line"/>
      <point x="176" y="63" type="line"/>
      <point x="136" y="63" type="line"/>
      <point x="146" y="233"/>
      <point x="193" y="330"/>
      <point x="256" y="392" type="curve" smooth="yes"/>
      <point x="264" y="400"/>
      <point x="279" y="413"/>
      <point x="288" y="420" type="curve"/>
      <point x="290" y="417" type="line"/>
      <point x="286" y="398"/>
      <point x="285" y="377"/>
      <point x="285" y="362" type="curve" smooth="yes"/>
      <point x="285" y="308"/>
      <point x="306" y="153"/>
      <point x="326" y="63" type="curve"/>
      <point x="297" y="63" type="line"/>
      <point x="297" y="0" type="line"/>
      <point x="451" y="0" type="line"/>
      <point x="451" y="63" type="line"/>
      <point x="399" y="63" type="line"/>
      <point x="366" y="183"/>
      <point x="347" y="310"/>
      <point x="338" y="451" type="curve"/>
      <point x="360" y="463"/>
      <point x="422" y="487"/>
      <point x="442" y="499" type="curve"/>
      <point x="445" y="496" type="line"/>
      <point x="445" y="460"/>
      <point x="446" y="436"/>
      <point x="451" y="410" type="curve" smooth="yes"/>
      <point x="472" y="302"/>
      <point x="512" y="162"/>
      <point x="551" y="63" type="curve"/>
      <point x="527" y="63" type="line"/>
      <point x="527" y="0" type="line"/>
    </contour>
  </outline>
</glyph>
<glyph name="uni10023" format="2">
  <advance width="595"/>
  <unicode hex="10023"/>
  <outline>
    <contour>
      <point x="44" y="659" type="curve" smooth="yes"/>
      <point x="44" y="595"/>
      <point x="95" y="555"/>
      <point x="199" y="555" type="curve"/>
      <point x="212" y="535"/>
      <point x="243" y="517"/>
      <point x="266" y="511" type="curve"/>
      <point x="263" y="486"/>
      <point x="262" y="463"/>
      <point x="262" y="445" type="curve" smooth="yes"/>
      <point x="262" y="0" type="line"/>
      <point x="332" y="0" type="line"/>
      <point x="332" y="446" type="line" smooth="yes"/>
      <point x="332" y="466"/>
      <point x="331" y="487"/>
      <point x="327" y="511" type="curve"/>
      <point x="351" y="517"/>
      <point x="382" y="535"/>
      <point x="395" y="555" type="curve"/>
      <point x="497" y="555"/>
      <point x="551" y="595"/>
      <point x="551" y="659" type="curve" smooth="yes"/>
      <point x="551" y="724"/>
      <point x="499" y="764"/>
      <point x="393" y="765" type="curve"/>
      <point x="375" y="791"/>
      <point x="330" y="810"/>
      <point x="297" y="810" type="curve" smooth="yes"/>
      <point x="264" y="810"/>
      <point x="221" y="791"/>
      <point x="202" y="765" type="curve"/>
      <point x="95" y="764"/>
      <point x="44" y="724"/>
    </contour>
    <contour>
      <point x="227" y="659" type="curve" smooth="yes"/>
      <point x="227" y="713"/>
      <point x="255" y="755"/>
      <point x="297" y="755" type="curve" smooth="yes"/>
      <point x="340" y="755"/>
      <point x="367" y="713"/>
      <point x="367" y="659" type="curve" smooth="yes"/>
      <point x="367" y="605"/>
      <point x="340" y="563"/>
      <point x="297" y="563" type="curve" smooth="yes"/>
      <point x="255" y="563"/>
      <point x="227" y="605"/>
    </contour>
    <contour>
      <point x="170" y="659" type="curve" smooth="yes"/>
      <point x="170" y="633"/>
      <point x="174" y="614"/>
      <point x="181" y="595" type="curve"/>
      <point x="138" y="595"/>
      <point x="102" y="615"/>
      <point x="102" y="660" type="curve" smooth="yes"/>
      <point x="102" y="707"/>
      <point x="139" y="723"/>
      <point x="182" y="723" type="curve"/>
      <point x="174" y="708"/>
      <point x="170" y="687"/>
    </contour>
    <contour>
      <point x="493" y="660" type="curve" smooth="yes"/>
      <point x="493" y="615"/>
      <point x="458" y="595"/>
      <point x="414" y="595" type="curve"/>
      <point x="421" y="613"/>
      <point x="426" y="632"/>
      <point x="426" y="659" type="curve" smooth="yes"/>
      <point x="426" y="686"/>
      <point x="422" y="705"/>
      <point x="413" y="723" type="curve"/>
      <point x="459" y="723"/>
      <point x="493" y="706"/>
    </contour>
  </outline>
</glyph>
<glyph name="uni10024" format="2">
  <advance width="825"/>
  <unicode hex="10024"/>
  <outline>
    <contour>
      <point x="352" y="467" type="line"/>
      <point x="352" y="530" type="line"/>
      <point x="234" y="530" type="line"/>
      <point x="234" y="467" type="line"/>
    </contour>
    <contour>
      <point x="66" y="397" type="curve"/>
      <point x="66" y="206"/>
      <point x="221" y="51"/>
      <point x="413" y="51" type="curve" smooth="yes"/>
      <point x="604" y="51"/>
      <point x="759" y="206"/>
      <point x="759" y="397" type="curve" smooth="yes"/>
      <point x="759" y="588"/>
      <point x="604" y="743"/>
      <point x="413" y="743" type="curve" smooth="yes"/>
      <point x="221" y="743"/>
      <point x="66" y="588"/>
    </contour>
    <contour>
      <point x="136" y="397" type="curve"/>
      <point x="136" y="549"/>
      <point x="260" y="678"/>
      <point x="413" y="678" type="curve" smooth="yes"/>
      <point x="565" y="678"/>
      <point x="689" y="549"/>
      <point x="689" y="397" type="curve" smooth="yes"/>
      <point x="689" y="245"/>
      <point x="565" y="116"/>
      <point x="413" y="116" type="curve" smooth="yes"/>
      <point x="260" y="116"/>
      <point x="136" y="245"/>
    </contour>
    <contour>
      <point x="592" y="467" type="line"/>
      <point x="592" y="530" type="line"/>
      <point x="474" y="530" type="line"/>
      <point x="474" y="467" type="line"/>
    </contour>
    <contour>
      <point x="352" y="267" type="line"/>
      <point x="352" y="330" type="line"/>
      <point x="234" y="330" type="line"/>
      <point x="234" y="267" type="line"/>
    </contour>
    <contour>
      <point x="592" y="267" type="line"/>
      <point x="592" y="330" type="line"/>
      <point x="474" y="330" type="line"/>
      <point x="474" y="267" type="line"/>
    </contour>
  </outline>
</glyph>
<glyph name="uni10026" format="2">
  <advance width="567"/>
  <unicode hex="10026"/>
  <outline>
    <contour>
      <point x="401" y="437" type="line"/>
      <point x="401" y="500" type="line"/>
      <point x="166" y="500" type="line"/>
      <point x="166" y="437" type="line"/>
      <point x="248" y="437" type="line"/>
      <point x="248" y="0" type="line"/>
      <point x="318" y="0" type="line"/>
      <point x="318" y="437" type="line"/>
    </contour>
    <contour>
      <point x="240" y="545" type="line"/>
      <point x="240" y="608" type="line"/>
      <point x="185" y="608" type="line"/>
      <point x="185" y="800" type="line"/>
      <point x="118" y="800" type="line"/>
      <point x="118" y="608" type="line"/>
      <point x="66" y="608" type="line"/>
      <point x="66" y="545" type="line"/>
    </contour>
    <contour>
      <point x="501" y="545" type="line"/>
      <point x="501" y="608" type="line"/>
      <point x="444" y="608" type="line"/>
      <point x="444" y="800" type="line"/>
      <point x="377" y="800" type="line"/>
      <point x="377" y="608" type="line"/>
      <point x="327" y="608" type="line"/>
      <point x="327" y="545" type="line"/>
    </contour>
  </outline>
</glyph>
<glyph name="uni10028" format="2">
  <advance width="628"/>
  <unicode hex="10028"/>
  <outline>
    <contour>
      <point x="595" y="0" type="line"/>
      <point x="595" y="63" type="line"/>
      <point x="178" y="63" type="line"/>
      <point x="178" y="800" type="line"/>
      <point x="111" y="800" type="line"/>
      <point x="111" y="0" type="line"/>
    </contour>
    <contour>
      <point x="258" y="277" type="curve"/>
      <point x="297" y="231" type="line"/>
      <point x="337" y="271"/>
      <point x="358" y="284"/>
      <point x="381" y="284" type="curve" smooth="yes"/>
      <point x="400" y="284"/>
      <point x="414" y="268"/>
      <point x="414" y="251" type="curve" smooth="yes"/>
      <point x="414" y="229"/>
      <point x="396" y="206"/>
      <point x="359" y="169" type="curve"/>
      <point x="403" y="129" type="line"/>
      <point x="442" y="168"/>
      <point x="474" y="212"/>
      <point x="474" y="264" type="curve" smooth="yes"/>
      <point x="474" y="312"/>
      <point x="439" y="343"/>
      <point x="394" y="343" type="curve" smooth="yes"/>
      <point x="348" y="343"/>
      <point x="300" y="319"/>
    </contour>
  </outline>
</glyph>
<glyph name="uni10029" format="2">
  <advance width="584"/>
  <unicode hex="10029"/>
  <outline>
    <contour>
      <point x="326" y="608" type="curve" smooth="yes"/>
      <point x="326" y="800" type="line"/>
      <point x="256" y="800" type="line"/>
      <point x="256" y="608" type="line" smooth="yes"/>
      <point x="256" y="564"/>
      <point x="258" y="532"/>
      <point x="261" y="510" type="curve"/>
      <point x="146" y="530"/>
      <point x="114" y="667"/>
      <point x="114" y="800" type="curve"/>
      <point x="44" y="800" type="line"/>
      <point x="44" y="631"/>
      <point x="95" y="465"/>
      <point x="260" y="447" type="curve"/>
      <point x="258" y="433"/>
      <point x="256" y="415"/>
      <point x="256" y="393" type="curve" smooth="yes"/>
      <point x="256" y="0" type="line"/>
      <point x="326" y="0" type="line"/>
      <point x="326" y="396" type="line" smooth="yes"/>
      <point x="326" y="417"/>
      <point x="324" y="433"/>
      <point x="322" y="447" type="curve"/>
      <point x="479" y="466"/>
      <point x="540" y="632"/>
      <point x="540" y="800" type="curve"/>
      <point x="470" y="800" type="line"/>
      <point x="470" y="668"/>
      <point x="432" y="532"/>
      <point x="321" y="511" type="curve"/>
      <point x="324" y="533"/>
      <point x="326" y="564"/>
    </contour>
  </outline>
</glyph>
<glyph name="uni1002A" format="2">
  <advance width="607"/>
  <unicode hex="1002A"/>
  <outline>
    <contour>
      <point x="149" y="0" type="curve"/>
      <point x="216" y="0" type="line"/>
      <point x="254" y="265"/>
      <point x="284" y="382"/>
      <point x="302" y="382" type="curve" smooth="yes"/>
      <point x="317" y="382"/>
      <point x="343" y="266"/>
      <point x="388" y="0" type="curve"/>
      <point x="457" y="0" type="line"/>
      <point x="408" y="285"/>
      <point x="376" y="404"/>
      <point x="335" y="440" type="curve"/>
      <point x="338" y="445" type="line"/>
      <point x="354" y="442"/>
      <point x="402" y="437"/>
      <point x="449" y="437" type="curve" smooth="yes"/>
      <point x="530" y="437" type="line"/>
      <point x="530" y="500" type="line"/>
      <point x="446" y="500" type="line" smooth="yes"/>
      <point x="396" y="500"/>
      <point x="352" y="488"/>
      <point x="340" y="484" type="curve"/>
      <point x="338" y="489" type="line"/>
      <point x="374" y="512"/>
      <point x="419" y="569"/>
      <point x="419" y="662" type="curve" smooth="yes"/>
      <point x="419" y="735"/>
      <point x="390" y="807"/>
      <point x="280" y="807" type="curve" smooth="yes"/>
      <point x="259" y="807"/>
      <point x="235" y="804"/>
      <point x="207" y="798" type="curve"/>
      <point x="218" y="743" type="line"/>
      <point x="232" y="746"/>
      <point x="254" y="750"/>
      <point x="279" y="750" type="curve" smooth="yes"/>
      <point x="349" y="750"/>
      <point x="360" y="691"/>
      <point x="360" y="652" type="curve" smooth="yes"/>
      <point x="360" y="560"/>
      <point x="329" y="518"/>
      <point x="305" y="518" type="curve" smooth="yes"/>
      <point x="281" y="518"/>
      <point x="252" y="548"/>
      <point x="252" y="604" type="curve" smooth="yes"/>
      <point x="252" y="630"/>
      <point x="265" y="662"/>
      <point x="305" y="662" type="curve" smooth="yes"/>
      <point x="314" y="662"/>
      <point x="323" y="661"/>
      <point x="332" y="659" type="curve"/>
      <point x="340" y="710" type="line"/>
      <point x="331" y="713"/>
      <point x="315" y="715"/>
      <point x="305" y="715" type="curve" smooth="yes"/>
      <point x="237" y="715"/>
      <point x="193" y="673"/>
      <point x="193" y="604" type="curve" smooth="yes"/>
      <point x="193" y="551"/>
      <point x="237" y="504"/>
      <point x="273" y="492" type="curve"/>
      <point x="271" y="487" type="line"/>
      <point x="256" y="490"/>
      <point x="221" y="500"/>
      <point x="173" y="500" type="curve" smooth="yes"/>
      <point x="77" y="500" type="line"/>
      <point x="77" y="437" type="line"/>
      <point x="171" y="437" type="line" smooth="yes"/>
      <point x="208" y="437"/>
      <point x="251" y="442"/>
      <point x="268" y="445" type="curve"/>
      <point x="270" y="440" type="line"/>
      <point x="229" y="407"/>
      <point x="190" y="285"/>
    </contour>
  </outline>
</glyph>
<glyph name="uni1002B" format="2">
  <advance width="507"/>
  <unicode hex="1002B"/>
  <outline>
    <contour>
      <point x="441" y="405" type="line"/>
      <point x="441" y="468" type="line"/>
      <point x="288" y="468" type="line"/>
      <point x="288" y="800" type="line"/>
      <point x="218" y="800" type="line"/>
      <point x="218" y="468" type="line"/>
      <point x="66" y="468" type="line"/>
      <point x="66" y="405" type="line"/>
      <point x="218" y="405" type="line"/>
      <point x="218" y="0" type="line"/>
      <point x="288" y="0" type="line"/>
      <point x="288" y="405" type="line"/>
    </contour>
  </outline>
</glyph>
<glyph name="uni1002C" format="2">
  <advance width="716"/>
  <unicode hex="1002C"/>
  <outline>
    <contour>
      <point x="388" y="549" type="curve"/>
      <point x="392" y="552" type="line"/>
      <point x="416" y="514"/>
      <point x="463" y="492"/>
      <point x="512" y="492" type="curve" smooth="yes"/>
      <point x="598" y="492"/>
      <point x="661" y="552"/>
      <point x="661" y="658" type="curve" smooth="yes"/>
      <point x="661" y="704"/>
      <point x="647" y="751"/>
      <point x="596" y="810" type="curve"/>
      <point x="544" y="771" type="line"/>
      <point x="585" y="716"/>
      <point x="591" y="688"/>
      <point x="591" y="658" type="curve" smooth="yes"/>
      <point x="591" y="600"/>
      <point x="561" y="558"/>
      <point x="492" y="558" type="curve" smooth="yes"/>
      <point x="456" y="558"/>
      <point x="402" y="592"/>
      <point x="363" y="656" type="curve"/>
      <point x="353" y="656" type="line"/>
      <point x="314" y="591"/>
      <point x="260" y="558"/>
      <point x="225" y="558" type="curve" smooth="yes"/>
      <point x="156" y="558"/>
      <point x="125" y="600"/>
      <point x="125" y="658" type="curve" smooth="yes"/>
      <point x="125" y="688"/>
      <point x="131" y="716"/>
      <point x="172" y="771" type="curve"/>
      <point x="120" y="810" type="line"/>
      <point x="68" y="739"/>
      <point x="55" y="704"/>
      <point x="55" y="658" type="curve" smooth="yes"/>
      <point x="55" y="552"/>
      <point x="118" y="492"/>
      <point x="204" y="492" type="curve" smooth="yes"/>
      <point x="251" y="492"/>
      <point x="293" y="517"/>
      <point x="322" y="553" type="curve"/>
      <point x="326" y="550" type="line"/>
      <point x="324" y="537"/>
      <point x="322" y="500"/>
      <point x="322" y="470" type="curve" smooth="yes"/>
      <point x="322" y="0" type="line"/>
      <point x="392" y="0" type="line"/>
      <point x="392" y="470" type="line" smooth="yes"/>
      <point x="392" y="498"/>
      <point x="390" y="538"/>
    </contour>
  </outline>
</glyph>
<glyph name="uni1002D" format="2">
  <advance width="684"/>
  <unicode hex="1002D"/>
  <outline>
    <contour>
      <point x="138" y="811" type="curve"/>
      <point x="82" y="769" type="line"/>
      <point x="107" y="741"/>
      <point x="134" y="706"/>
      <point x="161" y="668" type="curve"/>
      <point x="97" y="403" type="line"/>
      <point x="158" y="388" type="line"/>
      <point x="187" y="513" type="line" smooth="yes"/>
      <point x="196" y="553"/>
      <point x="197" y="578"/>
      <point x="197" y="592" type="curve" smooth="yes"/>
      <point x="197" y="603"/>
      <point x="196" y="616"/>
      <point x="195" y="621" type="curve"/>
      <point x="200" y="623" type="line"/>
      <point x="202" y="609"/>
      <point x="216" y="583"/>
      <point x="237" y="544" type="curve" smooth="yes"/>
      <point x="280" y="464"/>
      <point x="309" y="378"/>
      <point x="309" y="306" type="curve" smooth="yes"/>
      <point x="309" y="0" type="line"/>
      <point x="379" y="0" type="line"/>
      <point x="379" y="305" type="line" smooth="yes"/>
      <point x="379" y="377"/>
      <point x="408" y="464"/>
      <point x="451" y="544" type="curve" smooth="yes"/>
      <point x="472" y="583"/>
      <point x="486" y="609"/>
      <point x="488" y="623" type="curve"/>
      <point x="493" y="621" type="line"/>
      <point x="492" y="616"/>
      <point x="491" y="603"/>
      <point x="491" y="592" type="curve" smooth="yes"/>
      <point x="491" y="578"/>
      <point x="492" y="553"/>
      <point x="501" y="513" type="curve" smooth="yes"/>
      <point x="530" y="388" type="line"/>
      <point x="591" y="403" type="line"/>
      <point x="527" y="668" type="line"/>
      <point x="554" y="706"/>
      <point x="581" y="740"/>
      <point x="606" y="768" type="curve"/>
      <point x="549" y="811" type="line"/>
      <point x="525" y="781"/>
      <point x="395" y="621"/>
      <point x="346" y="450" type="curve"/>
      <point x="307" y="613"/>
      <point x="165" y="779"/>
    </contour>
  </outline>
</glyph>
<glyph name="uni1002E" format="2">
  <advance width="642"/>
  <unicode hex="1002E"/>
  <outline>
    <contour>
      <point x="576" y="482" type="line"/>
      <point x="576" y="545" type="line"/>
      <point x="181" y="545" type="line"/>
      <point x="181" y="800" type="line"/>
      <point x="111" y="800" type="line"/>
      <point x="111" y="0" type="line"/>
      <point x="181" y="0" type="line"/>
      <point x="181" y="482" type="line"/>
    </contour>
    <contour>
      <point x="446" y="608" type="line"/>
      <point x="446" y="800" type="line"/>
      <point x="376" y="800" type="line"/>
      <point x="376" y="608" type="line"/>
    </contour>
    <contour>
      <point x="576" y="608" type="line"/>
      <point x="576" y="800" type="line"/>
      <point x="506" y="800" type="line"/>
      <point x="506" y="608" type="line"/>
    </contour>
    <contour>
      <point x="316" y="608" type="line"/>
      <point x="316" y="800" type="line"/>
      <point x="246" y="800" type="line"/>
      <point x="246" y="608" type="line"/>
    </contour>
  </outline>
</glyph>
<glyph name="uni1002F" format="2">
  <advance width="705"/>
  <unicode hex="1002F"/>
  <outline>
    <contour>
      <point x="465" y="145" type="line"/>
      <point x="465" y="208" type="line"/>
      <point x="392" y="208" type="line"/>
      <point x="392" y="405" type="line"/>
      <point x="496" y="405" type="line"/>
      <point x="524" y="223"/>
      <point x="558" y="46"/>
      <point x="569" y="-10" type="curve"/>
      <point x="639" y="0" type="line"/>
      <point x="609" y="142"/>
      <point x="551" y="425"/>
      <point x="530" y="618" type="curve"/>
      <point x="467" y="607" type="line"/>
      <point x="472" y="562"/>
      <point x="479" y="515"/>
      <point x="486" y="468" type="curve"/>
      <point x="392" y="468" type="line"/>
      <point x="392" y="800" type="line"/>
      <point x="322" y="800" type="line"/>
      <point x="322" y="468" type="line"/>
      <point x="219" y="468" type="line"/>
      <point x="238" y="608" type="line"/>
      <point x="175" y="616" type="line"/>
      <point x="154" y="419"/>
      <point x="97" y="142"/>
      <point x="66" y="0" type="curve"/>
      <point x="134" y="-10" type="line"/>
      <point x="145" y="46"/>
      <point x="180" y="222"/>
      <point x="209" y="405" type="curve"/>
      <point x="322" y="405" type="line"/>
      <point x="322" y="208" type="line"/>
      <point x="250" y="208" type="line"/>
      <point x="250" y="145" type="line"/>
      <point x="322" y="145" type="line"/>
      <point x="322" y="0" type="line"/>
      <point x="392" y="0" type="line"/>
      <point x="392" y="145" type="line"/>
    </contour>
  </outline>
</glyph>
<glyph name="uni10030" format="2">
  <advance width="574"/>
  <unicode hex="10030"/>
  <outline>
    <contour>
      <point x="136" y="725" type="line"/>
      <point x="136" y="800" type="line"/>
      <point x="66" y="800" type="line"/>
      <point x="66" y="410" type="line"/>
      <point x="136" y="410" type="line"/>
      <point x="136" y="482" type="line"/>
      <point x="253" y="482" type="line"/>
      <point x="253" y="545" type="line"/>
      <point x="136" y="545" type="line"/>
      <point x="136" y="662" type="line"/>
      <point x="253" y="662" type="line"/>
      <point x="253" y="725" type="line"/>
    </contour>
    <contour>
      <point x="335" y="810" type="curve"/>
      <point x="266" y="787" type="line"/>
      <point x="304" y="676"/>
      <point x="426" y="666"/>
      <point x="426" y="602" type="curve" smooth="yes"/>
      <point x="426" y="534"/>
      <point x="275" y="527"/>
      <point x="275" y="390" type="curve" smooth="yes"/>
      <point x="275" y="0" type="line"/>
      <point x="345" y="0" type="line"/>
      <point x="345" y="390" type="line" smooth="yes"/>
      <point x="345" y="495"/>
      <point x="497" y="491"/>
      <point x="497" y="601" type="curve" smooth="yes"/>
      <point x="497" y="716"/>
      <point x="361" y="736"/>
    </contour>
  </outline>
</glyph>
<glyph name="uni10031" format="2">
  <advance width="605"/>
  <unicode hex="10031"/>
  <outline>
    <contour>
      <point x="111" y="800" type="line"/>
      <point x="111" y="0" type="line"/>
      <point x="517" y="0" type="line"/>
      <point x="517" y="63" type="line"/>
      <point x="181" y="63" type="line"/>
      <point x="181" y="545" type="line"/>
      <point x="450" y="545" type="line"/>
      <point x="450" y="480" type="line"/>
      <point x="517" y="480" type="line"/>
      <point x="517" y="800" type="line"/>
    </contour>
    <contour>
      <point x="181" y="608" type="line"/>
      <point x="181" y="737" type="line"/>
      <point x="450" y="737" type="line"/>
      <point x="450" y="608" type="line"/>
    </contour>
  </outline>
</glyph>
<glyph name="uni10032" format="2">
  <advance width="620"/>
  <unicode hex="10032"/>
  <outline>
    <contour>
      <point x="506" y="250" type="line"/>
      <point x="439" y="243" type="line"/>
      <point x="447" y="163" type="line"/>
      <point x="180" y="163" type="line"/>
      <point x="185" y="246"/>
      <point x="188" y="330"/>
      <point x="188" y="413" type="curve" smooth="yes"/>
      <point x="188" y="490"/>
      <point x="186" y="565"/>
      <point x="181" y="638" type="curve"/>
      <point x="447" y="638" type="line"/>
      <point x="439" y="555" type="line"/>
      <point x="506" y="548" type="line"/>
      <point x="532" y="802" type="line"/>
      <point x="465" y="809" type="line"/>
      <point x="454" y="701" type="line"/>
      <point x="177" y="701" type="line"/>
      <point x="174" y="738"/>
      <point x="170" y="775"/>
      <point x="166" y="810" type="curve"/>
      <point x="99" y="800" type="line"/>
      <point x="114" y="680"/>
      <point x="121" y="549"/>
      <point x="121" y="413" type="curve" smooth="yes"/>
      <point x="121" y="277"/>
      <point x="114" y="137"/>
      <point x="99" y="0" type="curve"/>
      <point x="166" y="-10" type="line"/>
      <point x="170" y="26"/>
      <point x="173" y="63"/>
      <point x="176" y="100" type="curve"/>
      <point x="453" y="100" type="line"/>
      <point x="465" y="-11" type="line"/>
      <point x="532" y="-4" type="line"/>
    </contour>
  </outline>
</glyph>
<glyph name="uni10033" format="2">
  <advance width="670"/>
  <unicode hex="10033"/>
  <outline>
    <contour>
      <point x="370" y="0" type="line"/>
      <point x="370" y="800" type="line"/>
      <point x="300" y="800" type="line"/>
      <point x="300" y="0" type="line"/>
    </contour>
    <contour>
      <point x="233" y="545" type="line"/>
      <point x="233" y="608" type="line"/>
      <point x="88" y="608" type="line"/>
      <point x="88" y="545" type="line"/>
    </contour>
    <contour>
      <point x="233" y="245" type="line"/>
      <point x="233" y="308" type="line"/>
      <point x="88" y="308" type="line"/>
      <point x="88" y="245" type="line"/>
    </contour>
    <contour>
      <point x="233" y="395" type="line"/>
      <point x="233" y="458" type="line"/>
      <point x="88" y="458" type="line"/>
      <point x="88" y="395" type="line"/>
    </contour>
    <contour>
      <point x="582" y="545" type="line"/>
      <point x="582" y="608" type="line"/>
      <point x="437" y="608" type="line"/>
      <point x="437" y="545" type="line"/>
    </contour>
    <contour>
      <point x="582" y="245" type="line"/>
      <point x="582" y="308" type="line"/>
      <point x="437" y="308" type="line"/>
      <point x="437" y="245" type="line"/>
    </contour>
    <contour>
      <point x="582" y="395" type="line"/>
      <point x="582" y="458" type="line"/>
      <point x="437" y="458" type="line"/>
      <point x="437" y="395" type="line"/>
    </contour>
  </outline>
</glyph>
<glyph name="uni10034" format="2">
  <advance width="710"/>
  <unicode hex="10034"/>
  <outline>
    <contour>
      <point x="386" y="100" type="line"/>
      <point x="386" y="544" type="line"/>
      <point x="316" y="544" type="line"/>
      <point x="316" y="100" type="line"/>
    </contour>
    <contour>
      <point x="66" y="0" type="curve"/>
      <point x="136" y="0" type="line"/>
      <point x="152" y="300"/>
      <point x="254" y="740"/>
      <point x="354" y="740" type="curve" smooth="yes"/>
      <point x="456" y="740"/>
      <point x="556" y="295"/>
      <point x="573" y="0" type="curve"/>
      <point x="644" y="0" type="line"/>
      <point x="628" y="307"/>
      <point x="523" y="810"/>
      <point x="354" y="810" type="curve" smooth="yes"/>
      <point x="199" y="810"/>
      <point x="84" y="326"/>
    </contour>
  </outline>
</glyph>
<glyph name="uni10035" format="2">
  <advance width="507"/>
  <unicode hex="10035"/>
  <outline>
    <contour>
      <point x="441" y="545" type="line"/>
      <point x="441" y="608" type="line"/>
      <point x="288" y="608" type="line"/>
      <point x="288" y="737" type="line"/>
      <point x="441" y="737" type="line"/>
      <point x="441" y="800" type="line"/>
      <point x="66" y="800" type="line"/>
      <point x="66" y="737" type="line"/>
      <point x="218" y="737" type="line"/>
      <point x="218" y="608" type="line"/>
      <point x="66" y="608" type="line"/>
      <point x="66" y="545" type="line"/>
      <point x="218" y="545" type="line"/>
      <point x="218" y="0" type="line"/>
      <point x="288" y="0" type="line"/>
      <point x="288" y="545" type="line"/>
    </contour>
  </outline>
</glyph>
<glyph name="uni10036" format="2">
  <advance width="730"/>
  <unicode hex="10036"/>
  <outline>
    <contour>
      <point x="507" y="540" type="curve" smooth="yes"/>
      <point x="574" y="540"/>
      <point x="594" y="482"/>
      <point x="594" y="406" type="curve" smooth="yes"/>
      <point x="594" y="242"/>
      <point x="430" y="187"/>
      <point x="397" y="105" type="curve"/>
      <point x="393" y="105" type="line"/>
      <point x="395" y="132"/>
      <point x="399" y="190"/>
      <point x="399" y="227" type="curve" smooth="yes"/>
      <point x="399" y="424" type="line" smooth="yes"/>
      <point x="399" y="489"/>
      <point x="430" y="540"/>
    </contour>
    <contour>
      <point x="136" y="406" type="curve" smooth="yes"/>
      <point x="136" y="482"/>
      <point x="156" y="540"/>
      <point x="223" y="540" type="curve" smooth="yes"/>
      <point x="300" y="540"/>
      <point x="329" y="489"/>
      <point x="329" y="424" type="curve" smooth="yes"/>
      <point x="329" y="227" type="line" smooth="yes"/>
      <point x="329" y="190"/>
      <point x="334" y="133"/>
      <point x="336" y="105" type="curve"/>
      <point x="332" y="105" type="line"/>
      <point x="299" y="188"/>
      <point x="136" y="242"/>
    </contour>
    <contour>
      <point x="393" y="533" type="curve"/>
      <point x="389" y="535" type="line"/>
      <point x="394" y="548"/>
      <point x="399" y="575"/>
      <point x="399" y="608" type="curve" smooth="yes"/>
      <point x="399" y="715"/>
      <point x="410" y="742"/>
      <point x="468" y="742" type="curve" smooth="yes"/>
      <point x="485" y="742"/>
      <point x="504" y="740"/>
      <point x="549" y="732" type="curve"/>
      <point x="560" y="794" type="line"/>
      <point x="517" y="803"/>
      <point x="494" y="805"/>
      <point x="468" y="805" type="curve" smooth="yes"/>
      <point x="369" y="805"/>
      <point x="329" y="745"/>
      <point x="329" y="608" type="curve" smooth="yes"/>
      <point x="329" y="571"/>
      <point x="334" y="548"/>
      <point x="339" y="535" type="curve"/>
      <point x="335" y="533" type="line"/>
      <point x="316" y="570"/>
      <point x="281" y="603"/>
      <point x="223" y="603" type="curve" smooth="yes"/>
      <point x="119" y="603"/>
      <point x="66" y="526"/>
      <point x="66" y="408" type="curve" smooth="yes"/>
      <point x="66" y="152"/>
      <point x="341" y="142"/>
      <point x="341" y="0" type="curve"/>
      <point x="390" y="0" type="line"/>
      <point x="390" y="144"/>
      <point x="664" y="159"/>
      <point x="664" y="408" type="curve" smooth="yes"/>
      <point x="664" y="526"/>
      <point x="611" y="603"/>
      <point x="507" y="603" type="curve" smooth="yes"/>
      <point x="451" y="603"/>
      <point x="418" y="573"/>
    </contour>
  </outline>
</glyph>
<glyph name="uni10037" format="2">
  <advance width="669"/>
  <unicode hex="10037"/>
  <outline>
    <contour>
      <point x="111" y="0" type="line"/>
      <point x="181" y="0" type="line"/>
      <point x="181" y="545" type="line"/>
      <point x="310" y="545" type="line"/>
      <point x="310" y="0" type="line"/>
      <point x="380" y="0" type="line"/>
      <point x="380" y="545" type="line"/>
      <point x="516" y="545" type="line"/>
      <point x="516" y="0" type="line"/>
      <point x="583" y="0" type="line"/>
      <point x="583" y="800" type="line"/>
      <point x="111" y="800" type="line"/>
    </contour>
    <contour>
      <point x="181" y="608" type="line"/>
      <point x="181" y="737" type="line"/>
      <point x="516" y="737" type="line"/>
      <point x="516" y="608" type="line"/>
    </contour>
  </outline>
</glyph>
<glyph name="uni10038" format="2">
  <advance width="572"/>
  <unicode hex="10038"/>
  <outline>
    <contour>
      <point x="66" y="190" type="curve" smooth="yes"/>
      <point x="66" y="53"/>
      <point x="145" y="-10"/>
      <point x="273" y="-10" type="curve" smooth="yes"/>
      <point x="381" y="-10"/>
      <point x="459" y="72"/>
      <point x="506" y="200" type="curve"/>
      <point x="444" y="224" type="line"/>
      <point x="398" y="94"/>
      <point x="341" y="53"/>
      <point x="276" y="53" type="curve" smooth="yes"/>
      <point x="191" y="53"/>
      <point x="136" y="94"/>
      <point x="136" y="190" type="curve" smooth="yes"/>
      <point x="136" y="374"/>
      <point x="488" y="397"/>
      <point x="488" y="626" type="curve" smooth="yes"/>
      <point x="488" y="725"/>
      <point x="425" y="810"/>
      <point x="290" y="810" type="curve" smooth="yes"/>
      <point x="168" y="810"/>
      <point x="97" y="710"/>
      <point x="70" y="620" type="curve"/>
      <point x="131" y="601" type="line"/>
      <point x="166" y="701"/>
      <point x="213" y="747"/>
      <point x="292" y="747" type="curve" smooth="yes"/>
      <point x="379" y="747"/>
      <point x="418" y="690"/>
      <point x="418" y="626" type="curve" smooth="yes"/>
      <point x="418" y="433"/>
      <point x="66" y="409"/>
    </contour>
  </outline>
</glyph>
<glyph name="uni10039" format="2">
  <advance width="675"/>
  <unicode hex="10039"/>
  <outline>
    <contour>
      <point x="579" y="756" type="curve"/>
      <point x="540" y="812" type="line"/>
      <point x="208" y="566"/>
      <point x="55" y="346"/>
      <point x="55" y="0" type="curve"/>
      <point x="130" y="0" type="line"/>
      <point x="130" y="251"/>
      <point x="207" y="427"/>
      <point x="383" y="596" type="curve" smooth="yes"/>
      <point x="388" y="601"/>
      <point x="399" y="613"/>
      <point x="413" y="631" type="curve"/>
      <point x="417" y="629" type="line"/>
      <point x="403" y="608"/>
      <point x="401" y="586"/>
      <point x="401" y="542" type="curve" smooth="yes"/>
      <point x="401" y="511"/>
      <point x="409" y="444"/>
      <point x="421" y="385" type="curve" smooth="yes"/>
      <point x="448" y="253"/>
      <point x="486" y="97"/>
      <point x="543" y="-10" type="curve"/>
      <point x="609" y="16" type="line"/>
      <point x="501" y="236"/>
      <point x="464" y="488"/>
      <point x="462" y="666" type="curve"/>
      <point x="498" y="696"/>
      <point x="537" y="725"/>
    </contour>
    <contour>
      <point x="406" y="322" type="line"/>
      <point x="406" y="385" type="line"/>
      <point x="228" y="385" type="line"/>
      <point x="228" y="322" type="line"/>
      <point x="286" y="322" type="line"/>
      <point x="286" y="63" type="line"/>
      <point x="190" y="63" type="line"/>
      <point x="190" y="0" type="line"/>
      <point x="448" y="0" type="line"/>
      <point x="448" y="63" type="line"/>
      <point x="350" y="63" type="line"/>
      <point x="350" y="322" type="line"/>
    </contour>
  </outline>
</glyph>
<glyph name="uni1003A" format="2">
  <advance width="577"/>
  <unicode hex="1003A"/>
  <outline>
    <contour>
      <point x="413" y="656" type="curve"/>
      <point x="413" y="603" type="line"/>
      <point x="450" y="601"/>
      <point x="466" y="577"/>
      <point x="466" y="554" type="curve" smooth="yes"/>
      <point x="466" y="531"/>
      <point x="450" y="509"/>
      <point x="414" y="509" type="curve"/>
      <point x="428" y="446" type="line"/>
      <point x="499" y="446"/>
      <point x="533" y="497"/>
      <point x="533" y="546" type="curve" smooth="yes"/>
      <point x="533" y="584"/>
      <point x="513" y="621"/>
      <point x="474" y="634" type="curve"/>
      <point x="506" y="660"/>
      <point x="521" y="694"/>
      <point x="521" y="725" type="curve" smooth="yes"/>
      <point x="521" y="770"/>
      <point x="489" y="810"/>
      <point x="428" y="810" type="curve"/>
      <point x="414" y="747" type="line"/>
      <point x="440" y="747"/>
      <point x="453" y="730"/>
      <point x="453" y="702" type="curve" smooth="yes"/>
      <point x="453" y="675"/>
      <point x="439" y="656"/>
    </contour>
    <contour>
      <point x="267" y="608" type="line"/>
      <point x="363" y="0" type="line"/>
      <point x="438" y="0" type="line"/>
      <point x="330" y="608" type="line"/>
      <point x="379" y="608" type="line"/>
      <point x="379" y="671" type="line"/>
      <point x="125" y="671" type="line"/>
      <point x="125" y="608" type="line"/>
      <point x="173" y="608" type="line"/>
      <point x="66" y="0" type="line"/>
      <point x="138" y="0" type="line"/>
      <point x="236" y="608" type="line"/>
    </contour>
  </outline>
</glyph>
<glyph name="uni1003C" format="2">
  <advance width="563"/>
  <unicode hex="1003C"/>
  <outline>
    <contour>
      <point x="318" y="490" type="curve"/>
      <point x="317" y="493" type="line"/>
      <point x="365" y="511"/>
      <point x="397" y="573"/>
      <point x="397" y="662" type="curve" smooth="yes"/>
      <point x="397" y="735"/>
      <point x="361" y="807"/>
      <point x="283" y="807" type="curve" smooth="yes"/>
      <point x="182" y="807"/>
      <point x="171" y="728"/>
      <point x="171" y="659" type="curve" smooth="yes"/>
      <point x="171" y="572"/>
      <point x="201" y="516"/>
      <point x="251" y="494" type="curve"/>
      <point x="249" y="491" type="line"/>
      <point x="227" y="494"/>
      <point x="179" y="500"/>
      <point x="151" y="500" type="curve" smooth="yes"/>
      <point x="55" y="500" type="line"/>
      <point x="55" y="437" type="line"/>
      <point x="149" y="437" type="line" smooth="yes"/>
      <point x="193" y="437"/>
      <point x="238" y="444"/>
      <point x="248" y="446" type="curve"/>
      <point x="248" y="0" type="line"/>
      <point x="318" y="0" type="line"/>
      <point x="318" y="445" type="line"/>
      <point x="335" y="442"/>
      <point x="380" y="437"/>
      <point x="427" y="437" type="curve" smooth="yes"/>
      <point x="508" y="437" type="line"/>
      <point x="508" y="500" type="line"/>
      <point x="424" y="500" type="line" smooth="yes"/>
      <point x="383" y="500"/>
      <point x="338" y="494"/>
    </contour>
    <contour>
      <point x="282" y="750" type="curve" smooth="yes"/>
      <point x="327" y="750"/>
      <point x="333" y="691"/>
      <point x="333" y="652" type="curve" smooth="yes"/>
      <point x="333" y="560"/>
      <point x="307" y="515"/>
      <point x="283" y="515" type="curve" smooth="yes"/>
      <point x="259" y="515"/>
      <point x="233" y="561"/>
      <point x="233" y="652" type="curve" smooth="yes"/>
      <point x="233" y="693"/>
      <point x="240" y="750"/>
    </contour>
  </outline>
</glyph>
<glyph name="uni1003D" format="2">
  <advance width="653"/>
  <unicode hex="1003D"/>
  <outline>
    <contour>
      <point x="554" y="0" type="line"/>
      <point x="554" y="63" type="line"/>
      <point x="311" y="63" type="line" smooth="yes"/>
      <point x="203" y="63"/>
      <point x="178" y="96"/>
      <point x="178" y="227" type="curve" smooth="yes"/>
      <point x="178" y="321" type="line"/>
      <point x="258" y="330"/>
      <point x="337" y="383"/>
      <point x="337" y="487" type="curve" smooth="yes"/>
      <point x="337" y="592"/>
      <point x="265" y="636"/>
      <point x="178" y="644" type="curve"/>
      <point x="178" y="800" type="line"/>
      <point x="111" y="800" type="line"/>
      <point x="111" y="227" type="line" smooth="yes"/>
      <point x="111" y="18"/>
      <point x="187" y="0"/>
      <point x="311" y="0" type="curve" smooth="yes"/>
    </contour>
    <contour>
      <point x="265" y="487" type="curve" smooth="yes"/>
      <point x="265" y="428"/>
      <point x="235" y="392"/>
      <point x="178" y="384" type="curve"/>
      <point x="178" y="581" type="line"/>
      <point x="228" y="574"/>
      <point x="265" y="544"/>
    </contour>
    <contour>
      <point x="554" y="607" type="line"/>
      <point x="554" y="670" type="line"/>
      <point x="369" y="670" type="line"/>
      <point x="369" y="607" type="line"/>
    </contour>
    <contour>
      <point x="554" y="457" type="line"/>
      <point x="554" y="520" type="line"/>
      <point x="369" y="520" type="line"/>
      <point x="369" y="457" type="line"/>
    </contour>
    <contour>
      <point x="554" y="307" type="line"/>
      <point x="554" y="370" type="line"/>
      <point x="369" y="370" type="line"/>
      <point x="369" y="307" type="line"/>
    </contour>
  </outline>
</glyph>
<glyph name="uni1003F" format="2">
  <advance width="662"/>
  <unicode hex="1003F"/>
  <outline>
    <contour>
      <point x="507" y="267" type="line"/>
      <point x="507" y="330" type="line"/>
      <point x="366" y="330" type="line"/>
      <point x="366" y="500" type="line" smooth="yes"/>
      <point x="366" y="608"/>
      <point x="359" y="697"/>
      <point x="355" y="725" type="curve"/>
      <point x="359" y="725" type="line"/>
      <point x="367" y="696"/>
      <point x="384" y="652"/>
      <point x="416" y="607" type="curve" smooth="yes"/>
      <point x="564" y="399" type="line"/>
      <point x="618" y="438" type="line"/>
      <point x="351" y="814" type="line"/>
      <point x="311" y="814" type="line"/>
      <point x="44" y="438" type="line"/>
      <point x="98" y="399" type="line"/>
      <point x="247" y="609" type="line" smooth="yes"/>
      <point x="278" y="653"/>
      <point x="292" y="697"/>
      <point x="301" y="725" type="curve"/>
      <point x="305" y="725" type="line"/>
      <point x="302" y="699"/>
      <point x="296" y="608"/>
      <point x="296" y="500" type="curve" smooth="yes"/>
      <point x="296" y="330" type="line"/>
      <point x="162" y="330" type="line"/>
      <point x="162" y="267" type="line"/>
      <point x="296" y="267" type="line"/>
      <point x="296" y="0" type="line"/>
      <point x="366" y="0" type="line"/>
      <point x="366" y="267" type="line"/>
    </contour>
  </outline>
</glyph>
<glyph name="uni10040" format="2">
  <advance width="792"/>
  <unicode hex="10040"/>
  <outline>
    <contour>
      <point x="637" y="737" type="line"/>
      <point x="637" y="800" type="line"/>
      <point x="163" y="800" type="line"/>
      <point x="163" y="737" type="line"/>
      <point x="366" y="737" type="line"/>
      <point x="366" y="0" type="line"/>
      <point x="436" y="0" type="line"/>
      <point x="436" y="737" type="line"/>
    </contour>
    <contour>
      <point x="564" y="672" type="curve"/>
      <point x="493" y="672" type="line"/>
      <point x="493" y="567"/>
      <point x="542" y="503"/>
      <point x="630" y="503" type="curve" smooth="yes"/>
      <point x="718" y="503"/>
      <point x="757" y="556"/>
      <point x="759" y="672" type="curve"/>
      <point x="691" y="672" type="line"/>
      <point x="691" y="624"/>
      <point x="679" y="565"/>
      <point x="630" y="565" type="curve" smooth="yes"/>
      <point x="581" y="565"/>
      <point x="564" y="613"/>
    </contour>
    <contour>
      <point x="104" y="672" type="curve"/>
      <point x="33" y="672" type="line"/>
      <point x="33" y="567"/>
      <point x="82" y="503"/>
      <point x="170" y="503" type="curve" smooth="yes"/>
      <point x="258" y="503"/>
      <point x="297" y="556"/>
      <point x="299" y="672" type="curve"/>
      <point x="231" y="672" type="line"/>
      <point x="231" y="624"/>
      <point x="219" y="565"/>
      <point x="170" y="565" type="curve" smooth="yes"/>
      <point x="121" y="565"/>
      <point x="104" y="613"/>
    </contour>
  </outline>
</glyph>
<glyph name="uni10041" format="2">
  <advance width="608"/>
  <unicode hex="10041"/>
  <outline>
    <contour>
      <point x="112" y="807" type="curve"/>
      <point x="44" y="792" type="line"/>
      <point x="58" y="762"/>
      <point x="68" y="736"/>
      <point x="68" y="702" type="curve" smooth="yes"/>
      <point x="68" y="675"/>
      <point x="58" y="637"/>
      <point x="58" y="616" type="curve" smooth="yes"/>
      <point x="58" y="504"/>
      <point x="123" y="483"/>
      <point x="213" y="482" type="curve"/>
      <point x="207" y="465"/>
      <point x="199" y="440"/>
      <point x="191" y="403" type="curve" smooth="yes"/>
      <point x="106" y="1" type="line"/>
      <point x="176" y="-10" type="line"/>
      <point x="262" y="401" type="line" smooth="yes"/>
      <point x="272" y="448"/>
      <point x="274" y="473"/>
      <point x="275" y="482" type="curve"/>
      <point x="328" y="482" type="line"/>
      <point x="330" y="461"/>
      <point x="332" y="440"/>
      <point x="341" y="397" type="curve" smooth="yes"/>
      <point x="429" y="-10" type="line"/>
      <point x="498" y="1" type="line"/>
      <point x="412" y="398" type="line" smooth="yes"/>
      <point x="401" y="448"/>
      <point x="393" y="470"/>
      <point x="389" y="482" type="curve"/>
      <point x="520" y="482" type="line"/>
      <point x="520" y="545" type="line"/>
      <point x="215" y="545" type="line" smooth="yes"/>
      <point x="157" y="545"/>
      <point x="128" y="552"/>
      <point x="128" y="617" type="curve" smooth="yes"/>
      <point x="128" y="642"/>
      <point x="138" y="675"/>
      <point x="138" y="704" type="curve" smooth="yes"/>
      <point x="138" y="746"/>
      <point x="122" y="783"/>
    </contour>
    <contour>
      <point x="390" y="608" type="line"/>
      <point x="390" y="740" type="line"/>
      <point x="320" y="740" type="line"/>
      <point x="320" y="608" type="line"/>
    </contour>
    <contour>
      <point x="520" y="608" type="line"/>
      <point x="520" y="740" type="line"/>
      <point x="450" y="740" type="line"/>
      <point x="450" y="608" type="line"/>
    </contour>
    <contour>
      <point x="260" y="608" type="line"/>
      <point x="260" y="740" type="line"/>
      <point x="190" y="740" type="line"/>
      <point x="190" y="608" type="line"/>
    </contour>
  </outline>
</glyph>
<glyph name="uni10043" format="2">
  <advance width="755"/>
  <unicode hex="10043"/>
  <outline>
    <contour>
      <point x="102" y="175" type="curve" smooth="yes"/>
      <point x="102" y="124"/>
      <point x="144" y="101"/>
      <point x="190" y="101" type="curve" smooth="yes"/>
      <point x="214" y="101"/>
      <point x="246" y="111"/>
      <point x="267" y="125" type="curve"/>
      <point x="267" y="0" type="line"/>
      <point x="503" y="0" type="line"/>
      <point x="503" y="122" type="line"/>
      <point x="520" y="107"/>
      <point x="553" y="101"/>
      <point x="575" y="101" type="curve" smooth="yes"/>
      <point x="621" y="101"/>
      <point x="663" y="124"/>
      <point x="663" y="175" type="curve" smooth="yes"/>
      <point x="663" y="241"/>
      <point x="626" y="256"/>
      <point x="626" y="289" type="curve" smooth="yes"/>
      <point x="626" y="307"/>
      <point x="641" y="317"/>
      <point x="689" y="317" type="curve"/>
      <point x="681" y="375" type="line"/>
      <point x="596" y="368"/>
      <point x="564" y="341"/>
      <point x="564" y="286" type="curve" smooth="yes"/>
      <point x="564" y="233"/>
      <point x="609" y="199"/>
      <point x="609" y="173" type="curve" smooth="yes"/>
      <point x="609" y="162"/>
      <point x="600" y="152"/>
      <point x="574" y="152" type="curve" smooth="yes"/>
      <point x="557" y="152"/>
      <point x="527" y="158"/>
      <point x="503" y="173" type="curve"/>
      <point x="503" y="419" type="line"/>
      <point x="572" y="443"/>
      <point x="642" y="507"/>
      <point x="642" y="598" type="curve" smooth="yes"/>
      <point x="642" y="732"/>
      <point x="503" y="810"/>
      <point x="389" y="810" type="curve" smooth="yes"/>
      <point x="275" y="810"/>
      <point x="132" y="732"/>
      <point x="132" y="598" type="curve" smooth="yes"/>
      <point x="132" y="510"/>
      <point x="197" y="444"/>
      <point x="267" y="422" type="curve"/>
      <point x="267" y="176" type="line"/>
      <point x="240" y="158"/>
      <point x="208" y="152"/>
      <point x="191" y="152" type="curve" smooth="yes"/>
      <point x="165" y="152"/>
      <point x="156" y="162"/>
      <point x="156" y="173" type="curve" smooth="yes"/>
      <point x="156" y="199"/>
      <point x="191" y="233"/>
      <point x="191" y="286" type="curve" smooth="yes"/>
      <point x="191" y="346"/>
      <point x="144" y="369"/>
      <point x="74" y="375" type="curve"/>
      <point x="66" y="317" type="line"/>
      <point x="114" y="317"/>
      <point x="129" y="307"/>
      <point x="129" y="289" type="curve" smooth="yes"/>
      <point x="129" y="256"/>
      <point x="102" y="241"/>
    </contour>
    <contour>
      <point x="332" y="202" type="line"/>
      <point x="332" y="670" type="line"/>
      <point x="267" y="670" type="line"/>
      <point x="267" y="482" type="line"/>
      <point x="231" y="497"/>
      <point x="202" y="549"/>
      <point x="202" y="598" type="curve" smooth="yes"/>
      <point x="202" y="698"/>
      <point x="298" y="747"/>
      <point x="389" y="747" type="curve" smooth="yes"/>
      <point x="480" y="747"/>
      <point x="572" y="698"/>
      <point x="572" y="598" type="curve" smooth="yes"/>
      <point x="572" y="546"/>
      <point x="540" y="496"/>
      <point x="503" y="478" type="curve"/>
      <point x="503" y="670" type="line"/>
      <point x="438" y="670" type="line"/>
      <point x="438" y="202" type="line"/>
    </contour>
    <contour>
      <point x="438" y="63" type="line"/>
      <point x="332" y="63" type="line"/>
      <point x="332" y="144" type="line"/>
      <point x="438" y="144" type="line"/>
    </contour>
  </outline>
</glyph>
<glyph name="uni10044" format="2">
  <advance width="1004"/>
  <unicode hex="10044"/>
  <outline>
    <contour>
      <point x="359" y="608" type="line"/>
      <point x="359" y="671" type="line"/>
      <point x="105" y="671" type="line"/>
      <point x="105" y="608" type="line"/>
      <point x="176" y="608" type="line"/>
      <point x="66" y="0" type="line"/>
      <point x="398" y="0" type="line"/>
      <point x="287" y="608" type="line"/>
    </contour>
    <contour>
      <point x="899" y="608" type="line"/>
      <point x="899" y="671" type="line"/>
      <point x="645" y="671" type="line"/>
      <point x="645" y="608" type="line"/>
      <point x="716" y="608" type="line"/>
      <point x="606" y="0" type="line"/>
      <point x="938" y="0" type="line"/>
      <point x="827" y="608" type="line"/>
    </contour>
    <contour>
      <point x="148" y="63" type="line"/>
      <point x="205" y="429" type="line"/>
      <point x="213" y="481"/>
      <point x="225" y="582"/>
      <point x="230" y="620" type="curve"/>
      <point x="234" y="620" type="line"/>
      <point x="237" y="583"/>
      <point x="251" y="478"/>
      <point x="259" y="429" type="curve" smooth="yes"/>
      <point x="315" y="63" type="line"/>
    </contour>
    <contour>
      <point x="612" y="622" type="curve"/>
      <point x="612" y="671" type="line"/>
      <point x="580" y="672"/>
      <point x="567" y="693"/>
      <point x="567" y="712" type="curve" smooth="yes"/>
      <point x="567" y="732"/>
      <point x="580" y="750"/>
      <point x="611" y="750" type="curve"/>
      <point x="599" y="809" type="line"/>
      <point x="539" y="809"/>
      <point x="510" y="761"/>
      <point x="510" y="719" type="curve" smooth="yes"/>
      <point x="510" y="687"/>
      <point x="527" y="655"/>
      <point x="560" y="644" type="curve"/>
      <point x="530" y="628"/>
      <point x="520" y="590"/>
      <point x="520" y="563" type="curve" smooth="yes"/>
      <point x="520" y="525"/>
      <point x="547" y="491"/>
      <point x="599" y="491" type="curve"/>
      <point x="611" y="545" type="line"/>
      <point x="589" y="545"/>
      <point x="578" y="559"/>
      <point x="578" y="583" type="curve" smooth="yes"/>
      <point x="578" y="606"/>
      <point x="589" y="622"/>
    </contour>
    <contour>
      <point x="391" y="673" type="curve"/>
      <point x="391" y="624" type="line"/>
      <point x="422" y="623"/>
      <point x="431" y="602"/>
      <point x="431" y="583" type="curve" smooth="yes"/>
      <point x="431" y="563"/>
      <point x="417" y="545"/>
      <point x="387" y="545" type="curve"/>
      <point x="399" y="491" type="line"/>
      <point x="459" y="491"/>
      <point x="488" y="534"/>
      <point x="488" y="576" type="curve" smooth="yes"/>
      <point x="488" y="608"/>
      <point x="476" y="638"/>
      <point x="443" y="655" type="curve"/>
      <point x="470" y="677"/>
      <point x="483" y="705"/>
      <point x="483" y="732" type="curve" smooth="yes"/>
      <point x="483" y="770"/>
      <point x="456" y="809"/>
      <point x="404" y="809" type="curve"/>
      <point x="392" y="750" type="line"/>
      <point x="414" y="750"/>
      <point x="425" y="736"/>
      <point x="425" y="712" type="curve" smooth="yes"/>
      <point x="425" y="689"/>
      <point x="413" y="673"/>
    </contour>
    <contour>
      <point x="688" y="63" type="line"/>
      <point x="745" y="429" type="line"/>
      <point x="753" y="481"/>
      <point x="765" y="582"/>
      <point x="770" y="620" type="curve"/>
      <point x="774" y="620" type="line"/>
      <point x="777" y="583"/>
      <point x="791" y="478"/>
      <point x="799" y="429" type="curve" smooth="yes"/>
      <point x="855" y="63" type="line"/>
    </contour>
  </outline>
</glyph>
<glyph name="uni10045" format="2">
  <advance width="798"/>
  <unicode hex="10045"/>
  <outline>
    <contour>
      <point x="402" y="457" type="curve"/>
      <point x="398" y="457" type="line"/>
      <point x="392" y="488"/>
      <point x="367" y="537"/>
      <point x="354" y="564" type="curve" smooth="yes"/>
      <point x="331" y="611" type="line"/>
      <point x="331" y="800" type="line"/>
      <point x="269" y="800" type="line"/>
      <point x="274" y="650" type="line"/>
      <point x="229" y="650" type="line"/>
      <point x="234" y="800" type="line"/>
      <point x="172" y="800" type="line"/>
      <point x="177" y="650" type="line"/>
      <point x="134" y="650" type="line"/>
      <point x="139" y="800" type="line"/>
      <point x="77" y="800" type="line"/>
      <point x="77" y="595" type="line"/>
      <point x="217" y="595" type="line" smooth="yes"/>
      <point x="263" y="595"/>
      <point x="275" y="575"/>
      <point x="290" y="546" type="curve" smooth="yes"/>
      <point x="316" y="494"/>
      <point x="338" y="444"/>
      <point x="371" y="400" type="curve"/>
      <point x="353" y="378"/>
      <point x="338" y="348"/>
      <point x="326" y="322" type="curve" smooth="yes"/>
      <point x="263" y="186"/>
      <point x="205" y="48"/>
      <point x="205" y="0" type="curve"/>
      <point x="277" y="0" type="line"/>
      <point x="277" y="40"/>
      <point x="316" y="142"/>
      <point x="363" y="251" type="curve" smooth="yes"/>
      <point x="373" y="274"/>
      <point x="390" y="310"/>
      <point x="395" y="334" type="curve"/>
      <point x="399" y="334" type="line"/>
      <point x="406" y="309"/>
      <point x="420" y="273"/>
      <point x="430" y="251" type="curve" smooth="yes"/>
      <point x="478" y="144"/>
      <point x="516" y="42"/>
      <point x="516" y="0" type="curve"/>
      <point x="593" y="0" type="line"/>
      <point x="593" y="48"/>
      <point x="534" y="185"/>
      <point x="471" y="322" type="curve" smooth="yes"/>
      <point x="459" y="348"/>
      <point x="445" y="378"/>
      <point x="427" y="400" type="curve"/>
      <point x="456" y="443"/>
      <point x="481" y="497"/>
      <point x="505" y="546" type="curve" smooth="yes"/>
      <point x="519" y="575"/>
      <point x="535" y="595"/>
      <point x="581" y="595" type="curve" smooth="yes"/>
      <point x="721" y="595" type="line"/>
      <point x="721" y="800" type="line"/>
      <point x="659" y="800" type="line"/>
      <point x="664" y="650" type="line"/>
      <point x="627" y="650" type="line"/>
      <point x="627" y="800" type="line"/>
      <point x="564" y="800" type="line"/>
      <point x="569" y="650" type="line"/>
      <point x="525" y="650" type="line"/>
      <point x="530" y="800" type="line"/>
      <point x="467" y="800" type="line"/>
      <point x="467" y="611" type="line"/>
      <point x="443" y="564" type="line" smooth="yes"/>
      <point x="427" y="532"/>
      <point x="408" y="488"/>
    </contour>
  </outline>
</glyph>
<glyph name="uni10046" format="2">
  <advance width="754"/>
  <unicode hex="10046"/>
  <outline>
    <contour>
      <point x="410" y="424" type="curve" smooth="yes"/>
      <point x="410" y="626" type="line" smooth="yes"/>
      <point x="410" y="648"/>
      <point x="407" y="665"/>
      <point x="405" y="679" type="curve"/>
      <point x="499" y="679" type="line"/>
      <point x="499" y="742" type="line"/>
      <point x="407" y="742" type="line"/>
      <point x="408" y="754"/>
      <point x="410" y="780"/>
      <point x="410" y="800" type="curve"/>
      <point x="341" y="800" type="line"/>
      <point x="341" y="780"/>
      <point x="342" y="754"/>
      <point x="343" y="742" type="curve"/>
      <point x="247" y="742" type="line"/>
      <point x="247" y="679" type="line"/>
      <point x="344" y="679" type="line"/>
      <point x="342" y="665"/>
      <point x="340" y="646"/>
      <point x="340" y="623" type="curve" smooth="yes"/>
      <point x="340" y="424" type="line" smooth="yes"/>
      <point x="340" y="382"/>
      <point x="342" y="351"/>
      <point x="344" y="330" type="curve"/>
      <point x="259" y="330" type="line"/>
      <point x="240" y="454" type="line" smooth="yes"/>
      <point x="236" y="480"/>
      <point x="229" y="505"/>
      <point x="223" y="525" type="curve"/>
      <point x="309" y="536" type="line"/>
      <point x="301" y="599" type="line"/>
      <point x="215" y="588" type="line"/>
      <point x="214" y="605"/>
      <point x="212" y="630"/>
      <point x="207" y="666" type="curve" smooth="yes"/>
      <point x="186" y="805" type="line"/>
      <point x="117" y="794" type="line"/>
      <point x="138" y="656" type="line" smooth="yes"/>
      <point x="143" y="620"/>
      <point x="149" y="597"/>
      <point x="154" y="580" type="curve"/>
      <point x="55" y="568" type="line"/>
      <point x="63" y="505" type="line"/>
      <point x="165" y="518" type="line"/>
      <point x="167" y="498"/>
      <point x="167" y="472"/>
      <point x="171" y="446" type="curve" smooth="yes"/>
      <point x="189" y="330" type="line"/>
      <point x="138" y="330" type="line"/>
      <point x="138" y="267" type="line"/>
      <point x="344" y="267" type="line"/>
      <point x="342" y="252"/>
      <point x="340" y="234"/>
      <point x="340" y="209" type="curve" smooth="yes"/>
      <point x="340" y="0" type="line"/>
      <point x="410" y="0" type="line"/>
      <point x="410" y="212" type="line" smooth="yes"/>
      <point x="410" y="235"/>
      <point x="407" y="253"/>
      <point x="405" y="267" type="curve"/>
      <point x="613" y="267" type="line"/>
      <point x="613" y="330" type="line"/>
      <point x="562" y="330" type="line"/>
      <point x="580" y="447" type="line" smooth="yes"/>
      <point x="584" y="473"/>
      <point x="584" y="499"/>
      <point x="585" y="519" type="curve"/>
      <point x="691" y="506" type="line"/>
      <point x="699" y="569" type="line"/>
      <point x="597" y="582" type="line"/>
      <point x="602" y="598"/>
      <point x="607" y="621"/>
      <point x="613" y="657" type="curve" smooth="yes"/>
      <point x="634" y="794" type="line"/>
      <point x="565" y="805" type="line"/>
      <point x="544" y="667" type="line" smooth="yes"/>
      <point x="539" y="631"/>
      <point x="536" y="607"/>
      <point x="536" y="589" type="curve"/>
      <point x="453" y="600" type="line"/>
      <point x="445" y="537" type="line"/>
      <point x="527" y="526" type="line"/>
      <point x="522" y="506"/>
      <point x="515" y="481"/>
      <point x="511" y="455" type="curve" smooth="yes"/>
      <point x="491" y="330" type="line"/>
      <point x="405" y="330" type="line"/>
      <point x="408" y="352"/>
      <point x="410" y="382"/>
    </contour>
  </outline>
</glyph>
<glyph name="uni10047" format="2">
  <advance width="719"/>
  <unicode hex="10047"/>
  <outline>
    <contour>
      <point x="198" y="800" type="curve"/>
      <point x="111" y="800" type="line"/>
      <point x="111" y="0" type="line"/>
      <point x="608" y="0" type="line"/>
      <point x="608" y="800" type="line"/>
      <point x="521" y="800" type="line" smooth="yes"/>
      <point x="392" y="800"/>
      <point x="431" y="500"/>
      <point x="352" y="500" type="curve" smooth="yes"/>
      <point x="273" y="500"/>
      <point x="330" y="800"/>
    </contour>
    <contour>
      <point x="541" y="63" type="line"/>
      <point x="178" y="63" type="line"/>
      <point x="178" y="737" type="line"/>
      <point x="187" y="737" type="line" smooth="yes"/>
      <point x="258" y="737"/>
      <point x="203" y="437"/>
      <point x="352" y="437" type="curve" smooth="yes"/>
      <point x="497" y="437"/>
      <point x="456" y="737"/>
      <point x="531" y="737" type="curve" smooth="yes"/>
      <point x="541" y="737" type="line"/>
    </contour>
  </outline>
</glyph>
<glyph name="uni10048" format="2">
  <advance width="642"/>
  <unicode hex="10048"/>
  <outline>
    <contour>
      <point x="576" y="545" type="line"/>
      <point x="576" y="608" type="line"/>
      <point x="376" y="608" type="line"/>
      <point x="407" y="662"/>
      <point x="504" y="685"/>
      <point x="535" y="777" type="curve"/>
      <point x="477" y="810" type="line"/>
      <point x="446" y="721"/>
      <point x="338" y="688"/>
      <point x="317" y="608" type="curve"/>
      <point x="174" y="608" type="line"/>
      <point x="205" y="662"/>
      <point x="302" y="685"/>
      <point x="333" y="777" type="curve"/>
      <point x="275" y="810" type="line"/>
      <point x="244" y="721"/>
      <point x="136" y="688"/>
      <point x="115" y="608" type="curve"/>
      <point x="33" y="608" type="line"/>
      <point x="33" y="545" type="line"/>
      <point x="115" y="545" type="line"/>
      <point x="130" y="460"/>
      <point x="239" y="476"/>
      <point x="239" y="391" type="curve" smooth="yes"/>
      <point x="239" y="374"/>
      <point x="236" y="355"/>
      <point x="230" y="331" type="curve" smooth="yes"/>
      <point x="145" y="0" type="line"/>
      <point x="209" y="-10" type="line"/>
      <point x="295" y="316" type="line" smooth="yes"/>
      <point x="304" y="350"/>
      <point x="308" y="379"/>
      <point x="308" y="403" type="curve" smooth="yes"/>
      <point x="308" y="487"/>
      <point x="194" y="509"/>
      <point x="174" y="545" type="curve"/>
      <point x="317" y="545" type="line"/>
      <point x="340" y="451"/>
      <point x="441" y="476"/>
      <point x="441" y="391" type="curve" smooth="yes"/>
      <point x="441" y="374"/>
      <point x="438" y="355"/>
      <point x="432" y="331" type="curve" smooth="yes"/>
      <point x="347" y="0" type="line"/>
      <point x="411" y="-10" type="line"/>
      <point x="497" y="316" type="line" smooth="yes"/>
      <point x="506" y="350"/>
      <point x="510" y="379"/>
      <point x="510" y="403" type="curve" smooth="yes"/>
      <point x="510" y="486"/>
      <point x="397" y="506"/>
      <point x="374" y="545" type="curve"/>
    </contour>
  </outline>
</glyph>
<glyph name="uni10049" format="2">
  <advance width="750"/>
  <unicode hex="10049"/>
  <outline>
    <contour>
      <point x="621" y="791" type="curve"/>
      <point x="552" y="810" type="line"/>
      <point x="536" y="792"/>
      <point x="534" y="767"/>
      <point x="534" y="751" type="curve" smooth="yes"/>
      <point x="534" y="706"/>
      <point x="562" y="667"/>
      <point x="562" y="620" type="curve" smooth="yes"/>
      <point x="562" y="520"/>
      <point x="481" y="481"/>
      <point x="375" y="481" type="curve" smooth="yes"/>
      <point x="269" y="481"/>
      <point x="192" y="520"/>
      <point x="192" y="620" type="curve" smooth="yes"/>
      <point x="192" y="671"/>
      <point x="221" y="708"/>
      <point x="221" y="751" type="curve" smooth="yes"/>
      <point x="221" y="767"/>
      <point x="219" y="794"/>
      <point x="202" y="814" type="curve"/>
      <point x="134" y="790" type="line"/>
      <point x="146" y="772"/>
      <point x="151" y="757"/>
      <point x="151" y="744" type="curve" smooth="yes"/>
      <point x="151" y="701"/>
      <point x="122" y="670"/>
      <point x="122" y="620" type="curve" smooth="yes"/>
      <point x="122" y="496"/>
      <point x="222" y="428"/>
      <point x="345" y="419" type="curve"/>
      <point x="343" y="403"/>
      <point x="340" y="383"/>
      <point x="340" y="355" type="curve" smooth="yes"/>
      <point x="340" y="0" type="line"/>
      <point x="410" y="0" type="line"/>
      <point x="410" y="358" type="line" smooth="yes"/>
      <point x="410" y="385"/>
      <point x="406" y="404"/>
      <point x="404" y="419" type="curve"/>
      <point x="528" y="428"/>
      <point x="632" y="495"/>
      <point x="632" y="620" type="curve" smooth="yes"/>
      <point x="632" y="668"/>
      <point x="604" y="703"/>
      <point x="604" y="746" type="curve" smooth="yes"/>
      <point x="604" y="760"/>
      <point x="609" y="774"/>
    </contour>
    <contour>
      <point x="432" y="518" type="line"/>
      <point x="491" y="549" type="line"/>
      <point x="403" y="714" type="line"/>
      <point x="341" y="714" type="line"/>
      <point x="253" y="549" type="line"/>
      <point x="313" y="520" type="line"/>
      <point x="335" y="563" type="line" smooth="yes"/>
      <point x="355" y="601"/>
      <point x="365" y="636"/>
      <point x="369" y="663" type="curve"/>
      <point x="373" y="663" type="line"/>
      <point x="376" y="636"/>
      <point x="401" y="580"/>
      <point x="411" y="560" type="curve"/>
    </contour>
    <contour>
      <point x="273" y="65" type="line"/>
      <point x="273" y="128" type="line"/>
      <point x="128" y="128" type="line"/>
      <point x="128" y="65" type="line"/>
    </contour>
    <contour>
      <point x="273" y="195" type="line"/>
      <point x="273" y="258" type="line"/>
      <point x="128" y="258" type="line"/>
      <point x="128" y="195" type="line"/>
    </contour>
    <contour>
      <point x="622" y="195" type="line"/>
      <point x="622" y="258" type="line"/>
      <point x="477" y="258" type="line"/>
      <point x="477" y="195" type="line"/>
    </contour>
    <contour>
      <point x="622" y="65" type="line"/>
      <point x="622" y="128" type="line"/>
      <point x="477" y="128" type="line"/>
      <point x="477" y="65" type="line"/>
    </contour>
    <contour>
      <point x="622" y="325" type="line"/>
      <point x="622" y="388" type="line"/>
      <point x="477" y="388" type="line"/>
      <point x="477" y="325" type="line"/>
    </contour>
    <contour>
      <point x="273" y="325" type="line"/>
      <point x="273" y="388" type="line"/>
      <point x="128" y="388" type="line"/>
      <point x="128" y="325" type="line"/>
    </contour>
  </outline>
</glyph>
<glyph name="uni1004A" format="2">
  <advance width="730"/>
  <unicode hex="1004A"/>
  <outline>
    <contour>
      <point x="594" y="276" type="curve" smooth="yes"/>
      <point x="594" y="170"/>
      <point x="510" y="114"/>
      <point x="473" y="98" type="curve" smooth="yes"/>
      <point x="431" y="80"/>
      <point x="409" y="58"/>
      <point x="396" y="44" type="curve"/>
      <point x="393" y="46" type="line"/>
      <point x="396" y="67"/>
      <point x="399" y="118"/>
      <point x="399" y="158" type="curve" smooth="yes"/>
      <point x="399" y="545" type="line"/>
      <point x="502" y="545" type="line"/>
      <point x="502" y="608" type="line"/>
      <point x="399" y="608" type="line"/>
      <point x="399" y="800" type="line"/>
      <point x="329" y="800" type="line"/>
      <point x="329" y="608" type="line"/>
      <point x="227" y="608" type="line"/>
      <point x="227" y="545" type="line"/>
      <point x="329" y="545" type="line"/>
      <point x="329" y="156" type="line" smooth="yes"/>
      <point x="329" y="115"/>
      <point x="332" y="68"/>
      <point x="335" y="47" type="curve"/>
      <point x="332" y="46" type="line"/>
      <point x="323" y="59"/>
      <point x="294" y="83"/>
      <point x="257" y="98" type="curve" smooth="yes"/>
      <point x="214" y="116"/>
      <point x="136" y="175"/>
      <point x="136" y="276" type="curve" smooth="yes"/>
      <point x="136" y="331"/>
      <point x="149" y="349"/>
      <point x="192" y="362" type="curve" smooth="yes"/>
      <point x="216" y="369"/>
      <point x="253" y="384"/>
      <point x="253" y="426" type="curve" smooth="yes"/>
      <point x="253" y="450"/>
      <point x="241" y="478"/>
      <point x="217" y="513" type="curve"/>
      <point x="168" y="484" type="line"/>
      <point x="179" y="464"/>
      <point x="185" y="449"/>
      <point x="185" y="438" type="curve" smooth="yes"/>
      <point x="185" y="425"/>
      <point x="175" y="421"/>
      <point x="153" y="413" type="curve" smooth="yes"/>
      <point x="95" y="393"/>
      <point x="66" y="358"/>
      <point x="66" y="278" type="curve" smooth="yes"/>
      <point x="66" y="62"/>
      <point x="348" y="-4"/>
      <point x="365" y="-10" type="curve"/>
      <point x="388" y="-4"/>
      <point x="664" y="64"/>
      <point x="664" y="278" type="curve" smooth="yes"/>
      <point x="664" y="358"/>
      <point x="635" y="393"/>
      <point x="577" y="413" type="curve" smooth="yes"/>
      <point x="555" y="421"/>
      <point x="545" y="425"/>
      <point x="545" y="438" type="curve" smooth="yes"/>
      <point x="545" y="449"/>
      <point x="551" y="464"/>
      <point x="562" y="484" type="curve"/>
      <point x="513" y="513" type="line"/>
      <point x="489" y="478"/>
      <point x="477" y="450"/>
      <point x="477" y="426" type="curve" smooth="yes"/>
      <point x="477" y="384"/>
      <point x="514" y="369"/>
      <point x="538" y="362" type="curve" smooth="yes"/>
      <point x="581" y="349"/>
      <point x="594" y="331"/>
    </contour>
  </outline>
</glyph>
<glyph name="uni1004B" format="2">
  <advance width="752"/>
  <unicode hex="1004B"/>
  <outline>
    <contour>
      <point x="497" y="0" type="curve"/>
      <point x="564" y="0" type="line"/>
      <point x="564" y="254"/>
      <point x="629" y="618"/>
      <point x="664" y="800" type="curve"/>
      <point x="88" y="800" type="line"/>
      <point x="125" y="618"/>
      <point x="188" y="267"/>
      <point x="188" y="0" type="curve"/>
      <point x="255" y="0" type="line"/>
      <point x="286" y="64"/>
      <point x="338" y="132"/>
      <point x="371" y="170" type="curve"/>
      <point x="402" y="135"/>
      <point x="463" y="63"/>
    </contour>
    <contour>
      <point x="513" y="71" type="curve"/>
      <point x="510" y="70" type="line"/>
      <point x="488" y="120"/>
      <point x="426" y="217"/>
      <point x="395" y="249" type="curve"/>
      <point x="359" y="249" type="line"/>
      <point x="326" y="216"/>
      <point x="260" y="115"/>
      <point x="241" y="69" type="curve"/>
      <point x="238" y="71" type="line"/>
      <point x="243" y="106"/>
      <point x="244" y="138"/>
      <point x="244" y="158" type="curve" smooth="yes"/>
      <point x="244" y="180"/>
      <point x="242" y="206"/>
      <point x="239" y="241" type="curve" smooth="yes"/>
      <point x="223" y="412"/>
      <point x="185" y="662"/>
      <point x="170" y="737" type="curve"/>
      <point x="582" y="737" type="line"/>
      <point x="567" y="662"/>
      <point x="528" y="411"/>
      <point x="511" y="241" type="curve" smooth="yes"/>
      <point x="508" y="206"/>
      <point x="506" y="172"/>
      <point x="506" y="156" type="curve" smooth="yes"/>
      <point x="506" y="134"/>
      <point x="506" y="103"/>
    </contour>
    <contour>
      <point x="296" y="527" type="line"/>
      <point x="296" y="673" type="line"/>
      <point x="234" y="673" type="line"/>
      <point x="234" y="527" type="line"/>
    </contour>
    <contour>
      <point x="516" y="527" type="line"/>
      <point x="516" y="673" type="line"/>
      <point x="454" y="673" type="line"/>
      <point x="454" y="527" type="line"/>
    </contour>
    <contour>
      <point x="406" y="527" type="line"/>
      <point x="406" y="673" type="line"/>
      <point x="344" y="673" type="line"/>
      <point x="344" y="527" type="line"/>
    </contour>
    <contour>
      <point x="351" y="311" type="line"/>
      <point x="351" y="457" type="line"/>
      <point x="289" y="457" type="line"/>
      <point x="289" y="311" type="line"/>
    </contour>
    <contour>
      <point x="461" y="311" type="line"/>
      <point x="461" y="457" type="line"/>
      <point x="399" y="457" type="line"/>
      <point x="399" y="311" type="line"/>
    </contour>
  </outline>
</glyph>
<glyph name="uni1004C" format="2">
  <advance width="544"/>
  <unicode hex="1004C"/>
  <outline>
    <contour>
      <point x="111" y="800" type="line"/>
      <point x="111" y="0" type="line"/>
      <point x="278" y="0"/>
      <point x="467" y="74"/>
      <point x="467" y="235" type="curve" smooth="yes"/>
      <point x="467" y="354"/>
      <point x="394" y="398"/>
      <point x="332" y="419" type="curve"/>
      <point x="402" y="449"/>
      <point x="452" y="501"/>
      <point x="452" y="584" type="curve" smooth="yes"/>
      <point x="452" y="726"/>
      <point x="337" y="800"/>
      <point x="159" y="800" type="curve" smooth="yes"/>
    </contour>
    <contour>
      <point x="382" y="584" type="curve" smooth="yes"/>
      <point x="382" y="479"/>
      <point x="293" y="446"/>
      <point x="215" y="445" type="curve"/>
      <point x="215" y="382" type="line"/>
      <point x="305" y="382"/>
      <point x="397" y="332"/>
      <point x="397" y="235" type="curve" smooth="yes"/>
      <point x="397" y="133"/>
      <point x="290" y="72"/>
      <point x="181" y="62" type="curve"/>
      <point x="181" y="740" type="line"/>
      <point x="312" y="736"/>
      <point x="382" y="672"/>
    </contour>
  </outline>
</glyph>
<glyph name="uni1004D" format="2">
  <advance width="777"/>
  <unicode hex="1004D"/>
  <outline>
    <contour>
      <point x="406" y="814" type="line"/>
      <point x="366" y="814" type="line"/>
      <point x="33" y="344" type="line"/>
      <point x="87" y="305" type="line"/>
      <point x="128" y="363" type="line"/>
      <point x="165" y="247"/>
      <point x="213" y="47"/>
      <point x="213" y="0" type="curve"/>
      <point x="274" y="0" type="line"/>
      <point x="326" y="63" type="line" smooth="yes"/>
      <point x="359" y="103"/>
      <point x="370" y="128"/>
      <point x="378" y="157" type="curve"/>
      <point x="382" y="157" type="line"/>
      <point x="388" y="131"/>
      <point x="401" y="101"/>
      <point x="438" y="57" type="curve" smooth="yes"/>
      <point x="486" y="0" type="line"/>
      <point x="545" y="0" type="line"/>
      <point x="545" y="47"/>
      <point x="603" y="250"/>
      <point x="646" y="366" type="curve"/>
      <point x="690" y="305" type="line"/>
      <point x="744" y="344" type="line"/>
    </contour>
    <contour>
      <point x="177" y="432" type="curve"/>
      <point x="334" y="654" type="line" smooth="yes"/>
      <point x="369" y="703"/>
      <point x="385" y="733"/>
      <point x="386" y="734" type="curve"/>
      <point x="387" y="731"/>
      <point x="405" y="699"/>
      <point x="436" y="656" type="curve" smooth="yes"/>
      <point x="598" y="431" type="line"/>
      <point x="563" y="337"/>
      <point x="501" y="114"/>
      <point x="501" y="77" type="curve"/>
      <point x="406" y="210" type="line"/>
      <point x="364" y="210" type="line"/>
      <point x="268" y="82" type="line"/>
      <point x="268" y="124"/>
      <point x="214" y="336"/>
    </contour>
    <contour>
      <point x="502" y="265" type="line"/>
      <point x="502" y="328" type="line"/>
      <point x="277" y="328" type="line"/>
      <point x="277" y="265" type="line"/>
    </contour>
    <contour>
      <point x="502" y="385" type="line"/>
      <point x="502" y="448" type="line"/>
      <point x="277" y="448" type="line"/>
      <point x="277" y="385" type="line"/>
    </contour>
    <contour>
      <point x="472" y="507" type="line"/>
      <point x="472" y="570" type="line"/>
      <point x="307" y="570" type="line"/>
      <point x="307" y="507" type="line"/>
    </contour>
  </outline>
</glyph>
<glyph name="uni10050" format="2">
  <advance width="563"/>
  <unicode hex="10050"/>
  <outline>
    <contour>
      <point x="404" y="295" type="curve"/>
      <point x="404" y="300" type="line"/>
      <point x="422" y="306"/>
      <point x="461" y="325"/>
      <point x="503" y="369" type="curve" smooth="yes"/>
      <point x="526" y="393" type="line"/>
      <point x="483" y="441" type="line"/>
      <point x="377" y="330" type="line"/>
      <point x="318" y="330" type="line"/>
      <point x="318" y="389" type="line"/>
      <point x="357" y="408"/>
      <point x="417" y="455"/>
      <point x="417" y="532" type="curve" smooth="yes"/>
      <point x="417" y="569"/>
      <point x="406" y="613"/>
      <point x="381" y="635" type="curve"/>
      <point x="430" y="776" type="line"/>
      <point x="371" y="794" type="line"/>
      <point x="351" y="725" type="line" smooth="yes"/>
      <point x="343" y="698"/>
      <point x="341" y="678"/>
      <point x="339" y="664" type="curve"/>
      <point x="330" y="668"/>
      <point x="311" y="673"/>
      <point x="301" y="675" type="curve"/>
      <point x="303" y="682"/>
      <point x="309" y="704"/>
      <point x="309" y="722" type="curve" smooth="yes"/>
      <point x="309" y="800" type="line"/>
      <point x="251" y="800" type="line"/>
      <point x="251" y="722" type="line" smooth="yes"/>
      <point x="251" y="704"/>
      <point x="254" y="690"/>
      <point x="258" y="674" type="curve"/>
      <point x="247" y="673"/>
      <point x="227" y="668"/>
      <point x="218" y="664" type="curve"/>
      <point x="217" y="679"/>
      <point x="216" y="693"/>
      <point x="207" y="725" type="curve" smooth="yes"/>
      <point x="187" y="794" type="line"/>
      <point x="128" y="776" type="line"/>
      <point x="177" y="631" type="line"/>
      <point x="159" y="605"/>
      <point x="151" y="566"/>
      <point x="151" y="529" type="curve" smooth="yes"/>
      <point x="151" y="456"/>
      <point x="209" y="409"/>
      <point x="248" y="390" type="curve"/>
      <point x="248" y="330" type="line"/>
      <point x="55" y="330" type="line"/>
      <point x="55" y="267" type="line"/>
      <point x="248" y="267" type="line"/>
      <point x="248" y="0" type="line"/>
      <point x="318" y="0" type="line"/>
      <point x="318" y="267" type="line"/>
      <point x="378" y="267" type="line"/>
      <point x="483" y="157" type="line"/>
      <point x="526" y="205" type="line"/>
      <point x="503" y="229" type="line" smooth="yes"/>
      <point x="461" y="273"/>
      <point x="422" y="289"/>
    </contour>
    <contour>
      <point x="282" y="623" type="curve" smooth="yes"/>
      <point x="327" y="623"/>
      <point x="346" y="582"/>
      <point x="346" y="528" type="curve" smooth="yes"/>
      <point x="346" y="473"/>
      <point x="307" y="432"/>
      <point x="283" y="432" type="curve" smooth="yes"/>
      <point x="259" y="432"/>
      <point x="220" y="473"/>
      <point x="220" y="529" type="curve" smooth="yes"/>
      <point x="220" y="582"/>
      <point x="240" y="623"/>
    </contour>
  </outline>
</glyph>
<glyph name="uni10051" format="2">
  <advance width="607"/>
  <unicode hex="10051"/>
  <outline>
    <contour>
      <point x="273" y="492" type="curve"/>
      <point x="271" y="488" type="line"/>
      <point x="256" y="491"/>
      <point x="221" y="500"/>
      <point x="173" y="500" type="curve" smooth="yes"/>
      <point x="77" y="500" type="line"/>
      <point x="77" y="437" type="line"/>
      <point x="171" y="437" type="line" smooth="yes"/>
      <point x="208" y="437"/>
      <point x="251" y="442"/>
      <point x="268" y="445" type="curve"/>
      <point x="270" y="440" type="line"/>
      <point x="229" y="407"/>
      <point x="190" y="285"/>
      <point x="149" y="0" type="curve"/>
      <point x="457" y="0" type="line"/>
      <point x="408" y="285"/>
      <point x="376" y="404"/>
      <point x="335" y="440" type="curve"/>
      <point x="338" y="445" type="line"/>
      <point x="354" y="442"/>
      <point x="402" y="437"/>
      <point x="449" y="437" type="curve" smooth="yes"/>
      <point x="530" y="437" type="line"/>
      <point x="530" y="500" type="line"/>
      <point x="446" y="500" type="line" smooth="yes"/>
      <point x="396" y="500"/>
      <point x="353" y="487"/>
      <point x="341" y="484" type="curve"/>
      <point x="338" y="489" type="line"/>
      <point x="377" y="512"/>
      <point x="427" y="572"/>
      <point x="427" y="662" type="curve" smooth="yes"/>
      <point x="427" y="735"/>
      <point x="383" y="807"/>
      <point x="305" y="807" type="curve" smooth="yes"/>
      <point x="204" y="807"/>
      <point x="185" y="728"/>
      <point x="185" y="659" type="curve" smooth="yes"/>
      <point x="185" y="570"/>
      <point x="237" y="512"/>
    </contour>
    <contour>
      <point x="302" y="382" type="curve" smooth="yes"/>
      <point x="316" y="382"/>
      <point x="327" y="329"/>
      <point x="376" y="63" type="curve"/>
      <point x="226" y="63" type="line"/>
      <point x="270" y="326"/>
      <point x="287" y="382"/>
    </contour>
    <contour>
      <point x="304" y="750" type="curve" smooth="yes"/>
      <point x="349" y="750"/>
      <point x="355" y="691"/>
      <point x="355" y="652" type="curve" smooth="yes"/>
      <point x="355" y="560"/>
      <point x="329" y="515"/>
      <point x="305" y="515" type="curve" smooth="yes"/>
      <point x="281" y="515"/>
      <point x="255" y="561"/>
      <point x="255" y="652" type="curve" smooth="yes"/>
      <point x="255" y="693"/>
      <point x="262" y="750"/>
    </contour>
  </outline>
</glyph>
<glyph name="uni10052" format="2">
  <advance width="793"/>
  <unicode hex="10052"/>
  <outline>
    <contour>
      <point x="81" y="598" type="line"/>
      <point x="175" y="683" type="line"/>
      <point x="207" y="712"/>
      <point x="222" y="734"/>
      <point x="227" y="743" type="curve"/>
      <point x="231" y="743" type="line"/>
      <point x="236" y="734"/>
      <point x="252" y="711"/>
      <point x="281" y="685" type="curve" smooth="yes"/>
      <point x="378" y="598" type="line"/>
      <point x="426" y="650" type="line"/>
      <point x="254" y="801" type="line"/>
      <point x="205" y="801" type="line"/>
      <point x="33" y="650" type="line"/>
    </contour>
    <contour>
      <point x="511" y="0" type="line"/>
      <point x="511" y="737" type="line"/>
      <point x="650" y="737"/>
      <point x="608" y="573"/>
      <point x="750" y="544" type="curve"/>
      <point x="770" y="603" type="line"/>
      <point x="677" y="623"/>
      <point x="689" y="800"/>
      <point x="511" y="800" type="curve" smooth="yes"/>
      <point x="441" y="800" type="line"/>
      <point x="441" y="0" type="line"/>
    </contour>
  </outline>
</glyph>
<glyph name="uni10053" format="2">
  <advance width="560"/>
  <unicode hex="10053"/>
  <outline>
    <contour>
      <point x="417" y="417" type="curve" smooth="yes"/>
      <point x="417" y="502"/>
      <point x="357" y="560"/>
      <point x="288" y="580" type="curve"/>
      <point x="321" y="661"/>
      <point x="384" y="725"/>
      <point x="472" y="754" type="curve"/>
      <point x="445" y="814" type="line"/>
      <point x="335" y="780"/>
      <point x="261" y="694"/>
      <point x="223" y="587" type="curve"/>
      <point x="137" y="581"/>
      <point x="55" y="519"/>
      <point x="55" y="417" type="curve" smooth="yes"/>
      <point x="55" y="317"/>
      <point x="134" y="255"/>
      <point x="219" y="248" type="curve"/>
      <point x="257" y="134"/>
      <point x="332" y="34"/>
      <point x="427" y="-10" type="curve"/>
      <point x="462" y="46" type="line"/>
      <point x="384" y="83"/>
      <point x="317" y="160"/>
      <point x="284" y="254" type="curve"/>
      <point x="354" y="273"/>
      <point x="417" y="330"/>
    </contour>
    <contour>
      <point x="258" y="407" type="curve" smooth="yes"/>
      <point x="258" y="447"/>
      <point x="263" y="490"/>
      <point x="271" y="527" type="curve"/>
      <point x="317" y="523"/>
      <point x="350" y="476"/>
      <point x="350" y="417" type="curve" smooth="yes"/>
      <point x="350" y="358"/>
      <point x="315" y="311"/>
      <point x="269" y="306" type="curve"/>
      <point x="262" y="337"/>
      <point x="258" y="374"/>
    </contour>
    <contour>
      <point x="121" y="417" type="curve" smooth="yes"/>
      <point x="121" y="479"/>
      <point x="162" y="525"/>
      <point x="211" y="528" type="curve"/>
      <point x="203" y="490"/>
      <point x="198" y="446"/>
      <point x="198" y="407" type="curve" smooth="yes"/>
      <point x="198" y="375"/>
      <point x="202" y="337"/>
      <point x="208" y="305" type="curve"/>
      <point x="155" y="311"/>
      <point x="121" y="357"/>
    </contour>
  </outline>
</glyph>
<glyph name="uni10054" format="2">
  <advance width="804"/>
  <unicode hex="10054"/>
  <outline>
    <contour>
      <point x="483" y="357" type="curve"/>
      <point x="467" y="342"/>
      <point x="428" y="335"/>
      <point x="405" y="335" type="curve" smooth="yes"/>
      <point x="381" y="335"/>
      <point x="341" y="342"/>
      <point x="326" y="357" type="curve"/>
      <point x="345" y="390"/>
      <point x="382" y="443"/>
      <point x="404" y="473" type="curve"/>
      <point x="426" y="443"/>
      <point x="462" y="391"/>
    </contour>
    <contour>
      <point x="435" y="517" type="curve"/>
      <point x="457" y="544"/>
      <point x="495" y="582"/>
      <point x="518" y="607" type="curve"/>
      <point x="530" y="582"/>
      <point x="541" y="551"/>
      <point x="541" y="509" type="curve" smooth="yes"/>
      <point x="541" y="467"/>
      <point x="532" y="430"/>
      <point x="520" y="405" type="curve"/>
      <point x="498" y="438"/>
      <point x="458" y="486"/>
    </contour>
    <contour>
      <point x="324" y="654" type="curve"/>
      <point x="346" y="672"/>
      <point x="380" y="681"/>
      <point x="405" y="681" type="curve" smooth="yes"/>
      <point x="429" y="681"/>
      <point x="464" y="671"/>
      <point x="483" y="654" type="curve"/>
      <point x="461" y="629"/>
      <point x="424" y="587"/>
      <point x="404" y="559" type="curve"/>
      <point x="382" y="586"/>
      <point x="347" y="629"/>
    </contour>
    <contour>
      <point x="270" y="509" type="curve" smooth="yes"/>
      <point x="270" y="552"/>
      <point x="279" y="582"/>
      <point x="290" y="606" type="curve"/>
      <point x="312" y="582"/>
      <point x="351" y="543"/>
      <point x="373" y="517" type="curve"/>
      <point x="350" y="487"/>
      <point x="311" y="439"/>
      <point x="289" y="407" type="curve"/>
      <point x="278" y="431"/>
      <point x="270" y="466"/>
    </contour>
    <contour>
      <point x="562" y="648" type="curve"/>
      <point x="591" y="677"/>
      <point x="631" y="717"/>
      <point x="695" y="772" type="curve"/>
      <point x="646" y="820" type="line"/>
      <point x="604" y="783"/>
      <point x="560" y="743"/>
      <point x="517" y="698" type="curve"/>
      <point x="485" y="723"/>
      <point x="445" y="741"/>
      <point x="404" y="741" type="curve" smooth="yes"/>
      <point x="363" y="741"/>
      <point x="324" y="723"/>
      <point x="291" y="697" type="curve"/>
      <point x="248" y="742"/>
      <point x="204" y="782"/>
      <point x="162" y="819" type="curve"/>
      <point x="113" y="771" type="line"/>
      <point x="172" y="718"/>
      <point x="212" y="680"/>
      <point x="247" y="646" type="curve"/>
      <point x="224" y="610"/>
      <point x="203" y="563"/>
      <point x="203" y="509" type="curve" smooth="yes"/>
      <point x="203" y="448"/>
      <point x="228" y="397"/>
      <point x="256" y="358" type="curve"/>
      <point x="196" y="257"/>
      <point x="142" y="143"/>
      <point x="101" y="18" type="curve"/>
      <point x="166" y="-10" type="line"/>
      <point x="205" y="111"/>
      <point x="252" y="218"/>
      <point x="305" y="312" type="curve"/>
      <point x="335" y="288"/>
      <point x="369" y="276"/>
      <point x="404" y="276" type="curve" smooth="yes"/>
      <point x="439" y="276"/>
      <point x="473" y="289"/>
      <point x="503" y="311" type="curve"/>
      <point x="556" y="217"/>
      <point x="602" y="111"/>
      <point x="642" y="-10" type="curve"/>
      <point x="707" y="18" type="line"/>
      <point x="666" y="142"/>
      <point x="613" y="254"/>
      <point x="553" y="355" type="curve"/>
      <point x="583" y="394"/>
      <point x="609" y="446"/>
      <point x="609" y="509" type="curve" smooth="yes"/>
      <point x="609" y="564"/>
      <point x="589" y="612"/>
    </contour>
  </outline>
</glyph>
<glyph name="uni10055" format="2">
  <advance width="963"/>
  <unicode hex="10055"/>
  <outline>
    <contour>
      <point x="404" y="0" type="line"/>
      <point x="565" y="0" type="line"/>
      <point x="565" y="60" type="line"/>
      <point x="520" y="60" type="line"/>
      <point x="520" y="198" type="line"/>
      <point x="565" y="198" type="line"/>
      <point x="565" y="258" type="line"/>
      <point x="520" y="258" type="line"/>
      <point x="520" y="608" type="line"/>
      <point x="450" y="608" type="line"/>
      <point x="450" y="258" type="line"/>
      <point x="404" y="258" type="line"/>
      <point x="404" y="198" type="line"/>
      <point x="450" y="198" type="line"/>
      <point x="450" y="60" type="line"/>
      <point x="404" y="60" type="line"/>
    </contour>
    <contour>
      <point x="255" y="262" type="line"/>
      <point x="311" y="608" type="line"/>
      <point x="245" y="615" type="line"/>
      <point x="186" y="270" type="line"/>
      <point x="138" y="275" type="line"/>
      <point x="130" y="215" type="line"/>
      <point x="176" y="210" type="line"/>
      <point x="152" y="71" type="line"/>
      <point x="105" y="76" type="line"/>
      <point x="97" y="16" type="line"/>
      <point x="259" y="0" type="line"/>
      <point x="265" y="59" type="line"/>
      <point x="223" y="63" type="line"/>
      <point x="245" y="203" type="line"/>
      <point x="290" y="199" type="line"/>
      <point x="298" y="258" type="line"/>
    </contour>
    <contour>
      <point x="725" y="618" type="line"/>
      <point x="660" y="608" type="line"/>
      <point x="714" y="263" type="line"/>
      <point x="667" y="258" type="line"/>
      <point x="674" y="199" type="line"/>
      <point x="723" y="204" type="line"/>
      <point x="745" y="64" type="line"/>
      <point x="698" y="59" type="line"/>
      <point x="704" y="0" type="line"/>
      <point x="864" y="16" type="line"/>
      <point x="858" y="76" type="line"/>
      <point x="813" y="71" type="line"/>
      <point x="791" y="210" type="line"/>
      <point x="834" y="215" type="line"/>
      <point x="827" y="275" type="line"/>
      <point x="781" y="270" type="line"/>
    </contour>
    <contour>
      <point x="633" y="747" type="curve" smooth="yes"/>
      <point x="697" y="747"/>
      <point x="730" y="710"/>
      <point x="748" y="657" type="curve"/>
      <point x="813" y="677" type="line"/>
      <point x="782" y="757"/>
      <point x="727" y="810"/>
      <point x="633" y="810" type="curve" smooth="yes"/>
      <point x="562" y="810"/>
      <point x="510" y="784"/>
      <point x="485" y="725" type="curve"/>
      <point x="463" y="782"/>
      <point x="407" y="810"/>
      <point x="337" y="810" type="curve" smooth="yes"/>
      <point x="243" y="810"/>
      <point x="188" y="757"/>
      <point x="157" y="677" type="curve"/>
      <point x="222" y="657" type="line"/>
      <point x="240" y="710"/>
      <point x="273" y="747"/>
      <point x="337" y="747" type="curve" smooth="yes"/>
      <point x="412" y="747"/>
      <point x="440" y="711"/>
      <point x="448" y="662" type="curve"/>
      <point x="522" y="662" type="line"/>
      <point x="530" y="711"/>
      <point x="557" y="747"/>
    </contour>
  </outline>
</glyph>
<glyph name="uni10056" format="2">
  <advance width="703"/>
  <unicode hex="10056"/>
  <outline>
    <contour>
      <point x="592" y="0" type="line"/>
      <point x="592" y="800" type="line"/>
      <point x="522" y="800" type="line"/>
      <point x="522" y="0" type="line"/>
    </contour>
    <contour>
      <point x="444" y="545" type="line"/>
      <point x="444" y="608" type="line"/>
      <point x="259" y="608" type="line"/>
      <point x="259" y="545" type="line"/>
    </contour>
    <contour>
      <point x="444" y="245" type="line"/>
      <point x="444" y="308" type="line"/>
      <point x="259" y="308" type="line"/>
      <point x="259" y="245" type="line"/>
    </contour>
    <contour>
      <point x="444" y="395" type="line"/>
      <point x="444" y="458" type="line"/>
      <point x="259" y="458" type="line"/>
      <point x="259" y="395" type="line"/>
    </contour>
    <contour>
      <point x="181" y="0" type="line"/>
      <point x="181" y="800" type="line"/>
      <point x="111" y="800" type="line"/>
      <point x="111" y="0" type="line"/>
    </contour>
  </outline>
</glyph>
<glyph name="uni10057" format="2">
  <advance width="891"/>
  <unicode hex="10057"/>
  <outline>
    <contour>
      <point x="360" y="800" type="curve"/>
      <point x="360" y="736" type="line"/>
      <point x="499" y="736"/>
      <point x="455" y="544"/>
      <point x="609" y="544" type="curve"/>
      <point x="609" y="328" type="line"/>
      <point x="430" y="328" type="line"/>
      <point x="430" y="700" type="line"/>
      <point x="360" y="700" type="line"/>
      <point x="360" y="608" type="line"/>
      <point x="266" y="608"/>
      <point x="289" y="800"/>
      <point x="111" y="800" type="curve"/>
      <point x="111" y="736" type="line"/>
      <point x="250" y="736"/>
      <point x="206" y="544"/>
      <point x="360" y="544" type="curve"/>
      <point x="360" y="328" type="line"/>
      <point x="181" y="328" type="line"/>
      <point x="181" y="700" type="line"/>
      <point x="111" y="700" type="line"/>
      <point x="111" y="0" type="line"/>
      <point x="676" y="0" type="line"/>
      <point x="676" y="700" type="line"/>
      <point x="609" y="700" type="line"/>
      <point x="609" y="608" type="line"/>
      <point x="515" y="608"/>
      <point x="538" y="800"/>
    </contour>
    <contour>
      <point x="609" y="63" type="line"/>
      <point x="430" y="63" type="line"/>
      <point x="430" y="265" type="line"/>
      <point x="609" y="265" type="line"/>
    </contour>
    <contour>
      <point x="181" y="63" type="line"/>
      <point x="181" y="265" type="line"/>
      <point x="360" y="265" type="line"/>
      <point x="360" y="63" type="line"/>
    </contour>
    <contour>
      <point x="609" y="800" type="curve"/>
      <point x="609" y="736" type="line"/>
      <point x="748" y="736"/>
      <point x="704" y="544"/>
      <point x="858" y="544" type="curve"/>
      <point x="858" y="608" type="line"/>
      <point x="764" y="608"/>
      <point x="787" y="800"/>
    </contour>
  </outline>
</glyph>
<glyph name="uni10058" format="2">
  <advance width="923"/>
  <unicode hex="10058"/>
  <outline>
    <contour>
      <point x="670" y="193" type="line"/>
      <point x="670" y="256" type="line"/>
      <point x="639" y="256" type="line"/>
      <point x="536" y="367" type="line" smooth="yes"/>
      <point x="523" y="381"/>
      <point x="506" y="395"/>
      <point x="498" y="403" type="curve"/>
      <point x="508" y="411"/>
      <point x="522" y="424"/>
      <point x="534" y="437" type="curve" smooth="yes"/>
      <point x="635" y="545" type="line"/>
      <point x="670" y="545" type="line"/>
      <point x="670" y="608" type="line"/>
      <point x="244" y="608" type="line"/>
      <point x="244" y="545" type="line"/>
      <point x="278" y="545" type="line"/>
      <point x="379" y="436" type="line" smooth="yes"/>
      <point x="391" y="423"/>
      <point x="401" y="413"/>
      <point x="414" y="403" type="curve"/>
      <point x="403" y="394"/>
      <point x="389" y="381"/>
      <point x="379" y="370" type="curve" smooth="yes"/>
      <point x="273" y="256" type="line"/>
      <point x="244" y="256" type="line"/>
      <point x="244" y="193" type="line"/>
    </contour>
    <contour>
      <point x="812" y="800" type="line"/>
      <point x="611" y="800" type="line"/>
      <point x="611" y="737" type="line"/>
      <point x="742" y="737" type="line"/>
      <point x="742" y="63" type="line"/>
      <point x="611" y="63" type="line"/>
      <point x="611" y="0" type="line"/>
      <point x="812" y="0" type="line"/>
    </contour>
    <contour>
      <point x="312" y="800" type="line"/>
      <point x="111" y="800" type="line"/>
      <point x="111" y="0" type="line"/>
      <point x="312" y="0" type="line"/>
      <point x="312" y="63" type="line"/>
      <point x="181" y="63" type="line"/>
      <point x="181" y="737" type="line"/>
      <point x="312" y="737" type="line"/>
    </contour>
    <contour>
      <point x="512" y="256" type="curve" smooth="yes"/>
      <point x="400" y="256" type="line" smooth="yes"/>
      <point x="381" y="256"/>
      <point x="362" y="256"/>
      <point x="352" y="254" type="curve"/>
      <point x="350" y="257" type="line"/>
      <point x="366" y="268"/>
      <point x="379" y="280"/>
      <point x="400" y="301" type="curve" smooth="yes"/>
      <point x="415" y="316" type="line" smooth="yes"/>
      <point x="432" y="333"/>
      <point x="447" y="359"/>
      <point x="453" y="375" type="curve"/>
      <point x="457" y="375" type="line"/>
      <point x="462" y="359"/>
      <point x="478" y="336"/>
      <point x="497" y="316" type="curve" smooth="yes"/>
      <point x="512" y="301" type="line" smooth="yes"/>
      <point x="533" y="280"/>
      <point x="546" y="268"/>
      <point x="562" y="257" type="curve"/>
      <point x="560" y="254" type="line"/>
      <point x="550" y="256"/>
      <point x="531" y="256"/>
    </contour>
    <contour>
      <point x="401" y="545" type="curve" smooth="yes"/>
      <point x="511" y="545" type="line" smooth="yes"/>
      <point x="530" y="545"/>
      <point x="546" y="545"/>
      <point x="557" y="547" type="curve"/>
      <point x="558" y="544" type="line"/>
      <point x="544" y="537"/>
      <point x="534" y="527"/>
      <point x="512" y="505" type="curve" smooth="yes"/>
      <point x="493" y="486" type="line" smooth="yes"/>
      <point x="477" y="470"/>
      <point x="463" y="444"/>
      <point x="458" y="433" type="curve"/>
      <point x="454" y="433" type="line"/>
      <point x="449" y="444"/>
      <point x="432" y="471"/>
      <point x="415" y="489" type="curve" smooth="yes"/>
      <point x="400" y="505" type="line" smooth="yes"/>
      <point x="379" y="527"/>
      <point x="368" y="537"/>
      <point x="354" y="544" type="curve"/>
      <point x="355" y="547" type="line"/>
      <point x="366" y="545"/>
      <point x="382" y="545"/>
    </contour>
  </outline>
</glyph>
<glyph name="uni10059" format="2">
  <advance width="871"/>
  <unicode hex="10059"/>
  <outline>
    <contour>
      <point x="186" y="332" type="line"/>
      <point x="142" y="377" type="line"/>
      <point x="11" y="246" type="line"/>
      <point x="56" y="202" type="line"/>
    </contour>
    <contour>
      <point x="399" y="120" type="line"/>
      <point x="354" y="165" type="line"/>
      <point x="223" y="34" type="line"/>
      <point x="268" y="-10" type="line"/>
    </contour>
    <contour>
      <point x="292" y="226" type="line"/>
      <point x="248" y="271" type="line"/>
      <point x="117" y="140" type="line"/>
      <point x="162" y="96" type="line"/>
    </contour>
    <contour>
      <point x="648" y="767" type="line"/>
      <point x="603" y="811" type="line"/>
      <point x="472" y="681" type="line"/>
      <point x="517" y="636" type="line"/>
    </contour>
    <contour>
      <point x="860" y="555" type="line"/>
      <point x="815" y="599" type="line"/>
      <point x="685" y="469" type="line"/>
      <point x="729" y="424" type="line"/>
    </contour>
    <contour>
      <point x="754" y="661" type="line"/>
      <point x="709" y="705" type="line"/>
      <point x="579" y="575" type="line"/>
      <point x="623" y="530" type="line"/>
    </contour>
    <contour>
      <point x="230" y="540" type="curve"/>
      <point x="230" y="583"/>
      <point x="258" y="615"/>
      <point x="299" y="615" type="curve" smooth="yes"/>
      <point x="435" y="615"/>
      <point x="643" y="408"/>
      <point x="643" y="265" type="curve" smooth="yes"/>
      <point x="643" y="221"/>
      <point x="615" y="190"/>
      <point x="574" y="190" type="curve" smooth="yes"/>
      <point x="438" y="190"/>
      <point x="230" y="397"/>
    </contour>
    <contour>
      <point x="160" y="540" type="curve"/>
      <point x="160" y="369"/>
      <point x="394" y="126"/>
      <point x="574" y="126" type="curve" smooth="yes"/>
      <point x="665" y="126"/>
      <point x="713" y="188"/>
      <point x="713" y="265" type="curve" smooth="yes"/>
      <point x="713" y="436"/>
      <point x="478" y="679"/>
      <point x="299" y="679" type="curve" smooth="yes"/>
      <point x="208" y="679"/>
      <point x="160" y="635"/>
    </contour>
  </outline>
</glyph>
<glyph name="uni1005A" format="2">
  <advance width="650"/>
  <unicode hex="1005A"/>
  <outline>
    <contour>
      <point x="78" y="810" type="curve"/>
      <point x="63" y="745" type="line"/>
      <point x="217" y="715"/>
      <point x="301" y="680"/>
      <point x="301" y="584" type="curve" smooth="yes"/>
      <point x="301" y="479"/>
      <point x="212" y="446"/>
      <point x="134" y="445" type="curve"/>
      <point x="134" y="382" type="line"/>
      <point x="224" y="382"/>
      <point x="316" y="332"/>
      <point x="316" y="235" type="curve" smooth="yes"/>
      <point x="316" y="121"/>
      <point x="203" y="87"/>
      <point x="55" y="56" type="curve"/>
      <point x="69" y="-11" type="line"/>
      <point x="195" y="14"/>
      <point x="386" y="74"/>
      <point x="386" y="235" type="curve" smooth="yes"/>
      <point x="386" y="354"/>
      <point x="313" y="398"/>
      <point x="251" y="419" type="curve"/>
      <point x="321" y="449"/>
      <point x="371" y="501"/>
      <point x="371" y="584" type="curve" smooth="yes"/>
      <point x="371" y="726"/>
      <point x="251" y="767"/>
    </contour>
    <contour>
      <point x="581" y="520" type="curve"/>
      <point x="594" y="580" type="line"/>
      <point x="537" y="585"/>
      <point x="507" y="592"/>
      <point x="507" y="612" type="curve" smooth="yes"/>
      <point x="507" y="643"/>
      <point x="588" y="669"/>
      <point x="588" y="725" type="curve" smooth="yes"/>
      <point x="588" y="776"/>
      <point x="553" y="796"/>
      <point x="453" y="811" type="curve"/>
      <point x="437" y="751" type="line"/>
      <point x="496" y="745"/>
      <point x="522" y="735"/>
      <point x="522" y="715" type="curve" smooth="yes"/>
      <point x="522" y="691"/>
      <point x="440" y="652"/>
      <point x="440" y="596" type="curve" smooth="yes"/>
      <point x="440" y="554"/>
      <point x="468" y="524"/>
    </contour>
    <contour>
      <point x="581" y="220" type="curve"/>
      <point x="594" y="280" type="line"/>
      <point x="537" y="285"/>
      <point x="507" y="292"/>
      <point x="507" y="312" type="curve" smooth="yes"/>
      <point x="507" y="343"/>
      <point x="588" y="369"/>
      <point x="588" y="425" type="curve" smooth="yes"/>
      <point x="588" y="476"/>
      <point x="553" y="496"/>
      <point x="453" y="511" type="curve"/>
      <point x="437" y="451" type="line"/>
      <point x="496" y="445"/>
      <point x="522" y="435"/>
      <point x="522" y="415" type="curve" smooth="yes"/>
      <point x="522" y="391"/>
      <point x="440" y="352"/>
      <point x="440" y="296" type="curve" smooth="yes"/>
      <point x="440" y="254"/>
      <point x="468" y="224"/>
    </contour>
  </outline>
</glyph>
<glyph name="uni1005B" format="2">
  <advance width="769"/>
  <unicode hex="1005B"/>
  <outline>
    <contour>
      <point x="278" y="250" type="line"/>
      <point x="278" y="187" type="line"/>
      <point x="461" y="187" type="line" smooth="yes"/>
      <point x="488" y="187"/>
      <point x="494" y="171"/>
      <point x="494" y="143" type="curve" smooth="yes"/>
      <point x="494" y="0" type="line"/>
      <point x="561" y="0" type="line"/>
      <point x="561" y="143" type="line" smooth="yes"/>
      <point x="561" y="227"/>
      <point x="534" y="250"/>
      <point x="461" y="250" type="curve" smooth="yes"/>
    </contour>
    <contour>
      <point x="343" y="370" type="line"/>
      <point x="343" y="636" type="line"/>
      <point x="413" y="636" type="line"/>
      <point x="413" y="370" type="line"/>
    </contour>
    <contour>
      <point x="121" y="526" type="line"/>
      <point x="226" y="636" type="line"/>
      <point x="278" y="636" type="line"/>
      <point x="278" y="370" type="line"/>
      <point x="66" y="370" type="line"/>
      <point x="66" y="307" type="line"/>
      <point x="481" y="307" type="line" smooth="yes"/>
      <point x="575" y="307"/>
      <point x="614" y="266"/>
      <point x="614" y="143" type="curve" smooth="yes"/>
      <point x="614" y="0" type="line"/>
      <point x="681" y="0" type="line"/>
      <point x="681" y="143" type="line" smooth="yes"/>
      <point x="681" y="339"/>
      <point x="614" y="370"/>
      <point x="478" y="370" type="curve"/>
      <point x="478" y="636" type="line"/>
      <point x="533" y="636" type="line"/>
      <point x="638" y="526" type="line"/>
      <point x="681" y="574" type="line"/>
      <point x="658" y="598" type="line" smooth="yes"/>
      <point x="616" y="642"/>
      <point x="584" y="664"/>
      <point x="559" y="664" type="curve"/>
      <point x="559" y="669" type="line"/>
      <point x="585" y="669"/>
      <point x="616" y="694"/>
      <point x="658" y="738" type="curve" smooth="yes"/>
      <point x="681" y="762" type="line"/>
      <point x="638" y="810" type="line"/>
      <point x="532" y="699" type="line"/>
      <point x="227" y="699" type="line"/>
      <point x="121" y="810" type="line"/>
      <point x="78" y="762" type="line"/>
      <point x="101" y="738" type="line" smooth="yes"/>
      <point x="143" y="694"/>
      <point x="174" y="669"/>
      <point x="200" y="669" type="curve"/>
      <point x="200" y="664" type="line"/>
      <point x="174" y="664"/>
      <point x="143" y="642"/>
      <point x="101" y="598" type="curve" smooth="yes"/>
      <point x="78" y="574" type="line"/>
    </contour>
  </outline>
</glyph>
<glyph name="uni1005C" format="2">
  <advance width="950"/>
  <unicode hex="1005C"/>
  <outline>
    <contour>
      <point x="917" y="290" type="line"/>
      <point x="872" y="335" type="line"/>
      <point x="813" y="266" type="line"/>
      <point x="311" y="266" type="line"/>
      <point x="178" y="399" type="line"/>
      <point x="178" y="800" type="line"/>
      <point x="111" y="800" type="line"/>
      <point x="111" y="0" type="line"/>
      <point x="665" y="0" type="line"/>
    </contour>
    <contour>
      <point x="354" y="63" type="line"/>
      <point x="354" y="203" type="line"/>
      <point x="674" y="203" type="line" smooth="yes"/>
      <point x="730" y="203"/>
      <point x="749" y="207"/>
      <point x="759" y="212" type="curve"/>
      <point x="762" y="209" type="line"/>
      <point x="635" y="63" type="line"/>
    </contour>
    <contour>
      <point x="216" y="271" type="curve" smooth="yes"/>
      <point x="284" y="203" type="line"/>
      <point x="284" y="63" type="line"/>
      <point x="178" y="63" type="line"/>
      <point x="178" y="319" type="line"/>
      <point x="181" y="320" type="line"/>
      <point x="186" y="312"/>
      <point x="199" y="288"/>
    </contour>
  </outline>
</glyph>
<glyph name="uni1005D" format="2">
  <advance width="772"/>
  <unicode hex="1005D"/>
  <outline>
    <contour>
      <point x="130" y="508" type="line"/>
      <point x="130" y="89" type="line"/>
      <point x="97" y="73"/>
      <point x="64" y="65"/>
      <point x="33" y="60" type="curve"/>
      <point x="51" y="-8" type="line"/>
      <point x="195" y="15"/>
      <point x="377" y="169"/>
      <point x="382" y="332" type="curve"/>
      <point x="386" y="332" type="line"/>
      <point x="390" y="168"/>
      <point x="584" y="14"/>
      <point x="721" y="-8" type="curve"/>
      <point x="739" y="60" type="line"/>
      <point x="708" y="65"/>
      <point x="677" y="71"/>
      <point x="647" y="85" type="curve"/>
      <point x="647" y="508" type="line"/>
      <point x="421" y="508" type="line"/>
      <point x="421" y="737" type="line"/>
      <point x="564" y="737" type="line"/>
      <point x="564" y="800" type="line"/>
      <point x="209" y="800" type="line"/>
      <point x="209" y="737" type="line"/>
      <point x="351" y="737" type="line"/>
      <point x="351" y="508" type="line"/>
    </contour>
    <contour>
      <point x="423" y="445" type="curve"/>
      <point x="577" y="445" type="line"/>
      <point x="577" y="127" type="line"/>
      <point x="496" y="190"/>
      <point x="434" y="296"/>
    </contour>
    <contour>
      <point x="197" y="133" type="curve"/>
      <point x="197" y="445" type="line"/>
      <point x="348" y="445" type="line"/>
      <point x="336" y="301"/>
      <point x="274" y="196"/>
    </contour>
  </outline>
</glyph>
<glyph name="uni10080" format="2">
  <advance width="607"/>
  <unicode hex="10080"/>
  <outline>
    <contour>
      <point x="129" y="0" type="curve"/>
      <point x="196" y="0" type="line"/>
      <point x="213" y="170"/>
      <point x="277" y="490"/>
      <point x="302" y="490" type="curve" smooth="yes"/>
      <point x="325" y="490"/>
      <point x="391" y="169"/>
      <point x="408" y="0" type="curve"/>
      <point x="477" y="0" type="line"/>
      <point x="472" y="61"/>
      <point x="457" y="173"/>
      <point x="434" y="273" type="curve" smooth="yes"/>
      <point x="393" y="454"/>
      <point x="367" y="530"/>
      <point x="333" y="548" type="curve"/>
      <point x="336" y="553" type="line"/>
      <point x="352" y="550"/>
      <point x="405" y="545"/>
      <point x="452" y="545" type="curve" smooth="yes"/>
      <point x="530" y="545" type="line"/>
      <point x="530" y="608" type="line"/>
      <point x="338" y="608" type="line"/>
      <point x="338" y="797" type="line"/>
      <point x="268" y="797" type="line"/>
      <point x="268" y="608" type="line"/>
      <point x="77" y="608" type="line"/>
      <point x="77" y="545" type="line"/>
      <point x="169" y="545" type="line" smooth="yes"/>
      <point x="206" y="545"/>
      <point x="254" y="550"/>
      <point x="271" y="553" type="curve"/>
      <point x="273" y="548" type="line"/>
      <point x="243" y="531"/>
      <point x="216" y="453"/>
      <point x="177" y="278" type="curve" smooth="yes"/>
      <point x="153" y="169"/>
      <point x="135" y="58"/>
    </contour>
  </outline>
</glyph>
<glyph name="uni10081" format="2">
  <advance width="607"/>
  <unicode hex="10081"/>
  <outline>
    <contour>
      <point x="277" y="553" type="curve"/>
      <point x="279" y="548" type="line"/>
      <point x="210" y="504"/>
      <point x="114" y="129"/>
      <point x="99" y="6" type="curve"/>
      <point x="94" y="0" type="line"/>
      <point x="513" y="0" type="line"/>
      <point x="506" y="8" type="line"/>
      <point x="494" y="136"/>
      <point x="395" y="502"/>
      <point x="330" y="548" type="curve"/>
      <point x="333" y="553" type="line"/>
      <point x="349" y="550"/>
      <point x="402" y="545"/>
      <point x="449" y="545" type="curve" smooth="yes"/>
      <point x="530" y="545" type="line"/>
      <point x="530" y="608" type="line"/>
      <point x="77" y="608" type="line"/>
      <point x="77" y="545" type="line"/>
      <point x="176" y="545" type="line" smooth="yes"/>
      <point x="213" y="545"/>
      <point x="260" y="550"/>
    </contour>
    <contour>
      <point x="304" y="490" type="curve" smooth="yes"/>
      <point x="326" y="490"/>
      <point x="401" y="238"/>
      <point x="429" y="63" type="curve"/>
      <point x="174" y="63" type="line"/>
      <point x="203" y="238"/>
      <point x="278" y="490"/>
    </contour>
    <contour>
      <point x="357" y="756" type="curve"/>
      <point x="355" y="810" type="line"/>
      <point x="282" y="810"/>
      <point x="224" y="777"/>
      <point x="224" y="720" type="curve" smooth="yes"/>
      <point x="224" y="663"/>
      <point x="282" y="630"/>
      <point x="355" y="630" type="curve"/>
      <point x="357" y="683" type="line"/>
      <point x="320" y="683"/>
      <point x="282" y="696"/>
      <point x="282" y="720" type="curve" smooth="yes"/>
      <point x="282" y="744"/>
      <point x="320" y="756"/>
    </contour>
    <contour>
      <point x="119" y="500" type="line"/>
      <point x="119" y="429" type="line"/>
      <point x="181" y="429" type="line"/>
      <point x="181" y="500" type="line"/>
    </contour>
    <contour>
      <point x="430" y="500" type="line"/>
      <point x="430" y="429" type="line"/>
      <point x="492" y="429" type="line"/>
      <point x="492" y="500" type="line"/>
    </contour>
  </outline>
</glyph>
<glyph name="uni10082" format="2">
  <advance width="1063"/>
  <unicode hex="10082"/>
  <outline>
    <contour>
      <point x="97" y="532" type="curve"/>
      <point x="97" y="461"/>
      <point x="141" y="391"/>
      <point x="202" y="391" type="curve" smooth="yes"/>
      <point x="209" y="391" type="line"/>
      <point x="156" y="272"/>
      <point x="134" y="127"/>
      <point x="128" y="0" type="curve"/>
      <point x="414" y="0" type="line"/>
      <point x="385" y="63" type="line"/>
      <point x="197" y="63" type="line"/>
      <point x="227" y="416"/>
      <point x="376" y="582"/>
      <point x="561" y="582" type="curve" smooth="yes"/>
      <point x="692" y="582"/>
      <point x="753" y="494"/>
      <point x="817" y="470" type="curve" smooth="yes"/>
      <point x="891" y="442"/>
      <point x="963" y="436"/>
      <point x="963" y="380" type="curve" smooth="yes"/>
      <point x="963" y="333"/>
      <point x="898" y="328"/>
      <point x="830" y="323" type="curve" smooth="yes"/>
      <point x="750" y="317"/>
      <point x="714" y="288"/>
      <point x="651" y="288" type="curve" smooth="yes"/>
      <point x="572" y="288"/>
      <point x="505" y="318"/>
      <point x="480" y="338" type="curve"/>
      <point x="447" y="308" type="line"/>
      <point x="495" y="164"/>
      <point x="513" y="94"/>
      <point x="522" y="0" type="curve"/>
      <point x="584" y="0" type="line"/>
      <point x="581" y="58"/>
      <point x="560" y="153"/>
      <point x="533" y="251" type="curve"/>
      <point x="567" y="237"/>
      <point x="610" y="226"/>
      <point x="657" y="226" type="curve" smooth="yes"/>
      <point x="706" y="226"/>
      <point x="783" y="265"/>
      <point x="839" y="265" type="curve" smooth="yes"/>
      <point x="995" y="265"/>
      <point x="1023" y="330"/>
      <point x="1023" y="387" type="curve" smooth="yes"/>
      <point x="1023" y="458"/>
      <point x="965" y="483"/>
      <point x="866" y="514" type="curve" smooth="yes"/>
      <point x="770" y="544"/>
      <point x="716" y="644"/>
      <point x="561" y="644" type="curve" smooth="yes"/>
      <point x="544" y="644"/>
      <point x="529" y="643"/>
      <point x="513" y="641" type="curve"/>
      <point x="601" y="720" type="line" smooth="yes"/>
      <point x="634" y="749"/>
      <point x="645" y="775"/>
      <point x="645" y="814" type="curve" smooth="yes"/>
      <point x="645" y="847"/>
      <point x="626" y="891"/>
      <point x="584" y="927" type="curve"/>
      <point x="526" y="897" type="line"/>
      <point x="560" y="862"/>
      <point x="575" y="834"/>
      <point x="575" y="810" type="curve" smooth="yes"/>
      <point x="575" y="787"/>
      <point x="565" y="770"/>
      <point x="546" y="753" type="curve" smooth="yes"/>
      <point x="518" y="727" type="line"/>
      <point x="514" y="746"/>
      <point x="505" y="770"/>
      <point x="490" y="798" type="curve"/>
      <point x="433" y="770" type="line"/>
      <point x="452" y="746"/>
      <point x="458" y="723"/>
      <point x="458" y="704" type="curve" smooth="yes"/>
      <point x="458" y="686"/>
      <point x="454" y="676"/>
      <point x="445" y="662" type="curve"/>
      <point x="427" y="646" type="line"/>
      <point x="423" y="665"/>
      <point x="414" y="686"/>
      <point x="401" y="712" type="curve"/>
      <point x="344" y="683" type="line"/>
      <point x="362" y="660"/>
      <point x="369" y="637"/>
      <point x="369" y="618" type="curve" smooth="yes"/>
      <point x="369" y="608"/>
      <point x="367" y="599"/>
      <point x="364" y="591" type="curve"/>
      <point x="359" y="586"/>
      <point x="354" y="582"/>
      <point x="349" y="577" type="curve"/>
      <point x="337" y="569"/>
      <point x="327" y="560"/>
      <point x="316" y="550" type="curve"/>
      <point x="245" y="613" type="line"/>
      <point x="240" y="624"/>
      <point x="238" y="632"/>
      <point x="238" y="644" type="curve" smooth="yes"/>
      <point x="238" y="663"/>
      <point x="245" y="686"/>
      <point x="265" y="711" type="curve"/>
      <point x="207" y="739" type="line"/>
      <point x="193" y="713"/>
      <point x="185" y="690"/>
      <point x="179" y="672" type="curve"/>
      <point x="151" y="701" type="line" smooth="yes"/>
      <point x="141" y="711"/>
      <point x="131" y="729"/>
      <point x="131" y="754" type="curve" smooth="yes"/>
      <point x="131" y="778"/>
      <point x="141" y="809"/>
      <point x="174" y="842" type="curve"/>
      <point x="116" y="872" type="line"/>
      <point x="74" y="824"/>
      <point x="59" y="784"/>
      <point x="59" y="751" type="curve" smooth="yes"/>
      <point x="59" y="713"/>
      <point x="76" y="683"/>
      <point x="96" y="665" type="curve" smooth="yes"/>
      <point x="204" y="564" type="line"/>
      <point x="159" y="561"/>
      <point x="112" y="545"/>
    </contour>
    <contour>
      <point x="520" y="499" type="curve" smooth="yes"/>
      <point x="520" y="473"/>
      <point x="541" y="452"/>
      <point x="567" y="452" type="curve" smooth="yes"/>
      <point x="594" y="452"/>
      <point x="615" y="473"/>
      <point x="615" y="499" type="curve" smooth="yes"/>
      <point x="615" y="526"/>
      <point x="594" y="547"/>
      <point x="567" y="547" type="curve" smooth="yes"/>
      <point x="541" y="547"/>
      <point x="520" y="526"/>
    </contour>
    <contour>
      <point x="259" y="491" type="curve" smooth="yes"/>
      <point x="259" y="487"/>
      <point x="259" y="484"/>
      <point x="258" y="481" type="curve"/>
      <point x="253" y="475"/>
      <point x="249" y="467"/>
      <point x="245" y="461" type="curve"/>
      <point x="235" y="452"/>
      <point x="222" y="447"/>
      <point x="210" y="447" type="curve" smooth="yes"/>
      <point x="179" y="447"/>
      <point x="157" y="475"/>
      <point x="150" y="500" type="curve"/>
      <point x="168" y="509"/>
      <point x="188" y="513"/>
      <point x="206" y="513" type="curve" smooth="yes"/>
      <point x="223" y="513"/>
      <point x="259" y="511"/>
    </contour>
  </outline>
</glyph>
<glyph name="uni10083" format="2">
  <advance width="1233"/>
  <unicode hex="10083"/>
  <outline>
    <contour>
      <point x="703" y="551" type="curve"/>
      <point x="635" y="528" type="line"/>
      <point x="644" y="501"/>
      <point x="662" y="460"/>
      <point x="699" y="460" type="curve" smooth="yes"/>
      <point x="717" y="460"/>
      <point x="741" y="471"/>
      <point x="772" y="500" type="curve"/>
      <point x="727" y="516"/>
      <point x="710" y="530"/>
    </contour>
    <contour>
      <point x="646" y="683" type="curve" smooth="yes"/>
      <point x="646" y="668"/>
      <point x="633" y="657"/>
      <point x="614" y="657" type="curve" smooth="yes"/>
      <point x="578" y="657"/>
      <point x="561" y="690"/>
      <point x="561" y="719" type="curve" smooth="yes"/>
      <point x="561" y="733"/>
      <point x="565" y="748"/>
      <point x="573" y="760" type="curve"/>
      <point x="615" y="746"/>
      <point x="646" y="703"/>
    </contour>
    <contour>
      <point x="448" y="644" type="curve" smooth="yes"/>
      <point x="448" y="633"/>
      <point x="439" y="618"/>
      <point x="417" y="618" type="curve" smooth="yes"/>
      <point x="380" y="618"/>
      <point x="364" y="651"/>
      <point x="364" y="679" type="curve" smooth="yes"/>
      <point x="364" y="693"/>
      <point x="368" y="708"/>
      <point x="375" y="721" type="curve"/>
      <point x="417" y="707"/>
      <point x="448" y="664"/>
    </contour>
    <contour>
      <point x="630" y="439" type="curve"/>
      <point x="598" y="439"/>
      <point x="581" y="400"/>
      <point x="581" y="344" type="curve" smooth="yes"/>
      <point x="581" y="326"/>
      <point x="582" y="309"/>
      <point x="586" y="285" type="curve" smooth="yes"/>
      <point x="594" y="235"/>
      <point x="622" y="117"/>
      <point x="682" y="0" type="curve"/>
      <point x="756" y="0" type="line"/>
      <point x="717" y="75"/>
      <point x="685" y="169"/>
      <point x="666" y="234" type="curve"/>
      <point x="669" y="235" type="line"/>
      <point x="689" y="199"/>
      <point x="732" y="193"/>
      <point x="786" y="193" type="curve" smooth="yes"/>
      <point x="831" y="193"/>
      <point x="855" y="193"/>
      <point x="887" y="199" type="curve"/>
      <point x="975" y="142"/>
      <point x="1017" y="120"/>
      <point x="1045" y="120" type="curve" smooth="yes"/>
      <point x="1060" y="120"/>
      <point x="1074" y="125"/>
      <point x="1087" y="135" type="curve"/>
      <point x="1093" y="132"/>
      <point x="1099" y="130"/>
      <point x="1106" y="130" type="curve" smooth="yes"/>
      <point x="1146" y="130"/>
      <point x="1200" y="186"/>
      <point x="1200" y="243" type="curve" smooth="yes"/>
      <point x="1200" y="284"/>
      <point x="879" y="615"/>
      <point x="683" y="659" type="curve"/>
      <point x="690" y="669"/>
      <point x="700" y="680"/>
      <point x="700" y="691" type="curve" smooth="yes"/>
      <point x="700" y="751"/>
      <point x="596" y="817"/>
      <point x="559" y="820" type="curve"/>
      <point x="515" y="783"/>
      <point x="508" y="741"/>
      <point x="508" y="712" type="curve" smooth="yes"/>
      <point x="508" y="686"/>
      <point x="519" y="667"/>
      <point x="535" y="653" type="curve"/>
      <point x="523" y="651"/>
      <point x="512" y="649"/>
      <point x="501" y="646" type="curve"/>
      <point x="502" y="648"/>
      <point x="502" y="650"/>
      <point x="502" y="652" type="curve" smooth="yes"/>
      <point x="502" y="712"/>
      <point x="398" y="778"/>
      <point x="361" y="781" type="curve"/>
      <point x="317" y="744"/>
      <point x="310" y="702"/>
      <point x="310" y="673" type="curve" smooth="yes"/>
      <point x="310" y="615"/>
      <point x="342" y="588"/>
      <point x="387" y="582" type="curve"/>
      <point x="364" y="561"/>
      <point x="342" y="535"/>
      <point x="321" y="502" type="curve"/>
      <point x="293" y="524"/>
      <point x="251" y="536"/>
      <point x="251" y="556" type="curve" smooth="yes"/>
      <point x="251" y="563"/>
      <point x="258" y="578"/>
      <point x="287" y="604" type="curve"/>
      <point x="268" y="611"/>
      <point x="254" y="614"/>
      <point x="243" y="614" type="curve" smooth="yes"/>
      <point x="198" y="614"/>
      <point x="184" y="575"/>
      <point x="184" y="552" type="curve" smooth="yes"/>
      <point x="184" y="502"/>
      <point x="278" y="486"/>
      <point x="278" y="455" type="curve" smooth="yes"/>
      <point x="278" y="446"/>
      <point x="277" y="428"/>
      <point x="249" y="384" type="curve"/>
      <point x="265" y="384" type="line"/>
      <point x="258" y="364" type="line"/>
      <point x="231" y="382"/>
      <point x="198" y="393"/>
      <point x="198" y="411" type="curve" smooth="yes"/>
      <point x="198" y="419"/>
      <point x="205" y="433"/>
      <point x="234" y="459" type="curve"/>
      <point x="215" y="466"/>
      <point x="201" y="469"/>
      <point x="190" y="469" type="curve" smooth="yes"/>
      <point x="145" y="469"/>
      <point x="131" y="430"/>
      <point x="131" y="408" type="curve" smooth="yes"/>
      <point x="131" y="356"/>
      <point x="226" y="341"/>
      <point x="226" y="310" type="curve" smooth="yes"/>
      <point x="226" y="302"/>
      <point x="224" y="288"/>
      <point x="197" y="239" type="curve"/>
      <point x="206" y="239"/>
      <point x="215" y="239"/>
      <point x="223" y="240" type="curve"/>
      <point x="221" y="231"/>
      <point x="219" y="221"/>
      <point x="216" y="212" type="curve"/>
      <point x="188" y="236"/>
      <point x="144" y="248"/>
      <point x="144" y="268" type="curve" smooth="yes"/>
      <point x="144" y="275"/>
      <point x="151" y="290"/>
      <point x="180" y="316" type="curve"/>
      <point x="161" y="323"/>
      <point x="147" y="326"/>
      <point x="136" y="326" type="curve" smooth="yes"/>
      <point x="91" y="326"/>
      <point x="77" y="287"/>
      <point x="77" y="264" type="curve" smooth="yes"/>
      <point x="77" y="213"/>
      <point x="172" y="198"/>
      <point x="172" y="167" type="curve" smooth="yes"/>
      <point x="172" y="159"/>
      <point x="170" y="144"/>
      <point x="143" y="96" type="curve"/>
      <point x="161" y="96"/>
      <point x="177" y="98"/>
      <point x="190" y="102" type="curve"/>
      <point x="177" y="38"/>
      <point x="173" y="5"/>
      <point x="173" y="0" type="curve"/>
      <point x="596" y="0" type="line"/>
      <point x="567" y="63" type="line"/>
      <point x="247" y="63" type="line"/>
      <point x="258" y="121"/>
      <point x="278" y="214"/>
      <point x="310" y="324" type="curve" smooth="yes"/>
      <point x="386" y="585"/>
      <point x="513" y="604"/>
      <point x="641" y="604" type="curve" smooth="yes"/>
      <point x="789" y="604"/>
      <point x="1133" y="255"/>
      <point x="1133" y="228" type="curve" smooth="yes"/>
      <point x="1133" y="211"/>
      <point x="1099" y="179"/>
      <point x="1073" y="170" type="curve"/>
      <point x="1010" y="199"/>
      <point x="960" y="236"/>
      <point x="909" y="269" type="curve"/>
      <point x="859" y="263"/>
      <point x="844" y="259"/>
      <point x="801" y="259" type="curve" smooth="yes"/>
      <point x="784" y="259"/>
      <point x="706" y="259"/>
      <point x="652" y="289" type="curve"/>
      <point x="633" y="374"/>
      <point x="632" y="418"/>
    </contour>
  </outline>
</glyph>
